<svg width="34" height="34" viewBox="0 0 34 34" fill="none" xmlns="http://www.w3.org/2000/svg">
<path d="M2.90039 7.08688L16.8404 2.125V31.875L5.06789 25.3725L2.90039 7.08688Z" fill="#DE3641"/>
<path d="M16.8408 2.125L31.0996 7.00188L28.7727 25.2875L16.8408 31.875V2.125Z" fill="#B13138"/>
<path d="M16.8409 5.46118L25.9041 24.8306H22.8122L20.8784 20.4106H16.8409V17.7756H19.7841L16.8409 11.6874L14.3653 17.7756H16.8409V20.4106H13.1541L11.4222 24.8306H8.08594L16.8409 5.46118Z" fill="white"/>
<path d="M19.8581 29.973L18.6787 16.7236H31.6625L30.4831 29.973L25.16 31.4499L19.8581 29.973Z" fill="#E44F26"/>
<path d="M25.1709 30.3239L29.474 29.1339L30.4834 17.8076H25.1709V30.3239Z" fill="#F1662A"/>
<path d="M25.1708 22.7269H23.0246L22.8758 21.0587H25.1708V19.4331H21.0908L21.1333 19.8687L21.5371 24.3525H25.1708V22.7269ZM25.1708 26.945H25.1602L23.3539 26.4562L23.2371 25.16H21.6114L21.8346 27.71L25.1602 28.6344H25.1708V26.945Z" fill="#EBEBEB"/>
<path d="M25.1709 22.7269V24.3525H27.1684L26.9771 26.4562L25.1709 26.945V28.6344L28.4965 27.71L28.5284 27.4337L28.9003 23.1625L28.9428 22.7269H25.1709ZM25.1709 19.4331V21.0587H29.0915L29.1234 20.6869L29.1978 19.8687L29.2403 19.4331H25.1709Z" fill="white"/>
</svg>
