<svg width="34" height="34" viewBox="0 0 34 34" fill="none" xmlns="http://www.w3.org/2000/svg">
<path fill-rule="evenodd" clip-rule="evenodd" d="M5.3123 25.7391V23.5876C5.3123 23.2954 5.49824 23.0829 5.79043 23.0829H5.87012C6.1623 23.0829 6.34824 23.3219 6.34824 23.5876V28.1032C6.34824 29.1922 5.81699 30.0688 4.86074 30.6266C4.40918 30.8922 3.93105 31.0251 3.42637 31.0251H3.21387C2.1248 31.0251 1.24824 30.4938 0.69043 29.5375C0.424805 29.086 0.291992 28.6079 0.291992 28.1032V27.8907C0.291992 26.8016 0.823242 25.925 1.77949 25.3672C2.23105 25.1016 2.70918 24.9688 3.21387 24.9688H3.42637C4.14355 24.9954 4.78105 25.261 5.3123 25.7391ZM1.30137 27.9969C1.30137 28.7938 1.6998 29.3782 2.39043 29.7766C2.68262 29.936 2.9748 30.0157 3.29355 30.0157C4.06387 30.0157 4.64824 29.6438 5.04668 28.9797C5.23262 28.661 5.3123 28.3422 5.3123 27.9704C5.3123 27.2797 4.99355 26.7485 4.43574 26.35C4.09043 26.111 3.71855 25.9782 3.32012 25.9782C2.47012 25.9782 1.85918 26.4032 1.4873 27.1735C1.35449 27.4391 1.30137 27.7313 1.30137 27.9969ZM9.85449 24.9954H9.9873C11.1561 24.9954 12.0592 25.5532 12.617 26.5891C12.8561 26.9875 12.9623 27.4391 12.9623 27.9172V28.1297C12.9623 29.2188 12.4311 30.0954 11.4748 30.6532C11.0232 30.9188 10.5451 31.0516 10.0404 31.0516H9.82793C8.73887 31.0516 7.8623 30.5204 7.30449 29.5641C7.03887 29.1126 6.90605 28.6344 6.90605 28.1297V27.9172C6.90605 26.8282 7.46387 25.9516 8.39355 25.3938C8.84512 25.1016 9.3498 24.9954 9.85449 24.9954ZM7.94199 27.9969C7.94199 28.7672 8.31387 29.325 8.97793 29.7235C9.29668 29.9094 9.61543 29.9891 9.9873 29.9891C10.7576 29.9891 11.3154 29.5907 11.7139 28.9532C11.8998 28.6344 11.9795 28.3157 11.9795 27.9438C11.9795 27.2266 11.6342 26.6688 11.0498 26.2704C10.7311 26.0579 10.3592 25.9516 9.9873 25.9516C9.1373 25.9516 8.52637 26.3766 8.15449 27.1469C7.99512 27.4391 7.94199 27.7313 7.94199 27.9969ZM17.1857 26.0844C17.0264 26.0047 16.7342 25.9782 16.5748 25.9782C15.7248 25.9516 15.1139 26.4297 14.742 27.1735C14.6092 27.4391 14.5561 27.7047 14.5561 27.9969C14.5561 28.8735 15.0076 29.4844 15.7779 29.8563C16.0701 29.9891 16.4154 30.0157 16.7342 30.0157C16.9998 30.0157 17.3982 29.8563 17.6373 29.7235L17.6904 29.6969H17.9029C18.142 29.7501 18.3014 29.8829 18.3014 30.1485V30.2547C18.3014 30.8657 17.1592 31.025 16.7342 31.0516C15.2201 31.1579 14.0779 30.3344 13.6529 28.8735C13.5732 28.6344 13.5467 28.3688 13.5467 28.1032V27.8907C13.5467 26.8016 14.1045 25.925 15.0342 25.3672C15.4857 25.1016 15.9639 24.9688 16.4686 24.9688H16.6811C17.2123 24.9688 17.717 25.1282 18.1686 25.4204L18.1951 25.4469L18.2217 25.4735C18.2748 25.5532 18.3014 25.6329 18.3014 25.7391V25.8454C18.3014 26.111 18.1154 26.2438 17.8764 26.2969H17.7967C17.6639 26.2969 17.3186 26.1375 17.1857 26.0844ZM20.4795 26.7751C20.8779 26.3766 21.2764 25.9782 21.6748 25.6063C21.7811 25.5 22.2061 25.0485 22.3654 25.0485H22.5779C22.817 25.1016 22.9764 25.2344 22.9764 25.5V25.6063C22.9764 25.7657 22.7904 25.9782 22.6576 26.0844L21.9404 26.8016L20.7186 28.05C21.2498 28.5813 21.7811 29.1125 22.2857 29.6438L22.7107 30.0954C22.7639 30.1485 22.8436 30.2016 22.8701 30.2813C22.9232 30.361 22.9498 30.4407 22.9498 30.5204V30.6532C22.8967 30.8922 22.7373 31.0782 22.4982 31.0782H22.4186C22.2592 31.0782 22.0732 30.8922 21.9404 30.786C21.7014 30.5735 21.4623 30.3344 21.2498 30.0954L20.4795 29.325V30.5469C20.4795 30.8391 20.2936 31.0516 20.0014 31.0516H19.9217C19.6295 31.0516 19.4436 30.8125 19.4436 30.5469V23.6141C19.4436 23.3219 19.6295 23.1094 19.9217 23.1094H20.0014C20.2936 23.1094 20.4795 23.3219 20.4795 23.6141V26.7751ZM33.1232 25.0219H33.2295C33.5217 25.0219 33.7342 25.2344 33.7342 25.5266C33.7342 25.9516 33.3357 26.0579 32.9904 26.0579C32.5389 26.0579 32.0873 26.3235 31.7951 26.6422C31.3967 27.0407 31.2373 27.5188 31.2373 28.0766V30.5204C31.2373 30.8125 31.0514 31.0251 30.7592 31.0251H30.6795C30.3873 31.0251 30.2014 30.786 30.2014 30.5204V27.9172C30.2014 26.9079 30.6795 26.111 31.5029 25.5266C31.9811 25.2079 32.5389 25.0219 33.1232 25.0219ZM25.9248 29.8829C26.2967 30.0157 26.7217 29.9891 27.0936 29.936C27.2795 29.8563 27.7842 29.6438 27.9701 29.6704H28.0232C28.1295 29.7235 28.2357 29.8032 28.2889 29.9094C28.4217 30.175 28.3686 30.4407 28.1029 30.6L28.0232 30.6532C27.067 31.211 26.0311 31.1313 25.0748 30.6C24.6232 30.361 24.2779 29.9891 24.0123 29.5375L23.9592 29.4313C23.3482 28.3688 23.4279 27.2266 24.1186 26.2172C24.3576 25.8719 24.6764 25.6063 25.0482 25.3938L25.1811 25.3141C26.0842 24.7829 27.067 24.836 27.9967 25.2875C28.5014 25.5266 28.8998 25.8985 29.192 26.3766L29.2451 26.4563C29.4576 26.8016 29.192 27.1204 28.9264 27.3329C28.6076 27.5719 28.2889 27.8641 27.9967 28.1297C27.2795 28.7141 26.5889 29.2985 25.9248 29.8829ZM25.0482 29.2719L27.3061 27.3329C27.5717 27.1204 27.8373 26.8813 28.1029 26.6422C27.8904 26.3766 27.5451 26.1907 27.2795 26.0844C26.6951 25.8719 26.1107 25.9251 25.5795 26.2438C24.8889 26.6422 24.5701 27.3063 24.5967 28.1032C24.5967 28.4219 24.7029 28.7141 24.8623 29.0063C24.9154 29.1125 24.9686 29.1922 25.0482 29.2719ZM19.5764 8.95161H22.5779V12.0063H24.092C24.7826 12.0063 25.4998 11.8735 26.1639 11.661C26.4826 11.5547 26.8545 11.3954 27.1732 11.2094C26.7482 10.6516 26.5357 9.96099 26.4826 9.27036C26.4029 8.34067 26.5889 7.1188 27.2264 6.40161L27.5451 6.02974L27.917 6.32192C28.8732 7.09224 29.6436 8.12817 29.8029 9.35005C30.9451 9.00474 32.2732 9.08442 33.2826 9.6688L33.6811 9.90786L33.4686 10.3329C32.6186 11.9797 30.8389 12.511 29.1123 12.4047C26.5092 18.8594 20.8779 21.9141 14.0248 21.9141C10.492 21.9141 7.25137 20.586 5.39199 17.4516L5.36543 17.3985L5.0998 16.8407C4.4623 15.4594 4.27637 13.9454 4.40918 12.4313L4.4623 11.9797H7.0123V8.95161H10.0139V5.95005H15.9904V2.94849H19.5764V8.95161Z" fill="#3A4D54"/>
<path d="M29.2717 10.0672C29.4842 8.49998 28.3155 7.2781 27.5717 6.69373C26.7483 7.64998 26.6155 10.2 27.9171 11.2625C27.1733 11.9 25.6592 12.5109 24.0655 12.5109H4.88736C4.72799 14.1578 5.02018 15.6719 5.68424 16.9734L5.89674 17.3719C6.02955 17.6109 6.18893 17.8234 6.3483 18.0625C7.14518 18.1156 7.86236 18.1422 8.52642 18.1156C9.82799 18.089 10.8905 17.9297 11.7139 17.664C11.8467 17.6109 11.953 17.6906 12.0061 17.7969C12.0592 17.9297 11.9796 18.0359 11.8733 18.089C11.7671 18.1156 11.6608 18.1687 11.528 18.1953C10.8905 18.3812 10.1999 18.4875 9.3233 18.5406H9.16393C8.81861 18.5672 8.44674 18.5672 8.0483 18.5672C7.6233 18.5672 7.22486 18.5672 6.74674 18.5406C8.34049 20.3469 10.8374 21.4093 13.9717 21.4093C20.6124 21.4093 26.2436 18.4609 28.7139 11.8734C30.4936 12.0594 32.1936 11.6078 32.9639 10.0937C31.7686 9.4031 30.1749 9.6156 29.2717 10.0672Z" fill="#00AADA"/>
<path d="M29.2715 10.0672C29.484 8.49998 28.3153 7.2781 27.5715 6.69373C26.7481 7.64998 26.6153 10.2 27.9168 11.2625C27.1731 11.9 25.659 12.5109 24.0653 12.5109H6.00278C5.92309 15.0343 6.85278 16.9468 8.52622 18.089C9.82778 18.0625 10.8903 17.9031 11.7137 17.6375C11.8465 17.5844 11.9528 17.664 12.0059 17.7703C12.059 17.9031 11.9793 18.0094 11.8731 18.0625C11.7668 18.089 11.6606 18.1422 11.5278 18.1687C10.8903 18.3547 10.1465 18.4875 9.26997 18.5406L9.24341 18.514C11.5012 19.6828 14.7684 19.6562 18.5403 18.2218C22.7372 16.6015 26.6684 13.5203 29.4043 10.014C29.3512 10.0406 29.3247 10.0672 29.2715 10.0672Z" fill="#28B8EB"/>
<path d="M4.91406 14.5032C5.02031 15.3797 5.28594 16.2032 5.68437 16.9735L5.89688 17.3719C6.02969 17.611 6.18906 17.8235 6.34844 18.0625C7.14531 18.1157 7.8625 18.1422 8.52656 18.1157C9.82812 18.0891 10.8906 17.9297 11.7141 17.6641C11.8469 17.611 11.9531 17.6907 12.0063 17.7969C12.0594 17.9297 11.9797 18.036 11.8734 18.0891C11.7672 18.1157 11.6609 18.1688 11.5281 18.1954C10.8906 18.3813 10.1469 18.5141 9.27031 18.5672H9.16406C8.81875 18.5938 8.44687 18.5938 8.075 18.5938C7.65 18.5938 7.225 18.5938 6.77344 18.5672C8.36719 20.3735 10.8906 21.436 14.025 21.436C19.7094 21.436 24.65 19.2844 27.5187 14.5297H4.91406V14.5032Z" fill="#028BB8"/>
<path d="M6.18945 14.5032C6.53477 16.0438 7.33164 17.2657 8.52695 18.0891C9.82852 18.0625 10.891 17.9032 11.7145 17.6375C11.8473 17.5844 11.9535 17.6641 12.0066 17.7704C12.0598 17.9032 11.9801 18.0094 11.8738 18.0625C11.7676 18.0891 11.6613 18.1422 11.5285 18.1688C10.891 18.3547 10.1473 18.4876 9.24414 18.5407C11.502 19.7094 14.7691 19.6829 18.5145 18.2485C20.7723 17.3719 22.977 16.0704 24.9426 14.5032H6.18945Z" fill="#019BC6"/>
<path fill-rule="evenodd" clip-rule="evenodd" d="M7.49023 9.42971H10.0934V12.0328H7.49023V9.42971ZM7.70273 9.66878H7.91523V11.8203H7.70273V9.66878ZM8.10117 9.66878H8.31367V11.8203H8.10117V9.66878ZM8.49961 9.66878H8.71211V11.8203H8.49961V9.66878ZM8.87148 9.66878H9.08398V11.8203H8.87148V9.66878ZM9.26992 9.66878H9.48242V11.8203H9.26992V9.66878ZM9.66836 9.66878H9.88086V11.8203H9.66836V9.66878ZM10.4918 6.45471H13.0949V9.03127H10.4918V6.45471ZM10.7043 6.66721H10.9168V8.81877H10.7043V6.66721ZM11.1027 6.66721H11.3152V8.81877H11.1027V6.66721ZM11.4746 6.66721H11.6871V8.81877H11.4746V6.66721ZM11.873 6.66721H12.0855V8.81877H11.873V6.66721ZM12.2715 6.66721H12.484V8.81877H12.2715V6.66721ZM12.6699 6.66721H12.8824V8.81877H12.6699V6.66721Z" fill="#00ACD3"/>
<path fill-rule="evenodd" clip-rule="evenodd" d="M10.4922 9.42969H13.0953V12.0328H10.4922V9.42969ZM10.7047 9.66875H10.9172V11.8203H10.7047V9.66875ZM11.1031 9.66875H11.3156V11.8203H11.1031V9.66875ZM11.475 9.66875H11.6875V11.8203H11.475V9.66875ZM11.8734 9.66875H12.0859V11.8203H11.8734V9.66875ZM12.2719 9.66875H12.4844V11.8203H12.2719V9.66875ZM12.6703 9.66875H12.8828V11.8203H12.6703V9.66875Z" fill="#23C2EE"/>
<path fill-rule="evenodd" clip-rule="evenodd" d="M13.4941 9.42969H16.0973V12.0328H13.4941V9.42969ZM13.7066 9.66875H13.9191V11.8203H13.7066V9.66875ZM14.0785 9.66875H14.291V11.8203H14.0785V9.66875ZM14.477 9.66875H14.6895V11.8203H14.477V9.66875ZM14.8754 9.66875H15.0879V11.8203H14.8754V9.66875ZM15.2738 9.66875H15.4863V11.8203H15.2738V9.66875ZM15.6457 9.66875H15.8582V11.8203H15.6457V9.66875Z" fill="#00ACD3"/>
<path fill-rule="evenodd" clip-rule="evenodd" d="M13.4941 6.45471H16.0973V9.03127H13.4941V6.45471ZM13.7066 6.66721H13.9191V8.81877H13.7066V6.66721ZM14.0785 6.66721H14.291V8.81877H14.0785V6.66721ZM14.477 6.66721H14.6895V8.81877H14.477V6.66721ZM14.8754 6.66721H15.0879V8.81877H14.8754V6.66721ZM15.2738 6.66721H15.4863V8.81877H15.2738V6.66721ZM15.6457 6.66721H15.8582V8.81877H15.6457V6.66721ZM16.4691 9.42971H19.0723V12.0328H16.4691V9.42971ZM16.7082 9.66878H16.9207V11.8203H16.7082V9.66878ZM17.0801 9.66878H17.2926V11.8203H17.0801V9.66878ZM17.4785 9.66878H17.691V11.8203H17.4785V9.66878ZM17.877 9.66878H18.0895V11.8203H17.877V9.66878ZM18.2488 9.66878H18.4613V11.8203H18.2488V9.66878ZM18.6473 9.66878H18.8598V11.8203H18.6473V9.66878Z" fill="#23C2EE"/>
<path fill-rule="evenodd" clip-rule="evenodd" d="M16.4688 6.45471H19.0719V9.03127H16.4688V6.45471ZM16.7078 6.66721H16.9203V8.81877H16.7078V6.66721ZM17.0797 6.66721H17.2922V8.81877H17.0797V6.66721ZM17.4781 6.66721H17.6906V8.81877H17.4781V6.66721ZM17.8766 6.66721H18.0891V8.81877H17.8766V6.66721ZM18.2484 6.66721H18.4609V8.81877H18.2484V6.66721ZM18.6469 6.66721H18.8594V8.81877H18.6469V6.66721Z" fill="#00ACD3"/>
<path fill-rule="evenodd" clip-rule="evenodd" d="M16.4688 3.45312H19.0719V6.05625H16.4688V3.45312ZM16.7078 3.66563H16.9203V5.84375H16.7078V3.66563ZM17.0797 3.66563H17.2922V5.84375H17.0797V3.66563ZM17.4781 3.66563H17.6906V5.84375H17.4781V3.66563ZM17.8766 3.66563H18.0891V5.84375H17.8766V3.66563ZM18.2484 3.66563H18.4609V5.84375H18.2484V3.66563ZM18.6469 3.66563H18.8594V5.84375H18.6469V3.66563Z" fill="#23C2EE"/>
<path fill-rule="evenodd" clip-rule="evenodd" d="M19.4707 9.42969H22.0738V12.0328H19.4707V9.42969ZM19.6832 9.66875H19.8957V11.8203H19.6832V9.66875ZM20.0816 9.66875H20.2941V11.8203H20.0816V9.66875ZM20.4801 9.66875H20.6926V11.8203H20.4801V9.66875ZM20.852 9.66875H21.0645V11.8203H20.852V9.66875ZM21.2504 9.66875H21.4629V11.8203H21.2504V9.66875ZM21.6488 9.66875H21.8613V11.8203H21.6488V9.66875Z" fill="#00ACD3"/>
<path fill-rule="evenodd" clip-rule="evenodd" d="M12.9096 16.2562C13.308 16.2562 13.6268 16.575 13.6268 16.9734C13.6268 17.3719 13.308 17.6906 12.9096 17.6906C12.5111 17.6906 12.1924 17.3719 12.1924 16.9734C12.2189 16.575 12.5377 16.2562 12.9096 16.2562Z" fill="#D4EEF1"/>
<path fill-rule="evenodd" clip-rule="evenodd" d="M12.9094 15.4421C12.9625 15.4421 13.0422 15.4421 13.0953 15.4687C13.0422 15.4953 12.9891 15.575 12.9891 15.6546C12.9891 15.7609 13.0953 15.8671 13.2016 15.8671C13.2813 15.8671 13.3609 15.814 13.3875 15.7609C13.4141 15.814 13.4141 15.8937 13.4141 15.9468C13.4141 16.239 13.175 16.4515 12.9094 16.4515C12.6172 16.4515 12.4047 16.2125 12.4047 15.9468C12.4047 15.6812 12.6437 15.4421 12.9094 15.4421ZM0.265625 13.7687H33.5484C32.8313 13.5828 31.2641 13.3437 31.5031 12.3875C30.175 13.9015 27.0141 13.45 26.1906 12.7062C25.2875 14.0078 20.0813 13.5031 19.7359 12.4937C18.6203 13.8218 15.1406 13.8218 14.025 12.4937C13.6531 13.5031 8.44687 14.0078 7.57031 12.7062C6.77344 13.45 3.58594 13.9015 2.25781 12.3875C2.55 13.3171 0.982813 13.5828 0.265625 13.7687Z" fill="#3A4D54"/>
<path d="M14.8215 21.4093C13.0418 20.5593 12.0855 19.4171 11.5277 18.1687C10.8637 18.3546 10.0668 18.4875 9.16367 18.5406C8.81836 18.5671 8.44648 18.5671 8.07461 18.5671C7.62305 18.5671 7.17148 18.5671 6.69336 18.5406C8.31367 20.1609 10.3324 21.4093 14.0246 21.4359C14.2902 21.4093 14.5559 21.4093 14.8215 21.4093Z" fill="#BFDBE0"/>
<path d="M12.1922 19.3109C11.9531 18.9656 11.7141 18.5671 11.5281 18.1687C10.8641 18.3546 10.0672 18.4875 9.16406 18.5406C9.80156 18.8859 10.7047 19.2046 12.1922 19.3109Z" fill="#D4EEF1"/>
</svg>
