<svg width="34" height="34" viewBox="0 0 34 34" fill="none" xmlns="http://www.w3.org/2000/svg">
<g clip-path="url(#clip0_57847_45)">
<path d="M26.0312 0H7.96875C3.56773 0 0 3.56773 0 7.96875V26.0312C0 30.4323 3.56773 34 7.96875 34H26.0312C30.4323 34 34 30.4323 34 26.0312V7.96875C34 3.56773 30.4323 0 26.0312 0Z" fill="#D34A47"/>
<path d="M20.5104 30.7286L20.7906 26.0573L21.5648 24.7359C21.5648 24.7359 19.8029 25.4566 16.8535 25.4566C13.9039 25.4566 12.1688 24.7492 12.1688 24.7492L13.0363 26.1906L13.3433 30.7286C13.3433 31.215 14.9476 31.6094 16.9268 31.6094C18.906 31.6094 20.5104 31.215 20.5104 30.7286ZM19.626 8.9145L20.2145 6.58869L23.4729 3.16L22.6141 2.42847L19.1643 6.08081L18.4811 8.85965C17.9669 8.84244 17.4525 8.83389 16.938 8.83401C13.3048 8.83401 10.3594 9.24799 10.3594 9.75865C10.3594 10.2695 13.3048 10.6834 16.938 10.6834C20.5712 10.6834 23.5166 10.2695 23.5166 9.75865C23.5166 9.38266 21.9191 9.059 19.626 8.9145Z" fill="white"/>
<path d="M19.2837 10.2169C19.2837 10.2169 19.1563 10.2456 18.7814 10.2472C18.4064 10.2487 18.1403 10.2447 18.0342 10.1481C18.0056 10.1222 17.9901 10.0707 17.9902 10.0358C17.9905 9.96936 18.0376 9.93031 18.0976 9.90587L18.1544 9.99486C18.1298 10.0034 18.1156 10.0135 18.1156 10.0242C18.1153 10.0747 18.499 10.1092 18.7924 10.1055C19.0858 10.1018 19.4404 10.0776 19.4406 10.0279C19.4406 10.0129 19.4139 9.99871 19.3672 9.98769L19.4238 9.89923C19.4997 9.92274 19.5661 9.9683 19.566 10.0473C19.5654 10.1815 19.3946 10.2019 19.2837 10.2169ZM23.4665 3.1667C23.5484 3.07214 23.4241 2.83002 23.1887 2.62616C22.9534 2.42242 22.6961 2.33397 22.6141 2.42853C22.532 2.52309 22.6564 2.76521 22.8919 2.96908C23.1271 3.17281 23.3845 3.2614 23.4665 3.1667ZM20.3536 19.3186C20.2763 18.5755 21.9787 17.4994 21.5419 17.465C20.6013 17.5187 20.1331 18.5672 19.6599 19.6653C19.4866 20.0678 18.8932 21.7838 18.504 21.5727C18.1149 21.3615 19.0085 19.9502 19.2588 19.1122C18.9698 19.324 17.9101 20.1474 17.637 19.3763C17.198 19.7493 16.2598 19.9513 16.3656 18.9718C16.132 19.3855 15.6078 19.9631 14.9785 19.7231C14.152 19.4079 15.4573 16.7755 15.7819 16.9083C16.1065 17.0411 15.7164 17.6407 15.6142 17.8736C15.3895 18.3861 15.1299 19.0304 15.3034 19.1622C15.6004 19.3882 16.4088 18.3075 16.4269 18.2837C16.578 18.0839 17.0087 16.7771 17.356 16.9271C17.7032 17.0772 16.4899 18.8027 16.9436 19.1451C17.035 19.2143 17.4094 19.1025 17.637 18.8561C17.7843 18.6969 17.7337 18.3438 18.2247 17.1727C18.7157 16.0016 19.1536 14.5432 19.4903 14.6543C19.827 14.7655 19.5495 15.5139 19.4287 15.7929C18.8617 17.1026 17.8813 19.2664 18.3437 19.1025C18.8062 18.9386 19.0469 18.9292 19.4996 18.3994C19.9524 17.8694 19.9315 16.9967 20.2333 17.0153C20.535 17.0339 20.4845 17.3138 20.4112 17.5268C20.7083 17.1869 21.8192 16.4711 22.0875 17.18C22.4051 18.0194 20.498 19.2318 20.9736 19.1699C21.4371 19.1096 22.1881 18.634 22.5089 18.2015L23.3915 10.2659C23.3915 10.2659 22.5033 11.0009 16.8525 11.0009C11.2016 11.0009 10.4053 10.2811 10.4053 10.2811L11.1567 17.5245C11.5557 16.3908 12.5029 14.0977 13.996 14.1746C14.6751 14.2097 15.5818 15.5175 14.8051 15.5618C14.4764 15.5804 14.443 14.9091 14.0538 14.8104C13.7729 14.7392 13.3817 14.9676 13.129 15.2151C12.625 15.7083 11.5408 17.6547 11.684 18.625C11.8666 19.8622 13.3912 18.1951 13.6492 17.7002C13.8309 17.3516 13.9536 16.3187 14.3509 16.4271C14.7484 16.5355 14.3162 17.6014 14.0283 18.5439C13.7046 19.6021 13.5346 20.7184 13.1291 20.5901C12.7234 20.4617 13.3841 19.0956 13.3602 18.8561C12.979 19.2079 12.2766 20.0983 11.3781 19.6576L11.8448 24.1557C11.8448 24.1557 13.0853 25.1357 16.8218 25.1357C20.5585 25.1357 21.8448 24.171 21.8448 24.171L22.4244 18.9612C21.9503 19.4228 20.4496 20.2427 20.3536 19.3186Z" fill="white"/>
</g>
<defs>
<clipPath id="clip0_57847_45">
<rect width="34" height="34" fill="white"/>
</clipPath>
</defs>
</svg>
