<svg width="25" height="34" viewBox="0 0 25 34" fill="none" xmlns="http://www.w3.org/2000/svg">
<g clip-path="url(#clip0_57847_13)">
<path d="M24.069 6.66504L21.8801 31.1865L12.0408 33.9142L2.22863 31.1902L0.0419922 6.66504H24.069Z" fill="#E44D26"/>
<path d="M12.0557 31.8291L20.0063 29.6249L21.8768 8.67017H12.0557V31.8291Z" fill="#F16529"/>
<path d="M7.79996 14.6861H12.0551V11.6782H4.5127L4.58465 12.4852L5.32399 20.7742H12.0551V17.7663H8.07488L7.79996 14.6861ZM8.47789 22.2782H5.45839L5.87976 27.0011L12.0413 28.7115L12.0551 28.7077V25.5782L12.042 25.5817L8.69206 24.6771L8.47789 22.2782Z" fill="#EBEBEB"/>
<path d="M2.27734 0H3.80593V1.51022H5.20426V0H6.73294V4.57333H5.20436V3.04192H3.80602V4.57333H2.27744L2.27734 0ZM8.74299 1.51663H7.3975V0H11.6182V1.51663H10.2719V4.57333H8.74328V1.51663H8.74299ZM12.288 0H13.8819L14.8623 1.60695L15.8418 0H17.4364V4.57333H15.914V2.30654L14.8623 3.9326H14.836L13.7837 2.30654V4.57333H12.288V0ZM18.1971 0H19.7261V3.0617H21.8758V4.57333H18.197L18.1971 0Z" fill="black"/>
<path d="M12.045 20.7742H15.7489L15.3997 24.6753L12.0449 25.5807V28.7101L18.2114 27.0011L18.2566 26.4929L18.9635 18.574L19.0369 17.7663H12.045V20.7742ZM12.045 14.6788V14.6861H19.3106L19.3708 14.0101L19.508 12.4852L19.5798 11.6782H12.045V14.6788Z" fill="white"/>
</g>
<defs>
<clipPath id="clip0_57847_13">
<rect width="24.1108" height="34" fill="white"/>
</clipPath>
</defs>
</svg>
