<svg width="26" height="34" viewBox="0 0 26 34" fill="none" xmlns="http://www.w3.org/2000/svg">
<g clip-path="url(#clip0_57847_30)">
<path d="M9.90999 17.473C9.90999 17.473 8.61308 18.2272 10.833 18.4824C13.5224 18.7892 14.8969 18.7453 17.8607 18.1843C17.8607 18.1843 18.6399 18.6729 19.728 19.0961C13.0842 21.9435 4.69149 18.9311 9.90999 17.473ZM9.09812 13.7572C9.09812 13.7572 7.64349 14.834 9.86509 15.0637C12.738 15.3601 15.0068 15.3844 18.9327 14.6284C18.9327 14.6284 19.4757 15.1789 20.3295 15.48C12.2966 17.8289 3.34937 15.6652 9.09812 13.7572Z" fill="#5382A1"/>
<path d="M14.1441 16.2644C15.7812 18.1492 13.714 19.8452 13.714 19.8452C13.714 19.8452 17.8708 17.6994 15.9618 15.0122C14.1788 12.5065 12.8114 11.2612 20.2135 6.96838C20.2135 6.96838 8.59476 9.87027 14.1441 16.2644Z" fill="#E76F00"/>
<path d="M22.9317 29.0318C22.9317 29.0318 23.8915 29.8226 21.8747 30.4344C18.0397 31.5962 5.91315 31.947 2.5444 30.4807C1.33347 29.954 3.60439 29.2229 4.31869 29.0694C5.06364 28.9078 5.48943 28.938 5.48943 28.938C4.14269 27.9892 -3.21526 30.8008 1.75198 31.6059C15.2982 33.8027 26.4454 30.6168 22.9317 29.0318ZM8.73584 18.7177C8.73584 18.7177 2.56759 20.1828 6.55158 20.7147C8.2337 20.9399 11.587 20.889 14.7106 20.6273C17.2634 20.4121 19.8266 19.9541 19.8266 19.9541C19.8266 19.9541 18.9265 20.3396 18.2753 20.7843C12.0114 22.4317 -0.0892277 21.6653 3.3944 19.9802C6.34051 18.5561 8.73584 18.7177 8.73584 18.7177ZM19.8012 24.9027C26.1688 21.5939 23.2247 18.4142 21.1697 18.8426C20.666 18.9474 20.4415 19.0382 20.4415 19.0382C20.4415 19.0382 20.6285 18.7454 20.9856 18.6186C25.0508 17.1893 28.1774 22.8339 19.6732 25.0695C19.6732 25.0696 19.7718 24.9815 19.8012 24.9027Z" fill="#5382A1"/>
<path d="M15.9625 0.0364752C15.9625 0.0364752 19.489 3.56422 12.6179 8.9886C7.10799 13.34 11.3614 15.821 12.6156 18.6557C9.39935 15.7539 7.03901 13.1994 8.62256 10.8219C10.9466 7.33183 17.3853 5.63989 15.9625 0.0364752Z" fill="#E76F00"/>
<path d="M9.3617 33.8688C15.4737 34.2601 24.8594 33.6517 25.0817 30.7596C25.0817 30.7596 24.6544 31.8561 20.0304 32.7267C14.8137 33.7084 8.37963 33.5938 4.56348 32.9646C4.56357 32.9646 5.34459 33.6112 9.3617 33.8688Z" fill="#5382A1"/>
</g>
<defs>
<clipPath id="clip0_57847_30">
<rect width="25.1561" height="34" fill="white"/>
</clipPath>
</defs>
</svg>
