<svg width="34" height="34" viewBox="0 0 34 34" fill="none" xmlns="http://www.w3.org/2000/svg">
<path d="M23.2404 7.79309C23.0775 7.79309 22.967 7.81293 22.8523 7.83984V7.85826H22.8721C22.9486 8.00559 23.0789 8.11326 23.1752 8.24501C23.2517 8.39659 23.3169 8.54818 23.3934 8.69834L23.4132 8.67709C23.5464 8.58359 23.6116 8.43343 23.6116 8.20534C23.5549 8.13876 23.5464 8.07218 23.4982 8.00701C23.4416 7.91209 23.3197 7.86534 23.2432 7.79026L23.2404 7.79309ZM8.17417 26.4846H6.86092C6.82372 24.3975 6.69611 22.3131 6.47842 20.2371H6.46708L4.46958 26.4846H3.47083L1.4875 20.2371H1.47333C1.31829 22.3163 1.22617 24.3998 1.19708 26.4846H0C0.0783889 23.6985 0.272 21.0871 0.580833 18.6504H2.21L4.10125 24.4078H4.11258L6.02083 18.6504H7.57208C7.91492 21.5064 8.11703 24.1178 8.17842 26.4846H8.17417ZM13.8649 20.7046C13.3294 23.6031 12.6249 25.7092 11.7512 27.0229C11.0684 28.0373 10.3209 28.544 9.50867 28.543C9.29333 28.543 9.02606 28.4778 8.70683 28.3475V27.6477C8.86361 27.6722 9.04589 27.6845 9.25367 27.6845C9.63333 27.6845 9.93886 27.5797 10.1702 27.37C10.4489 27.115 10.5882 26.8293 10.5882 26.5129C10.5882 26.2929 10.4796 25.8471 10.2623 25.1756L8.82583 20.7046H10.115L11.1449 24.0479C11.3782 24.8073 11.475 25.3376 11.4353 25.6388C12.002 24.1296 12.3963 22.4849 12.6182 20.7046H13.8649ZM31.3253 26.4846H27.5995V18.6504H28.8533V25.5213H31.3253V26.4846ZM26.622 26.6758L25.1827 25.9675C25.3111 25.8608 25.4315 25.7427 25.5439 25.6133C26.1569 24.8956 26.4629 23.8316 26.4619 22.4216C26.4619 19.8291 25.4443 18.5324 23.409 18.5314C22.4117 18.5314 21.6325 18.8606 21.0715 19.5188C20.4614 20.2385 20.1563 21.2986 20.1563 22.6993C20.1554 24.0772 20.4264 25.0878 20.9695 25.7309C21.4644 26.3118 22.2119 26.6022 23.2121 26.6022C23.5861 26.6022 23.9284 26.5559 24.2392 26.4633L26.1162 27.557L26.6262 26.6758H26.622ZM21.9583 24.9163C21.6401 24.4054 21.4809 23.5856 21.4809 22.457C21.4809 20.4831 22.0806 19.4962 23.2801 19.4962C23.9091 19.4962 24.3704 19.7323 24.6642 20.2045C24.9815 20.7173 25.1402 21.531 25.1402 22.6454C25.1402 24.6354 24.5404 25.6308 23.341 25.6318C22.7111 25.6318 22.2492 25.3956 21.9555 24.9234L21.9583 24.9163ZM19.6095 24.3143C19.6095 24.981 19.3658 25.5269 18.8785 25.9519C18.3931 26.3769 17.7395 26.5894 16.9178 26.5894C16.1486 26.5894 15.4105 26.3458 14.6894 25.8598L15.0252 25.1855C15.6447 25.4962 16.2067 25.6511 16.711 25.6502C17.1813 25.6502 17.5511 25.5463 17.8203 25.3385C17.9551 25.2374 18.064 25.1057 18.1379 24.9542C18.2118 24.8027 18.2486 24.6358 18.2452 24.4673C18.2452 23.9998 17.9194 23.6031 17.3272 23.2702C16.7776 22.9684 15.6797 22.3394 15.6797 22.3394C15.0818 21.9045 14.7843 21.4384 14.7843 20.672C14.7843 20.0355 15.0063 19.5231 15.4502 19.1349C15.895 18.742 16.4711 18.5461 17.1785 18.547C17.9048 18.547 18.5659 18.7406 19.1618 19.1278L18.8601 19.8022C18.385 19.5924 17.8721 19.4815 17.3527 19.4763C16.9514 19.4763 16.6425 19.5736 16.4262 19.7682C16.3173 19.859 16.2295 19.9725 16.1688 20.1007C16.1082 20.2288 16.0761 20.3687 16.0749 20.5105C16.0749 20.9752 16.4064 21.3747 17.0184 21.7147C17.5752 22.0193 18.7 22.6638 18.7 22.6638C19.3134 23.0959 19.618 23.5563 19.618 24.3185L19.6095 24.3143ZM32.9007 16.0239C32.1428 16.0041 31.5548 16.0806 31.0632 16.2903C30.9216 16.3469 30.6949 16.3469 30.6751 16.5268C30.753 16.6019 30.7643 16.7252 30.8309 16.83C30.9442 17.0198 31.1397 17.2734 31.3211 17.4066C31.5175 17.5643 31.7192 17.7107 31.926 17.8458C32.2943 18.0724 32.7123 18.207 33.0735 18.4351C33.2789 18.5683 33.4886 18.7368 33.6968 18.8785C33.8002 18.9493 33.8668 19.0768 34 19.1222V19.0938C33.9348 19.0088 33.915 18.8856 33.8512 18.7907C33.7563 18.6958 33.6614 18.6108 33.5679 18.5173C33.2902 18.1504 32.9582 17.8279 32.5833 17.561C32.2802 17.3542 31.6172 17.0652 31.4925 16.7181L31.4741 16.6983C31.6809 16.6798 31.9274 16.6048 32.1257 16.5481C32.4473 16.4631 32.742 16.4815 33.0749 16.3979C33.226 16.3583 33.3771 16.3139 33.5282 16.2648V16.1798C33.3582 16.0098 33.2307 15.7788 33.0551 15.6202C32.5643 15.1922 32.0414 14.8024 31.4911 14.4543C31.1936 14.2644 30.8167 14.1426 30.5037 13.9811C30.3903 13.9244 30.2005 13.8961 30.1353 13.8012C29.9653 13.5943 29.8662 13.3195 29.7457 13.073C29.4679 12.5332 29.2094 11.9837 28.9708 11.4254C28.8008 11.0543 28.6974 10.6845 28.4892 10.3445C27.5117 8.73376 26.4534 7.75768 24.8257 6.80284C24.4757 6.60451 24.0564 6.51951 23.613 6.41468C23.3764 6.40334 23.1398 6.38634 22.9047 6.37643C22.7488 6.30984 22.5987 6.12993 22.4655 6.04351C21.9272 5.70351 20.5332 4.96684 20.1365 5.94151C19.8815 6.55634 20.5147 7.16268 20.7343 7.47434C20.8972 7.69109 21.1027 7.93901 21.216 8.18268C21.2826 8.34701 21.301 8.51559 21.3676 8.68701C21.5177 9.10351 21.6608 9.56818 21.8592 9.95776C21.9626 10.1561 22.0759 10.3643 22.2091 10.5428C22.2856 10.6463 22.4159 10.6944 22.4457 10.8644C22.3125 11.0571 22.304 11.3376 22.2275 11.5728C21.8875 12.6452 22.0207 13.9712 22.5023 14.7603C22.6539 14.9954 23.0152 15.5168 23.4982 15.317C23.9232 15.147 23.8297 14.6087 23.9516 14.1341C23.9799 14.0208 23.9615 13.9457 24.0196 13.8692V13.8904C24.1527 14.1568 24.2859 14.4103 24.4077 14.6767C24.6996 15.1413 25.2096 15.623 25.636 15.9446C25.8627 16.1146 26.0426 16.4093 26.3259 16.5141V16.4858H26.3047C26.2438 16.4036 26.163 16.3639 26.0865 16.2973C25.9071 16.1213 25.7413 15.9319 25.5907 15.7307C25.1927 15.1845 24.8389 14.6075 24.5324 14.0052C24.3766 13.7077 24.2462 13.3875 24.1216 13.0943C24.0649 12.9809 24.0649 12.8109 23.97 12.7543C23.8283 12.9611 23.6201 13.141 23.5167 13.396C23.3367 13.804 23.3183 14.3055 23.2503 14.8268C23.2121 14.8368 23.2305 14.8268 23.2121 14.8467C22.9089 14.773 22.8055 14.4585 22.6922 14.195C22.4088 13.5221 22.3621 12.4412 22.6072 11.6663C22.6737 11.4679 22.9571 10.8418 22.8437 10.6519C22.7842 10.472 22.5972 10.3686 22.4938 10.2227C22.361 10.0327 22.2471 9.83004 22.1538 9.61776C21.9272 9.08793 21.8138 8.50143 21.5673 7.97159C21.454 7.72651 21.2557 7.47009 21.0942 7.24484C20.9142 6.98984 20.7159 6.80993 20.5728 6.50818C20.5261 6.40476 20.4595 6.23334 20.5346 6.12001C20.5544 6.04351 20.5941 6.01376 20.6677 5.99251C20.7924 5.89051 21.1423 6.02368 21.2656 6.08034C21.6155 6.22201 21.9102 6.35518 22.2034 6.55351C22.3366 6.64701 22.4797 6.82693 22.6497 6.87368H22.848C23.1512 6.94026 23.4926 6.89351 23.7759 6.97709C24.2788 7.13859 24.7322 7.37376 25.1388 7.62876C26.3917 8.4289 27.4107 9.54617 28.0925 10.8673C28.2058 11.0854 28.2554 11.2852 28.3588 11.5118C28.5572 11.9793 28.8022 12.4511 29.0034 12.903C29.2017 13.3493 29.393 13.804 29.6777 14.1738C29.8194 14.3721 30.3889 14.4755 30.6439 14.5789C30.8323 14.6639 31.1256 14.7418 31.2956 14.8453C31.6214 15.0436 31.9387 15.2703 32.2447 15.4884C32.4006 15.5961 32.8723 15.8327 32.9007 16.0239Z" fill="black"/>
</svg>
