<svg width="34" height="34" viewBox="0 0 34 34" fill="none" xmlns="http://www.w3.org/2000/svg">
<path d="M16.9443 2.125H17.0134C17.3677 2.2928 17.7125 2.48009 18.0461 2.686L29.5827 9.32238C29.7317 9.40156 29.8533 9.5238 29.9318 9.67315C30.0103 9.8225 30.0419 9.99203 30.0226 10.1596C30.0141 14.8229 30.0226 19.4852 30.0173 24.1464C29.9932 24.2568 29.9474 24.3613 29.8824 24.4538C29.8175 24.5463 29.7347 24.6249 29.639 24.6851C25.5498 27.0396 21.4603 29.3926 17.3704 31.7443C17.2711 31.8195 17.1516 31.8633 17.0273 31.8703C16.903 31.8773 16.7794 31.8471 16.6723 31.7836C12.5781 29.4362 8.48785 27.0845 4.40148 24.7286C4.26867 24.6658 4.15744 24.5651 4.0818 24.4392C4.00617 24.3132 3.96952 24.1677 3.97648 24.021V10.0353C3.96602 9.88915 3.99961 9.74321 4.0729 9.61632C4.1462 9.48943 4.25583 9.38741 4.38767 9.32344C8.22825 7.11485 12.0688 4.90485 15.9094 2.69344C16.2515 2.49794 16.5873 2.29075 16.9443 2.125Z" fill="#019639"/>
<path d="M9.31497 11.1967V22.7344C9.30953 22.9474 9.34687 23.1594 9.4248 23.3578C9.50273 23.5562 9.61965 23.7369 9.76866 23.8893C10.0537 24.1701 10.4263 24.3449 10.8244 24.3847C11.2226 24.4245 11.6224 24.3269 11.9574 24.1082C12.1818 23.9561 12.3655 23.7514 12.4924 23.5119C12.6193 23.2724 12.6855 23.0054 12.6852 22.7344C12.6852 19.9506 12.6799 17.1669 12.6852 14.3831C15.2232 17.4219 17.7665 20.4564 20.315 23.4866C20.6689 23.8456 21.1074 24.1098 21.5901 24.255C22.0729 24.4001 22.5843 24.4216 23.0775 24.3175C23.4259 24.249 23.743 24.0705 23.9823 23.8083C24.2216 23.5461 24.3704 23.2139 24.4067 22.8608C24.4124 18.9359 24.4124 15.0114 24.4067 11.0872C24.3701 10.6683 24.1779 10.2784 23.8679 9.9943C23.5579 9.71021 23.1527 9.55261 22.7322 9.55261C22.3117 9.55261 21.9065 9.71021 21.5966 9.9943C21.2866 10.2784 21.0943 10.6683 21.0577 11.0872C21.0577 13.9156 21.0407 16.7408 21.0577 19.5681C18.5651 16.6292 16.1033 13.6649 13.6202 10.7154C13.2926 10.2958 12.8592 9.97117 12.3646 9.77472C11.8699 9.57827 11.3318 9.51714 10.8057 9.59761C10.4072 9.64219 10.0378 9.82793 9.76436 10.1212C9.49093 10.4145 9.33152 10.796 9.31497 11.1967Z" fill="white"/>
</svg>
