<svg width="34" height="34" viewBox="0 0 34 34" fill="none" xmlns="http://www.w3.org/2000/svg">
<path d="M0 17C0 21.9388 7.61122 25.9428 17 25.9428C26.3888 25.9428 34 21.9388 34 17C34 12.0613 26.3885 8.05725 17 8.05725C7.61148 8.05725 0 12.0613 0 17Z" fill="url(#paint0_radial_57847_36)"/>
<path d="M17 25.2788C26.022 25.2788 33.3359 21.572 33.3359 17C33.3359 12.4276 26.022 8.72131 17 8.72131C7.97805 8.72131 0.664062 12.4276 0.664062 17C0.664062 21.572 7.97805 25.2788 17 25.2788Z" fill="#777BB3"/>
<path d="M9.23676 18.0264C9.97865 18.0264 10.5322 17.8896 10.8826 17.62C11.2295 17.3528 11.4688 16.8903 11.5944 16.2454C11.7113 15.6424 11.6667 15.2217 11.4616 14.9943C11.2523 14.7621 10.7994 14.6444 10.1157 14.6444H8.92996L8.27307 18.0264H9.23676ZM5.3589 22.1922C5.33169 22.1921 5.30483 22.1861 5.28025 22.1744C5.25566 22.1628 5.23395 22.1459 5.21669 22.1248C5.19942 22.1038 5.18702 22.0792 5.18038 22.0528C5.17374 22.0265 5.17302 21.9989 5.17827 21.9722L6.91998 13.0106C6.92821 12.9687 6.95071 12.9309 6.98364 12.9038C7.01657 12.8766 7.05791 12.8617 7.1006 12.8616H10.8549C12.0349 12.8616 12.913 13.1819 13.4652 13.8138C14.0199 14.4487 14.1915 15.3369 13.9744 16.4528C13.886 16.9073 13.7341 17.3294 13.5229 17.7076C13.3031 18.0967 13.0226 18.4483 12.692 18.7489C12.2853 19.1293 11.825 19.4055 11.3248 19.5678C10.8329 19.7282 10.2007 19.8095 9.44687 19.8095H7.92643L7.4924 22.0429C7.4842 22.0849 7.46165 22.1228 7.4286 22.15C7.39555 22.1773 7.35407 22.1922 7.31124 22.1922H5.3589Z" fill="black"/>
<path d="M9.08124 14.8288H10.1148C10.9401 14.8288 11.2267 15.01 11.3242 15.1181C11.4854 15.2971 11.5162 15.6751 11.4121 16.2103C11.2955 16.8099 11.0793 17.2351 10.7693 17.4737C10.4521 17.718 9.93576 17.8418 9.23583 17.8418H8.4958L9.08124 14.8288ZM10.854 12.6773H7.09994C7.01433 12.6773 6.93139 12.707 6.8653 12.7614C6.7992 12.8159 6.75407 12.8915 6.73763 12.9756L4.99593 21.9375C4.98564 21.9909 4.98727 22.0459 5.0007 22.0985C5.01413 22.1512 5.03902 22.2003 5.07361 22.2422C5.1082 22.2842 5.15162 22.318 5.20077 22.3412C5.24993 22.3644 5.30361 22.3765 5.35797 22.3766H7.31032C7.39592 22.3765 7.47883 22.3467 7.54488 22.2922C7.61092 22.2377 7.65598 22.162 7.67236 22.078L8.07744 19.9939H9.44568C10.2192 19.9939 10.8705 19.9094 11.3813 19.7432C11.9064 19.5726 12.3896 19.2834 12.8173 18.8833C13.1617 18.5698 13.4539 18.2033 13.6829 17.7977C13.9037 17.4027 14.0625 16.9618 14.1544 16.4879C14.3828 15.3131 14.1972 14.3725 13.603 13.6925C13.0143 13.0186 12.0894 12.677 10.854 12.677V12.6773ZM8.04822 18.2105H9.23583C10.023 18.2107 10.6091 18.0624 10.9943 17.7656C11.3794 17.4691 11.6396 16.9741 11.7747 16.2805C11.9036 15.6143 11.8447 15.1443 11.598 14.8705C11.351 14.5968 10.8566 14.4599 10.1148 14.4599H8.7771L8.04822 18.2105ZM10.8543 13.0454C11.9837 13.0454 12.8074 13.3419 13.3254 13.9347C13.8434 14.5276 13.9992 15.3551 13.7929 16.4173C13.7075 16.855 13.5637 17.255 13.3613 17.6174C13.1585 17.98 12.8937 18.3118 12.5668 18.6127C12.1772 18.9775 11.744 19.2373 11.2673 19.3923C10.7908 19.5474 10.1837 19.6249 9.44594 19.6247H7.77357L7.31058 22.0073H5.35824L7.10021 13.0454H10.8543Z" fill="white"/>
<path d="M18.4496 19.8095C18.4223 19.8095 18.3954 19.8035 18.3708 19.7919C18.3462 19.7803 18.3244 19.7634 18.3071 19.7424C18.2898 19.7214 18.2773 19.6969 18.2706 19.6705C18.264 19.6441 18.2632 19.6165 18.2684 19.5898L19.0387 15.6246C19.1123 15.2474 19.0942 14.977 18.9882 14.8622C18.9232 14.7924 18.7282 14.6752 18.1515 14.6752H16.7554L15.7869 19.6605C15.7786 19.7025 15.756 19.7402 15.7229 19.7674C15.6898 19.7945 15.6483 19.8093 15.6055 19.8092H13.6691C13.6419 19.8092 13.615 19.8032 13.5904 19.7917C13.5658 19.7801 13.544 19.7632 13.5267 19.7423C13.5094 19.7213 13.4969 19.6968 13.4901 19.6704C13.4834 19.6441 13.4826 19.6165 13.4877 19.5898L15.2297 10.6279C15.2379 10.5859 15.2605 10.5481 15.2935 10.5209C15.3266 10.4937 15.368 10.4789 15.4108 10.4789H17.3472C17.3744 10.4789 17.4013 10.4849 17.4259 10.4964C17.4505 10.508 17.4723 10.5249 17.4896 10.5458C17.5069 10.5668 17.5194 10.5913 17.5262 10.6177C17.5329 10.6441 17.5338 10.6716 17.5286 10.6983L17.1084 12.8615H18.61C19.754 12.8615 20.5297 13.0629 20.9815 13.4781C21.4418 13.9012 21.5858 14.5777 21.4086 15.4896L20.5982 19.6605C20.5899 19.7024 20.5673 19.7402 20.5343 19.7673C20.5012 19.7944 20.4598 19.8092 20.417 19.8092L18.4496 19.8095Z" fill="black"/>
<path d="M17.3482 10.2943H15.4115C15.3259 10.2943 15.2429 10.3241 15.1768 10.3786C15.1107 10.4331 15.0656 10.5088 15.0492 10.5929L13.3075 19.5545C13.2972 19.6079 13.2988 19.663 13.3122 19.7157C13.3256 19.7684 13.3505 19.8175 13.3851 19.8595C13.4197 19.9014 13.4631 19.9353 13.5123 19.9585C13.5615 19.9817 13.6152 19.9938 13.6695 19.9939H15.6062C15.6919 19.9939 15.7748 19.9641 15.8409 19.9096C15.907 19.8551 15.9521 19.7794 15.9685 19.6953L16.908 14.8596H18.1517C18.7276 14.8596 18.8487 14.9826 18.8532 14.9882C18.8883 15.0254 18.9342 15.1993 18.8583 15.5895L18.088 19.5545C18.0776 19.608 18.0792 19.663 18.0926 19.7157C18.1061 19.7685 18.131 19.8176 18.1656 19.8596C18.2002 19.9015 18.2437 19.9354 18.2929 19.9586C18.3421 19.9818 18.3959 19.9938 18.4503 19.9939H20.418C20.5036 19.9938 20.5865 19.964 20.6526 19.9095C20.7186 19.855 20.7637 19.7793 20.7801 19.6953L21.5905 15.525C21.7804 14.5459 21.6178 13.8117 21.107 13.3424C20.6194 12.8945 19.8028 12.677 18.6107 12.677H17.333L17.7105 10.7339C17.7209 10.6805 17.7193 10.6254 17.7059 10.5726C17.6925 10.5199 17.6676 10.4707 17.633 10.4287C17.5984 10.3867 17.5549 10.3529 17.5056 10.3296C17.4564 10.3064 17.4026 10.2943 17.3482 10.2943ZM17.3482 10.6635L16.8852 13.0457H18.6107C19.6964 13.0457 20.4452 13.2351 20.8571 13.6141C21.2693 13.9927 21.3931 14.6063 21.2284 15.4549L20.4178 19.6249H18.4503L19.2208 15.6597C19.3085 15.2086 19.2762 14.901 19.1239 14.7369C18.9716 14.5729 18.6477 14.4909 18.1522 14.4909H16.6039L15.6062 19.6247H13.6693L15.4113 10.6627H17.3482V10.6635Z" fill="white"/>
<path d="M24.4738 18.0264C25.2157 18.0264 25.7695 17.8896 26.1201 17.62C26.4665 17.3528 26.7061 16.8903 26.8317 16.2454C26.9486 15.6424 26.9043 15.2217 26.6989 14.9943C26.4896 14.7621 26.0367 14.6444 25.353 14.6444H24.1675L23.5101 18.0264H24.4738ZM20.5967 22.1922C20.5695 22.1922 20.5426 22.1862 20.5179 22.1746C20.4933 22.163 20.4715 22.1461 20.4542 22.125C20.4368 22.104 20.4244 22.0794 20.4177 22.053C20.411 22.0266 20.4103 21.999 20.4156 21.9722L22.1573 13.0106C22.1655 12.9686 22.1881 12.9308 22.2212 12.9036C22.2542 12.8764 22.2957 12.8616 22.3384 12.8616H26.0925C27.2724 12.8616 28.1506 13.1819 28.7025 13.8138C29.2574 14.4487 29.4288 15.3369 29.2117 16.4528C29.1287 16.8924 28.9764 17.3159 28.7605 17.7076C28.5407 18.0967 28.2602 18.4483 27.9296 18.7489C27.5232 19.1293 27.0623 19.4055 26.5624 19.5678C26.0705 19.7282 25.4383 19.8095 24.6842 19.8095H23.164L22.7302 22.0429C22.722 22.085 22.6994 22.1229 22.6663 22.1501C22.6332 22.1774 22.5917 22.1922 22.5488 22.1922H20.5967Z" fill="black"/>
<path d="M24.3195 14.8288H25.3531C26.1784 14.8288 26.465 15.01 26.5622 15.1181C26.7242 15.2971 26.7545 15.6751 26.6506 16.2103C26.5338 16.8099 26.3176 17.2351 26.0076 17.4737C25.6901 17.718 25.1738 17.8418 24.4741 17.8418H23.7341L24.3195 14.8288ZM26.0923 12.6773H22.3382C22.2527 12.6773 22.1698 12.7071 22.1037 12.7615C22.0377 12.8159 21.9926 12.8916 21.9762 12.9756L20.2342 21.9375C20.2239 21.9909 20.2256 22.0459 20.239 22.0986C20.2524 22.1513 20.2774 22.2004 20.312 22.2423C20.3466 22.2843 20.39 22.3181 20.4392 22.3413C20.4884 22.3645 20.5421 22.3765 20.5965 22.3766H22.5489C22.6345 22.3765 22.7174 22.3467 22.7834 22.2922C22.8495 22.2377 22.8945 22.162 22.9109 22.078L23.316 19.9939H24.684C25.4572 19.9939 26.1088 19.9094 26.6193 19.7432C27.1447 19.5726 27.6279 19.2834 28.0558 18.8831C28.4001 18.5696 28.6922 18.2032 28.9212 17.7977C29.1422 17.4027 29.3005 16.9618 29.3927 16.4879C29.6211 15.3131 29.4357 14.3725 28.8413 13.6925C28.2526 13.0186 27.328 12.677 26.092 12.677L26.0923 12.6773ZM23.2865 18.2105H24.4738C25.261 18.2107 25.8473 18.0624 26.2328 17.7656C26.618 17.4691 26.8779 16.9741 27.0127 16.2805C27.1421 15.6143 27.0833 15.1443 26.8361 14.8705C26.5888 14.5968 26.0945 14.4599 25.3531 14.4599H24.0156L23.2865 18.2105ZM26.0923 13.0454C27.2217 13.0454 28.0454 13.3419 28.5634 13.9347C29.0814 14.5276 29.2371 15.3551 29.0306 16.4173C28.9456 16.855 28.8019 17.255 28.5993 17.6174C28.3967 17.98 28.1318 18.3118 27.8045 18.6127C27.4149 18.9775 26.9818 19.2373 26.5051 19.3923C26.0287 19.5474 25.4217 19.6249 24.684 19.6247H23.0118L22.5483 22.0073H20.596L22.338 13.0454H26.0923Z" fill="white"/>
<defs>
<radialGradient id="paint0_radial_57847_36" cx="0" cy="0" r="1" gradientUnits="userSpaceOnUse" gradientTransform="translate(10.2069 11.2012) scale(22.3235)">
<stop stop-color="#AEB2D5"/>
<stop offset="0.3" stop-color="#AEB2D5"/>
<stop offset="0.75" stop-color="#484C89"/>
<stop offset="1" stop-color="#484C89"/>
</radialGradient>
</defs>
</svg>
