<svg width="33" height="34" viewBox="0 0 33 34" fill="none" xmlns="http://www.w3.org/2000/svg">
<g clip-path="url(#clip0_57847_162)">
<path d="M32.8417 20.3596C32.6441 19.7609 32.1262 19.3439 31.4565 19.2438C31.1407 19.1967 30.7791 19.2168 30.3511 19.305C29.6052 19.4589 29.0518 19.5175 28.6479 19.5288C30.1724 16.955 31.4119 14.0199 32.1256 11.257C33.2795 6.7895 32.6629 4.75426 31.9423 3.83369C30.0353 1.39702 27.2531 0.0880198 23.8967 0.0479668C22.1061 0.0260729 20.5343 0.379596 19.7143 0.633823C18.9508 0.499111 18.1299 0.423899 17.2686 0.40999C15.654 0.384232 14.2274 0.736209 13.0084 1.45961C12.3336 1.2314 11.2505 0.909686 9.99967 0.704399C7.0579 0.221444 4.68691 0.597762 2.95265 1.82292C0.852637 3.3063 -0.120871 5.8836 0.0591748 9.48322C0.116357 10.6261 0.75566 14.1034 1.76227 17.4011C2.34078 19.2966 2.95767 20.8706 3.59582 22.08C4.50081 23.7948 5.46917 24.8046 6.55627 25.1673C7.16556 25.3702 8.27262 25.5124 9.43699 24.5426C9.58458 24.7214 9.7815 24.899 10.0428 25.064C10.3747 25.2733 10.7805 25.4443 11.1858 25.5456C12.6464 25.9108 14.0145 25.8195 15.1817 25.3076C15.1889 25.5153 15.1945 25.7136 15.1991 25.8849C15.2068 26.1627 15.2145 26.4351 15.2247 26.6898C15.2939 28.4122 15.4111 29.7515 15.7583 30.6885C15.7773 30.74 15.803 30.8186 15.83 30.9019C16.0032 31.4323 16.2929 32.3201 17.0298 33.0155C17.7929 33.7358 18.7159 33.9567 19.5613 33.9567C19.9852 33.9567 20.3898 33.901 20.7446 33.825C22.0093 33.5539 23.4456 33.141 24.4847 31.6615C25.4671 30.2629 25.9446 28.1563 26.0311 24.8371C26.0422 24.7431 26.0527 24.6535 26.0625 24.5681L26.0831 24.3927L26.3145 24.4131L26.3741 24.4171C27.6623 24.4758 29.2374 24.2026 30.2047 23.7533C30.969 23.3986 33.4185 22.1055 32.8417 20.3596Z" fill="black"/>
<path d="M30.6397 20.699C26.8096 21.4892 26.5462 20.1924 26.5462 20.1924C30.5902 14.1918 32.2807 6.57488 30.822 4.71067C26.8419 -0.374515 19.9524 2.03047 19.8374 2.0928L19.8004 2.0995C19.0437 1.94238 18.1969 1.84888 17.245 1.8333C15.5121 1.80496 14.1974 2.28766 13.1998 3.04416C13.1998 3.04416 0.909568 -2.01901 1.48126 9.41195C1.60283 11.8437 4.96677 27.8123 8.97903 22.989C10.4455 21.2253 11.8626 19.734 11.8626 19.734C12.5663 20.2015 13.4088 20.4401 14.292 20.3544L14.3607 20.2962C14.3393 20.5151 14.3491 20.7293 14.3881 20.9829C13.3545 22.1377 13.6583 22.3404 11.592 22.7658C9.50114 23.1968 10.7294 23.9638 11.5313 24.1645C12.5036 24.4075 14.7527 24.7519 16.2724 22.6244L16.2119 22.8672C16.6168 23.1916 16.9012 24.9771 16.8535 26.5959C16.8059 28.2145 16.774 29.3258 17.0931 30.1938C17.4123 31.0618 17.7303 33.0149 20.4467 32.4329C22.7163 31.9465 23.8925 30.686 24.0562 28.5834C24.1723 27.0887 24.4351 27.3097 24.4516 25.9733L24.6624 25.3407C24.9055 23.3145 24.7011 22.6607 26.0993 22.9648L26.4393 22.9947C27.4683 23.0414 28.8155 22.8291 29.6061 22.4616C31.3084 21.6717 32.3181 20.3525 30.6395 20.699H30.6397Z" fill="#336791"/>
<path d="M13.9189 10.4994C13.5737 10.4514 13.2612 10.4958 13.103 10.6156C13.0142 10.683 12.9866 10.761 12.9791 10.8147C12.9593 10.957 13.059 11.1144 13.1203 11.1955C13.2936 11.4253 13.5468 11.5832 13.7974 11.618C13.8338 11.623 13.8699 11.6255 13.9059 11.6254C14.3238 11.6254 14.7039 11.3 14.7373 11.0598C14.7792 10.7589 14.3425 10.5583 13.9189 10.4994ZM25.3532 10.509C25.3202 10.2732 24.9006 10.2059 24.5024 10.2613C24.1047 10.3167 23.7191 10.4962 23.7513 10.7325C23.7771 10.9163 24.109 11.23 24.5018 11.23C24.535 11.23 24.5685 11.2277 24.6022 11.2231C24.8644 11.1868 25.0569 11.0202 25.1483 10.9243C25.2874 10.778 25.368 10.615 25.3532 10.509Z" fill="white"/>
<path d="M31.914 20.6093C31.7679 20.1677 31.2979 20.0257 30.5169 20.1869C28.1981 20.6655 27.3676 20.334 27.095 20.1332C28.8974 17.3875 30.3801 14.0683 31.18 10.9716C31.5589 9.50473 31.7682 8.14241 31.7853 7.032C31.8042 5.81328 31.5966 4.91769 31.1686 4.3706C29.4425 2.16511 26.9093 0.982064 23.8428 0.949609C21.7347 0.925912 19.9536 1.4654 19.6083 1.61712C18.8812 1.4363 18.0885 1.32528 17.2255 1.31112C15.6429 1.28549 14.2749 1.66438 13.1424 2.43672C12.6504 2.25359 11.379 1.81712 9.82415 1.56663C7.13609 1.1339 5.00001 1.4618 3.47568 2.54169C1.65681 3.83034 0.817111 6.13384 0.97977 9.38805C1.03451 10.4829 1.65835 13.8509 2.64281 17.0764C3.93867 21.3218 5.34735 23.7251 6.82944 24.2195C7.00292 24.2773 7.20293 24.3178 7.42354 24.3178C7.96419 24.3178 8.62707 24.0741 9.31673 23.245C10.1579 22.2359 11.0281 21.2513 11.9261 20.2924C12.5087 20.6051 13.1488 20.7797 13.8034 20.7972C13.8048 20.8144 13.8063 20.8315 13.8079 20.8485C13.6953 20.9829 13.5849 21.1192 13.477 21.2574C13.0234 21.8332 12.929 21.9531 11.4689 22.2537C11.0536 22.3395 9.95049 22.5668 9.93426 23.34C9.91675 24.1849 11.2382 24.5397 11.3888 24.5773C11.9135 24.7087 12.419 24.7734 12.901 24.7734C14.0734 24.7734 15.1051 24.3881 15.9296 23.6425C15.9042 26.6544 16.0298 29.6222 16.3914 30.5264C16.6876 31.2667 17.4112 33.0757 19.6966 33.0756C20.032 33.0756 20.4011 33.0366 20.8072 32.9495C23.1925 32.4382 24.2283 31.384 24.629 29.0598C24.8434 27.8176 25.2113 24.8515 25.3844 23.2604C25.7497 23.3744 26.2199 23.4266 26.7282 23.4264C27.7884 23.4264 29.0117 23.2012 29.7789 22.8451C30.6408 22.4448 32.196 21.4627 31.914 20.6093ZM26.2337 9.85812C26.2258 10.3278 26.1611 10.7542 26.0926 11.1993C26.0188 11.678 25.9426 12.173 25.9234 12.7738C25.9045 13.3585 25.9775 13.9663 26.0481 14.5542C26.1908 15.7417 26.3372 16.9641 25.7704 18.1704C25.6764 18.0035 25.5925 17.831 25.5193 17.654C25.4488 17.4833 25.2958 17.209 25.084 16.8293C24.2599 15.3513 22.33 11.8903 23.3179 10.478C23.6122 10.0576 24.359 9.6254 26.2337 9.85812ZM23.9613 1.90071C26.7089 1.96137 28.8823 2.98922 30.4211 4.95556C31.6013 6.46379 30.3017 13.3265 26.5394 19.247C26.5016 19.1989 26.4635 19.151 26.4253 19.1032L26.3776 19.0437C27.3499 17.4381 27.1598 15.8495 26.9905 14.441C26.921 13.863 26.8553 13.3171 26.8721 12.8043C26.8893 12.2608 26.9612 11.7946 27.0307 11.3438C27.1161 10.7884 27.203 10.2136 27.1791 9.53603C27.197 9.46494 27.2042 9.38097 27.1948 9.28128C27.1336 8.63155 26.3918 6.68698 24.8798 4.92697C24.0528 3.96428 22.8467 2.88697 21.1999 2.16034C21.9082 2.01353 22.8768 1.87662 23.9613 1.90071ZM8.58688 22.6381C7.82704 23.5518 7.30235 23.3766 7.12978 23.3192C6.00546 22.9441 4.70084 20.5677 3.55063 16.7994C2.55536 13.5388 1.97376 10.2599 1.92765 9.34053C1.78238 6.43275 2.48723 4.40628 4.02277 3.31725C6.52177 1.54512 10.6304 2.60582 12.2813 3.14377C12.2576 3.16721 12.2329 3.1891 12.2094 3.21293C9.50025 5.9489 9.56451 10.6234 9.57121 10.9092C9.57095 11.0194 9.58022 11.1755 9.59285 11.3902C9.63947 12.1764 9.72627 13.6397 9.49445 15.2968C9.27912 16.8368 9.75383 18.344 10.7966 19.4321C10.9036 19.5436 11.0161 19.6497 11.1337 19.7499C10.6695 20.2471 9.66072 21.3464 8.58688 22.6381ZM11.4819 18.7754C10.6414 17.8984 10.2597 16.6785 10.4345 15.4282C10.6792 13.6777 10.5889 12.1531 10.5403 11.334C10.5335 11.2194 10.5275 11.119 10.524 11.0398C10.9197 10.6888 12.7538 9.70616 14.0618 10.0058C14.6586 10.1425 15.0223 10.5489 15.1735 11.248C15.956 14.8673 15.277 16.3758 14.7315 17.5881C14.6191 17.8378 14.5128 18.0739 14.4221 18.3181L14.3518 18.5069C14.1738 18.9842 14.0082 19.428 13.9056 19.8494C13.012 19.8468 12.1428 19.4651 11.4819 18.7753M11.6191 23.6563C11.3581 23.5912 11.1235 23.478 10.9858 23.3841C11.1008 23.33 11.3055 23.2563 11.6604 23.1832C13.3781 22.8296 13.6434 22.58 14.2226 21.8445C14.3554 21.6758 14.506 21.4847 14.7145 21.2519L14.7147 21.2516C15.0252 20.9039 15.1673 20.9629 15.4249 21.0698C15.6336 21.156 15.837 21.4177 15.9194 21.7057C15.9584 21.8417 16.0022 22.0998 15.8589 22.3007C14.6488 23.995 12.8854 23.9733 11.6191 23.6563ZM20.6083 32.0214C18.507 32.4716 17.763 31.3994 17.2727 30.1738C16.9563 29.3825 16.8007 25.8143 16.9111 21.8738C16.9125 21.8214 16.905 21.7707 16.8906 21.7231C16.8777 21.629 16.8581 21.5359 16.8319 21.4447C16.6678 20.8713 16.2679 20.3917 15.7882 20.1928C15.5976 20.1139 15.2478 19.969 14.8274 20.0765C14.9171 19.7072 15.0725 19.29 15.2411 18.8384L15.3118 18.6484C15.3914 18.4342 15.4913 18.2123 15.5969 17.9774C16.1679 16.7091 16.9497 14.9719 16.1011 11.0474C15.7833 9.57737 14.7218 8.8595 13.1127 9.02628C12.1481 9.12609 11.2655 9.51529 10.8253 9.73848C10.7307 9.78639 10.6441 9.83275 10.5633 9.87783C10.6861 8.39677 11.1503 5.62886 12.8866 3.8776C13.9799 2.77518 15.4358 2.23066 17.2097 2.26003C20.7051 2.31721 22.9465 4.11097 24.2114 5.60581C25.3015 6.89381 25.8917 8.19135 26.1273 8.89119C24.3558 8.71101 23.151 9.06067 22.5403 9.93385C21.2116 11.8332 23.2672 15.5196 24.2551 17.2914C24.4363 17.616 24.5926 17.8967 24.6418 18.0159C24.9635 18.7956 25.3801 19.3162 25.6841 19.6961C25.7774 19.8125 25.8678 19.9255 25.9365 20.0241C25.4 20.1788 24.4363 20.5362 24.5241 22.3226C24.4533 23.219 23.9496 27.4156 23.6937 28.8984C23.3559 30.8572 22.6351 31.5867 20.6083 32.0214ZM29.3793 21.9843C28.8307 22.2389 27.9125 22.4299 27.0404 22.471C26.0771 22.516 25.5866 22.363 25.4712 22.2689C25.4171 21.1557 25.8315 21.0394 26.27 20.9162C26.3389 20.8969 26.4061 20.878 26.471 20.8553C26.5113 20.8882 26.5556 20.9207 26.6039 20.9527C27.3782 21.4637 28.7592 21.5188 30.7089 21.1164L30.7303 21.1121C30.4673 21.358 30.0173 21.6879 29.3793 21.9843Z" fill="white"/>
</g>
<defs>
<clipPath id="clip0_57847_162">
<rect width="32.9697" height="34" fill="white"/>
</clipPath>
</defs>
</svg>
