<svg width="34" height="34" viewBox="0 0 34 34" fill="none" xmlns="http://www.w3.org/2000/svg">
<g clip-path="url(#clip0_57847_110)">
<path d="M31.7468 13.5968H21.0617C20.9347 13.5968 20.809 13.5718 20.6916 13.5232C20.5743 13.4745 20.4677 13.4033 20.3779 13.3134C20.2881 13.2236 20.2169 13.117 20.1683 12.9996C20.1198 12.8822 20.0948 12.7564 20.0949 12.6294V1.49282C20.0954 1.29657 20.0571 1.10215 19.9822 0.920742C19.9074 0.739336 19.7973 0.574525 19.6585 0.43579C19.5197 0.297054 19.3549 0.187131 19.1734 0.112343C18.992 0.0375557 18.7975 -0.000620494 18.6013 1.04663e-05H14.7848C14.5884 -0.000725614 14.3939 0.0373711 14.2123 0.112108C14.0308 0.186845 13.8658 0.296748 13.7269 0.43549C13.588 0.574233 13.4779 0.739077 13.4029 0.920537C13.3279 1.102 13.2896 1.29649 13.2901 1.49282V12.555C13.2905 12.692 13.2639 12.8276 13.2117 12.9542C13.1595 13.0808 13.0829 13.1958 12.9861 13.2927C12.8894 13.3896 12.7744 13.4664 12.6479 13.5187C12.5214 13.5711 12.3858 13.5979 12.2488 13.5976L8.74578 13.6101C8.16778 13.6101 7.69072 13.1453 7.70294 12.5673L7.7279 1.49415C7.72857 1.29773 7.69037 1.10311 7.6155 0.921519C7.54063 0.739923 7.43058 0.574933 7.29167 0.436053C7.15277 0.297173 6.98776 0.187146 6.80615 0.11231C6.62454 0.0374746 6.42992 -0.000691429 6.2335 1.04663e-05H2.41726C2.22088 -0.000550335 2.02632 0.037712 1.84478 0.112598C1.66323 0.187483 1.49828 0.297515 1.3594 0.436367C1.22053 0.575219 1.11046 0.740153 1.03555 0.921685C0.960628 1.10322 0.922331 1.29777 0.922857 1.49415V32.6692C0.922857 33.3962 1.51254 34 2.25364 34H31.7468C32.0996 33.9996 32.4378 33.8592 32.6872 33.6096C32.9366 33.3601 33.0768 33.0218 33.077 32.669V14.9268C33.0782 14.7518 33.0445 14.5783 32.9781 14.4164C32.9116 14.2546 32.8137 14.1075 32.6899 13.9838C32.5662 13.86 32.4191 13.7621 32.2572 13.6957C32.0953 13.6293 31.9218 13.5957 31.7468 13.5968ZM26.7379 25.2987C26.7364 25.7579 26.5533 26.1978 26.2286 26.5225C25.9039 26.8472 25.4639 27.0302 25.0047 27.0316H21.9914C21.5323 27.0301 21.0925 26.847 20.7679 26.5223C20.4432 26.1977 20.2602 25.7578 20.2588 25.2987V22.2859C20.2602 21.8268 20.4432 21.387 20.7679 21.0623C21.0925 20.7376 21.5323 20.5546 21.9914 20.553H25.0044C25.4636 20.5544 25.9035 20.7374 26.2282 21.062C26.553 21.3866 26.7361 21.8265 26.7376 22.2857L26.7379 25.2987Z" fill="#FF6600"/>
</g>
<defs>
<clipPath id="clip0_57847_110">
<rect width="34" height="34" fill="white"/>
</clipPath>
</defs>
</svg>
