<svg width="34" height="34" viewBox="0 0 34 34" fill="none" xmlns="http://www.w3.org/2000/svg">
<path fill-rule="evenodd" clip-rule="evenodd" d="M17 2.125C19.942 2.125 22.8179 2.9974 25.2641 4.63189C27.7103 6.26638 29.6169 8.58953 30.7427 11.3076C31.8686 14.0256 32.1631 17.0165 31.5892 19.902C31.0152 22.7874 29.5985 25.4379 27.5182 27.5182C25.4379 29.5985 22.7874 31.0152 19.902 31.5892C17.0165 32.1631 14.0256 31.8686 11.3076 30.7427C8.58953 29.6169 6.26638 27.7103 4.63189 25.2641C2.9974 22.8179 2.125 19.942 2.125 17C2.125 13.0549 3.69218 9.27139 6.48179 6.48179C9.27139 3.69218 13.0549 2.125 17 2.125Z" fill="#CC6699"/>
<path d="M26.3307 8.49153C25.657 5.85016 21.2763 4.98528 17.1305 6.45366C14.534 7.326 12.1351 8.702 10.0712 10.5028C7.7879 12.6385 7.42346 14.4978 7.57328 15.2745C8.10453 18.0158 11.8583 19.8072 13.4022 21.1363V21.1438C12.9474 21.368 9.6154 23.0563 8.8334 24.7775C8.01103 26.5965 8.96409 27.9013 9.59628 28.0766C10.5454 28.3051 11.5423 28.2307 12.447 27.8639C13.3518 27.4971 14.119 26.8563 14.641 26.0313C15.0728 25.363 15.3429 24.6033 15.4299 23.8125C15.517 23.0217 15.4186 22.2215 15.1425 21.4753C15.886 21.2853 16.6592 21.2409 17.4195 21.3446C20.029 21.6495 20.5411 23.2783 20.4433 23.9605C20.3974 24.2033 20.2996 24.4333 20.1568 24.635C20.014 24.8367 19.8294 25.0052 19.6157 25.1292C19.4329 25.2429 19.3766 25.2812 19.3925 25.3662C19.4148 25.4883 19.4988 25.4841 19.655 25.4575C20.0471 25.334 20.3926 25.0946 20.646 24.7709C20.8994 24.4471 21.0488 24.0542 21.0745 23.6438C21.1372 22.0501 19.6061 20.2587 16.8946 20.3044C16.107 20.2812 15.3211 20.3889 14.5688 20.6232L14.454 20.4957C12.7774 18.7075 9.67915 17.442 9.80984 15.0376C9.85765 14.1632 10.1615 11.8618 15.7598 9.06953C20.3498 6.78197 24.024 7.41203 24.6593 8.80709C25.5667 10.8003 22.6958 14.5032 17.9295 15.0376C17.4027 15.1445 16.8585 15.1315 16.3374 14.9994C15.8163 14.8674 15.3317 14.6197 14.9194 14.2747C14.6687 13.9985 14.6315 13.9868 14.538 14.0378C14.386 14.1217 14.4827 14.3661 14.538 14.5106C14.7205 14.8395 14.9669 15.1286 15.2626 15.3611C15.5584 15.5935 15.8976 15.7646 16.2603 15.8642C18.1343 16.2708 20.0888 16.0775 21.8469 15.3117C24.738 14.1972 26.9926 11.0893 26.3307 8.49153ZM14.0439 21.9545C14.2539 22.6821 14.2432 23.4557 14.0131 24.1772C13.9883 24.2523 13.961 24.3267 13.9313 24.4003C13.9015 24.474 13.8693 24.5448 13.8346 24.6128C13.6546 24.978 13.4231 25.3155 13.1472 25.6148C12.2833 26.5572 11.0753 26.9142 10.5578 26.6135C9.99896 26.2895 10.2784 24.9603 11.2803 23.901C12.0505 23.14 12.938 22.5079 13.909 22.0288L14.0439 21.9545Z" fill="white"/>
</svg>
