<?xml version="1.0" encoding="utf-8"?><!DOCTYPE svg PUBLIC "-//W3C//DTD SVG 1.1//EN" "http://www.w3.org/Graphics/SVG/1.1/DTD/svg11.dtd"><svg xmlns="http://www.w3.org/2000/svg" xmlns:xlink="http://www.w3.org/1999/xlink"><symbol viewBox="0 0 24 24" id="codewars" xmlns="http://www.w3.org/2000/svg">
    <path d="M1.072.142A1.072 1.072 0 0 0 0 1.214v21.572a1.072 1.072 0 0 0 1.072 1.072h21.856A1.072 1.072 0 0 0 24 22.786V1.214A1.072 1.072 0 0 0 22.928.142zm9.736 1.818a.904.904 0 0 1 .828.539.784.784 0 0 1 1.274.493.639.639 0 0 1 .29-.06c.33.008.59.262.625.575a1.322 1.322 0 0 1 .624-.515 1.325 1.325 0 0 1 1.718.71 1.098 1.098 0 0 1 .306-.236 1.102 1.102 0 0 1 1.483.479 1.094 1.094 0 0 1 .12.47.994.994 0 0 1 1.322 1.214.904.904 0 0 1 .874 1.438.784.784 0 0 1 .176 1.356.639.639 0 0 1 .19.224.642.642 0 0 1-.011.613 1.326 1.326 0 0 1 .482.235 1.334 1.334 0 0 1 .258 1.842 1.098 1.098 0 0 1 .35.15 1.102 1.102 0 0 1 .337 1.516 1.094 1.094 0 0 1-.344.344.994.994 0 0 1 .228 1.318 1.006 1.006 0 0 1-.605.434.904.904 0 0 1-.803 1.482.814.814 0 0 0-.008-.04.784.784 0 0 1-1.075.873.639.639 0 0 1-.098.28.625.625 0 0 1-.43.288 1.33 1.33 0 0 1 .023.456 1.334 1.334 0 0 1-1.44 1.173 1.098 1.098 0 0 1 .054.377 1.102 1.102 0 0 1-1.128 1.072 1.098 1.098 0 0 1-.47-.12.994.994 0 0 1-1.696.583.904.904 0 0 1-1.685.075.784.784 0 0 1-1.274-.493.639.639 0 0 1-.29.064.64.64 0 0 1-.621-.58l.004-.007a1.326 1.326 0 0 1-.632.523 1.334 1.334 0 0 1-1.718-.706 1.098 1.098 0 0 1-.306.232 1.102 1.102 0 0 1-1.48-.478 1.094 1.094 0 0 1-.123-.471.994.994 0 0 1-1.318-1.21.904.904 0 0 1-.874-1.442.784.784 0 0 1-.176-1.356.639.639 0 0 1-.194-.224.642.642 0 0 1 .011-.61l.019.004a1.326 1.326 0 0 1-.497-.239 1.334 1.334 0 0 1-.262-1.845 1.098 1.098 0 0 1-.35-.146 1.102 1.102 0 0 1-.337-1.52 1.094 1.094 0 0 1 .347-.34A.994.994 0 0 1 2.88 9a.904.904 0 0 1 .803-1.48.784.784 0 0 1 1.083-.836.639.639 0 0 1 .098-.28.649.649 0 0 1 .433-.288 1.33 1.33 0 0 1-.026-.452A1.334 1.334 0 0 1 6.716 4.49a1.098 1.098 0 0 1-.06-.377 1.101 1.101 0 0 1 1.13-1.073 1.094 1.094 0 0 1 .47.115.994.994 0 0 1 1.696-.579.904.904 0 0 1 .857-.617zM3.683 7.519a.784.784 0 0 0 .008.041l-.004-.04a.904.904 0 0 0-.004-.001zM17.502 19.61a1.098 1.098 0 0 0-.002-.004h-.037a1.334 1.334 0 0 0 .039.004zM13.825 3.507a1.322 1.322 0 0 0-.008.012l.008-.011zm-2.369-.014-.003.003a.9.9 0 0 1-.665.27.896.896 0 0 1-.583-.232.994.994 0 0 1-.986.732.99.99 0 0 1-.362-.075 1.098 1.098 0 0 1-1.061 1.046 1.326 1.326 0 0 1 .123.736 1.334 1.334 0 0 1-.725 1.035 1.1 1.1 0 0 1 .307.795 1.106 1.106 0 0 1-.232.65c.321.18.53.523.523.915a1.016 1.016 0 0 1-.07.337.915.915 0 0 1 .82.937.923.923 0 0 1-.01.138.74.74 0 0 1 .157-.01c.343.007.627.25.702.57a.661.661 0 0 1 .38-.111c.31.007.561.224.632.511a.418.418 0 0 1 .381-.015 1.352 1.352 0 0 1 .303-.63.418.418 0 0 1-.12-.143.422.422 0 0 1 .004-.392.665.665 0 0 1-.325-1.117.736.736 0 0 1-.359-.336.74.74 0 0 1 .385-1.023.747.747 0 0 0-.06.026.915.915 0 0 1-.201-.262.915.915 0 0 1 .623-1.315V6.53a1.02 1.02 0 0 1 .437-1.371 1.012 1.012 0 0 1 .553-.112 1.11 1.11 0 0 1 .598-1.054 1.12 1.12 0 0 1 .06-.026.642.642 0 0 1-.109-.21.784.784 0 0 1-.455.132.784.784 0 0 1-.662-.396zm4.573 1.512a1.326 1.326 0 0 1-.587.46 1.334 1.334 0 0 1-1.255-.142v-.011a1.11 1.11 0 0 1-.553.66 1.106 1.106 0 0 1-.683.113 1.02 1.02 0 0 1-.553.889 1.016 1.016 0 0 1-.329.105.918.918 0 0 1-.43 1.169.923.923 0 0 1-.127.056.74.74 0 0 1 .086.13.738.738 0 0 1-.168.89.661.661 0 0 1 .28.283.655.655 0 0 1-.149.796.418.418 0 0 1 .153.164c.019.034.03.068.038.101a1.356 1.356 0 0 1 .672-.015.422.422 0 0 1 .056-.142.422.422 0 0 1 .34-.194.665.665 0 0 1 .796-.848.736.736 0 0 1 .112-.478.733.733 0 0 1 1.016-.224.915.915 0 0 1 .127-.306.915.915 0 0 1 1.27-.28.915.915 0 0 1 .179.153 1.02 1.02 0 0 1 1.408-.314 1.012 1.012 0 0 1 .374.422c.355-.24.833-.261 1.214-.015a1.11 1.11 0 0 1 .209.172.642.642 0 0 1 .082-.108.784.784 0 0 1-.332-.337.784.784 0 0 1 .03-.77.9.9 0 0 1-.553-.455.896.896 0 0 1-.075-.624.994.994 0 0 1-1.117-.511.994.994 0 0 1-.104-.359 1.098 1.098 0 0 1-1.427-.43zM5.249 7.37a.784.784 0 0 1-.124.46.784.784 0 0 1-.68.362c.06.235.026.49-.112.71a.896.896 0 0 1-.5.377c.31.325.373.829.12 1.225a.99.99 0 0 1-.255.269 1.098 1.098 0 0 1 .351 1.45 1.326 1.326 0 0 1 .691.276 1.334 1.334 0 0 1 .512 1.154c.28-.064.579-.019.84.15a1.106 1.106 0 0 1 .438.53 1.02 1.02 0 0 1 1.05.03 1.016 1.016 0 0 1 .257.231.914.914 0 0 1 1.225-.224.919.919 0 0 1 .112.086.74.74 0 0 1 .071-.142.74.74 0 0 1 .852-.306.661.661 0 0 1 .1-.381.664.664 0 0 1 .763-.273.418.418 0 0 1 .246-.373 1.36 1.36 0 0 1-.358-.523v-.008a.418.418 0 0 1-.25.075.422.422 0 0 1-.344-.19.665.665 0 0 1-1.132-.243.736.736 0 0 1-.47.149.733.733 0 0 1-.718-.755.915.915 0 0 1-.329.049.915.915 0 0 1-.855-1.177h-.004a1.016 1.016 0 0 1-.993-1.042 1.012 1.012 0 0 1 .168-.534 1.11 1.11 0 0 1-.64-1.035 1.11 1.11 0 0 1 .068-.358.65.65 0 0 1-.1-.019zm11.127 2.133a.913.913 0 0 1-1.225.224.926.926 0 0 1-.112-.082.74.74 0 0 1-.067.142.74.74 0 0 1-.852.302.661.661 0 0 1-.105.385.662.662 0 0 1-.762.277.418.418 0 0 1-.063.212.426.426 0 0 1-.075.086 1.356 1.356 0 0 1 .314.564.418.418 0 0 1 .187-.04.422.422 0 0 1 .343.194.665.665 0 0 1 1.136.242.736.736 0 0 1 .467-.153c.41.008.728.348.72.755a.74.74 0 0 1 0 .008v-.005a.915.915 0 0 1 .326-.052.915.915 0 0 1 .896.941.919.919 0 0 1-.037.236c.564.015 1.008.482.993 1.046a1.012 1.012 0 0 1-.168.534 1.11 1.11 0 0 1 .647 1.035 1.11 1.11 0 0 1-.075.362l.004-.007.1.018a.784.784 0 0 1 .124-.46.784.784 0 0 1 .68-.362.9.9 0 0 1 .112-.71.896.896 0 0 1 .504-.373.994.994 0 0 1-.123-1.225.99.99 0 0 1 .257-.269 1.098 1.098 0 0 1-.35-1.453 1.326 1.326 0 0 1-.696-.273h-.003a1.334 1.334 0 0 1-.512-1.158 1.082 1.082 0 0 1-.837-.145 1.106 1.106 0 0 1-.44-.535 1.02 1.02 0 0 1-1.05-.026 1.016 1.016 0 0 1-.258-.235zm-.094 3.116-.007.066a.74.74 0 0 0 .007-.066zm-2.864-.259a1.36 1.36 0 0 1-.363.598.418.418 0 0 1 .194.187.422.422 0 0 1-.007.396.665.665 0 0 1 .329 1.113.736.736 0 0 1 .358.336.739.739 0 0 1-.32.994.915.915 0 0 1 .197.261.91.91 0 0 1-.396 1.233.919.919 0 0 1-.224.082v.004a1.02 1.02 0 0 1-.44 1.374 1.012 1.012 0 0 1-.55.109 1.11 1.11 0 0 1-.661 1.083.642.642 0 0 1 .112.21.026.026 0 0 1-.004 0v.003a.784.784 0 0 1 .456-.134.784.784 0 0 1 .661.392.9.9 0 0 1 .665-.27.896.896 0 0 1 .587.236.994.994 0 0 1 .982-.736.99.99 0 0 1 .362.079v.022a1.1 1.1 0 0 1 1.061-1.072 1.326 1.326 0 0 1-.123-.736c.056-.46.34-.837.725-1.035l.003.004a1.102 1.102 0 0 1-.31-.795 1.106 1.106 0 0 1 .232-.654 1.02 1.02 0 0 1-.452-1.251.915.915 0 0 1-.822-.934.923.923 0 0 1 .011-.142.74.74 0 0 1-.157.015.74.74 0 0 1-.698-.572.661.661 0 0 1-.385.112.667.667 0 0 1-.627-.512.418.418 0 0 1-.217.053.418.418 0 0 1-.18-.045zm-.964.93a1.36 1.36 0 0 1-.336.042c-.112 0-.22-.012-.322-.038a.418.418 0 0 1-.06.295.422.422 0 0 1-.343.195.665.665 0 0 1-.792.844.736.736 0 0 1-.112.478.74.74 0 0 1-1.02.224.915.915 0 0 1-.127.306.915.915 0 0 1-1.266.28.919.919 0 0 1-.183-.153v.004a1.02 1.02 0 0 1-1.408.31 1.012 1.012 0 0 1-.374-.418c-.355.239-.83.261-1.214.015a1.113 1.113 0 0 1-.21-.172.65.65 0 0 1-.081.105.784.784 0 0 1 .336.336.784.784 0 0 1-.034.77.89.89 0 0 1 .553.455.896.896 0 0 1 .075.624.994.994 0 0 1 1.12.515.99.99 0 0 1 .101.355 1.098 1.098 0 0 1 1.431.43 1.326 1.326 0 0 1 .587-.46c.43-.172.896-.104 1.255.142a1.106 1.106 0 0 1 .549-.65 1.106 1.106 0 0 1 .683-.108 1.02 1.02 0 0 1 .553-.893 1.02 1.02 0 0 1 .333-.104.916.916 0 0 1 .425-1.17.919.919 0 0 1 .131-.052.736.736 0 0 1-.09-.134.738.738 0 0 1 .169-.886.661.661 0 0 1-.28-.284.67.67 0 0 1 .149-.799.418.418 0 0 1-.15-.164.418.418 0 0 1-.048-.24z"/>
</symbol><symbol viewBox="0 0 38 38" id="github" xmlns="http://www.w3.org/2000/svg">
    <path d="M12.7101 29.8331C12.7101 29.9863 12.5339 30.1089 12.3117 30.1089C12.0589 30.1319 11.8827 30.0093 11.8827 29.8331C11.8827 29.6798 12.0589 29.5573 12.281 29.5573C12.5109 29.5343 12.7101 29.6569 12.7101 29.8331ZM10.3274 29.4883C10.2738 29.6415 10.427 29.8177 10.6569 29.8637C10.856 29.9403 11.0859 29.8637 11.1319 29.7105C11.1778 29.5573 11.0323 29.3811 10.8024 29.3121C10.6032 29.2585 10.381 29.3351 10.3274 29.4883ZM13.7137 29.3581C13.4915 29.4117 13.3383 29.5573 13.3613 29.7335C13.3843 29.8867 13.5835 29.9863 13.8133 29.9327C14.0355 29.879 14.1887 29.7335 14.1657 29.5802C14.1427 29.4347 13.9359 29.3351 13.7137 29.3581ZM18.7548 0C8.12863 0 0 8.06734 0 18.6935C0 27.1899 5.34758 34.4605 12.9859 37.0194C13.9665 37.1956 14.3113 36.5903 14.3113 36.0923C14.3113 35.6173 14.2883 32.9972 14.2883 31.3883C14.2883 31.3883 8.9254 32.5375 7.79919 29.1052C7.79919 29.1052 6.92581 26.8758 5.66935 26.3012C5.66935 26.3012 3.91492 25.0984 5.79194 25.1214C5.79194 25.1214 7.6996 25.2746 8.74919 27.098C10.427 30.0552 13.2387 29.2048 14.3343 28.6992C14.5105 27.4734 15.0085 26.623 15.5601 26.1173C11.2774 25.6423 6.95645 25.0218 6.95645 17.6516C6.95645 15.5448 7.53871 14.4875 8.76452 13.1391C8.56532 12.6411 7.91411 10.5879 8.96371 7.9371C10.5649 7.43911 14.25 10.0056 14.25 10.0056C15.7823 9.57661 17.4294 9.35444 19.0613 9.35444C20.6931 9.35444 22.3403 9.57661 23.8726 10.0056C23.8726 10.0056 27.5577 7.43145 29.1589 7.9371C30.2085 10.5956 29.5573 12.6411 29.3581 13.1391C30.5839 14.4952 31.3347 15.5524 31.3347 17.6516C31.3347 25.0448 26.8222 25.6347 22.5395 26.1173C23.2444 26.7226 23.8419 27.8718 23.8419 29.6722C23.8419 32.254 23.819 35.4488 23.819 36.077C23.819 36.575 24.1714 37.1802 25.1444 37.004C32.8056 34.4605 38 27.1899 38 18.6935C38 8.06734 29.381 0 18.7548 0ZM7.44677 26.4238C7.34718 26.5004 7.37016 26.6766 7.5004 26.8222C7.62298 26.9448 7.79919 26.9984 7.89879 26.8988C7.99839 26.8222 7.9754 26.646 7.84516 26.5004C7.72258 26.3778 7.54637 26.3242 7.44677 26.4238ZM6.61936 25.8032C6.56573 25.9028 6.64234 26.0254 6.79556 26.102C6.91815 26.1786 7.07137 26.1556 7.125 26.0484C7.17863 25.9488 7.10202 25.8262 6.94879 25.7496C6.79556 25.7036 6.67298 25.7266 6.61936 25.8032ZM9.10161 28.5306C8.97903 28.6302 9.025 28.8601 9.20121 29.0056C9.37742 29.1819 9.5996 29.2048 9.69919 29.0823C9.79879 28.9827 9.75282 28.7528 9.5996 28.6073C9.43105 28.431 9.20121 28.4081 9.10161 28.5306ZM8.22823 27.4044C8.10565 27.4811 8.10565 27.6802 8.22823 27.8565C8.35081 28.0327 8.55766 28.1093 8.65726 28.0327C8.77984 27.9331 8.77984 27.7339 8.65726 27.5577C8.55 27.3815 8.35081 27.3048 8.22823 27.4044Z"/>
</symbol><symbol viewBox="0 0 24 24" id="github-dark" xmlns="http://www.w3.org/2000/svg">
    <path d="M8.02742 18.8419C8.02742 18.9387 7.91613 19.0161 7.77581 19.0161C7.61613 19.0306 7.50484 18.9532 7.50484 18.8419C7.50484 18.7452 7.61613 18.6677 7.75645 18.6677C7.90161 18.6532 8.02742 18.7306 8.02742 18.8419ZM6.52258 18.6242C6.48871 18.721 6.58548 18.8323 6.73065 18.8613C6.85645 18.9097 7.00161 18.8613 7.03064 18.7645C7.05968 18.6677 6.96774 18.5565 6.82258 18.5129C6.69677 18.479 6.55645 18.5274 6.52258 18.6242ZM8.66129 18.5419C8.52097 18.5758 8.42419 18.6677 8.43871 18.779C8.45323 18.8758 8.57903 18.9387 8.72419 18.9048C8.86452 18.871 8.96129 18.779 8.94677 18.6823C8.93226 18.5903 8.80161 18.5274 8.66129 18.5419ZM11.8452 0C5.13387 0 0 5.09516 0 11.8065C0 17.1726 3.37742 21.7645 8.20161 23.3806C8.82097 23.4919 9.03871 23.1097 9.03871 22.7952C9.03871 22.4952 9.02419 20.8403 9.02419 19.8242C9.02419 19.8242 5.6371 20.55 4.92581 18.3823C4.92581 18.3823 4.37419 16.9742 3.58065 16.6113C3.58065 16.6113 2.47258 15.8516 3.65806 15.8661C3.65806 15.8661 4.8629 15.9629 5.52581 17.1145C6.58548 18.9823 8.36129 18.4452 9.05323 18.1258C9.16452 17.3516 9.47903 16.8145 9.82742 16.4952C7.12258 16.1952 4.39355 15.8032 4.39355 11.1484C4.39355 9.81774 4.76129 9.15 5.53548 8.29839C5.40968 7.98387 4.99839 6.6871 5.66129 5.0129C6.67258 4.69839 9 6.31936 9 6.31936C9.96774 6.04839 11.0081 5.90806 12.0387 5.90806C13.0694 5.90806 14.1097 6.04839 15.0774 6.31936C15.0774 6.31936 17.4048 4.69355 18.4161 5.0129C19.079 6.69194 18.6677 7.98387 18.5419 8.29839C19.3161 9.15484 19.7903 9.82258 19.7903 11.1484C19.7903 15.8177 16.9403 16.1903 14.2355 16.4952C14.6806 16.8774 15.0581 17.6032 15.0581 18.7403C15.0581 20.371 15.0435 22.3887 15.0435 22.7855C15.0435 23.1 15.2661 23.4823 15.8806 23.371C20.7194 21.7645 24 17.1726 24 11.8065C24 5.09516 18.5565 0 11.8452 0ZM4.70323 16.6887C4.64032 16.7371 4.65484 16.8484 4.7371 16.9403C4.81452 17.0177 4.92581 17.0516 4.98871 16.9887C5.05161 16.9403 5.0371 16.829 4.95484 16.7371C4.87742 16.6597 4.76613 16.6258 4.70323 16.6887ZM4.18064 16.2968C4.14677 16.3597 4.19516 16.4371 4.29194 16.4855C4.36935 16.5339 4.46613 16.5194 4.5 16.4516C4.53387 16.3887 4.48548 16.3113 4.38871 16.2629C4.29194 16.2339 4.21452 16.2484 4.18064 16.2968ZM5.74839 18.0194C5.67097 18.0823 5.7 18.2274 5.81129 18.3194C5.92258 18.4306 6.0629 18.4452 6.12581 18.3677C6.18871 18.3048 6.15968 18.1597 6.0629 18.0677C5.95645 17.9565 5.81129 17.9419 5.74839 18.0194ZM5.19677 17.3081C5.11935 17.3565 5.11935 17.4823 5.19677 17.5935C5.27419 17.7048 5.40484 17.7532 5.46774 17.7048C5.54516 17.6419 5.54516 17.5161 5.46774 17.4048C5.4 17.2935 5.27419 17.2452 5.19677 17.3081Z"/>
</symbol><symbol viewBox="0 0 32 32" id="leetcode" xmlns="http://www.w3.org/2000/svg">
    <path d="M21.469 23.907l-3.595 3.473c-0.624 0.625-1.484 0.885-2.432 0.885s-1.807-0.26-2.432-0.885l-5.776-5.812c-0.62-0.625-0.937-1.537-0.937-2.485 0-0.952 0.317-1.812 0.937-2.432l5.76-5.844c0.62-0.619 1.5-0.859 2.448-0.859s1.808 0.26 2.432 0.885l3.595 3.473c0.687 0.688 1.823 0.663 2.536-0.052 0.708-0.713 0.735-1.848 0.047-2.536l-3.473-3.511c-0.901-0.891-2.032-1.505-3.261-1.787l3.287-3.333c0.688-0.687 0.667-1.823-0.047-2.536s-1.849-0.735-2.536-0.052l-13.469 13.469c-1.307 1.312-1.989 3.113-1.989 5.113 0 1.996 0.683 3.86 1.989 5.168l5.797 5.812c1.307 1.307 3.115 1.937 5.115 1.937 1.995 0 3.801-0.683 5.109-1.989l3.479-3.521c0.688-0.683 0.661-1.817-0.052-2.531s-1.849-0.74-2.531-0.052zM27.749 17.349h-13.531c-0.932 0-1.692 0.801-1.692 1.791 0 0.991 0.76 1.797 1.692 1.797h13.531c0.933 0 1.693-0.807 1.693-1.797 0-0.989-0.76-1.791-1.693-1.791z"/>
</symbol><symbol viewBox="0 0 90 19" id="logo" xmlns="http://www.w3.org/2000/svg">
    <path d="M0.744 9.36C0.744 8.32 0.928 7.304 1.296 6.312C1.68 5.304 2.232 4.392 2.952 3.576C3.672 2.744 4.552 2.088 5.592 1.608C6.632 1.112 7.816 0.863999 9.144 0.863999C10.712 0.863999 12.064 1.208 13.2 1.896C14.352 2.584 15.208 3.48 15.768 4.584L13.224 6.336C12.936 5.696 12.56 5.192 12.096 4.824C11.632 4.44 11.136 4.176 10.608 4.032C10.08 3.872 9.56 3.792 9.048 3.792C8.216 3.792 7.488 3.96 6.864 4.296C6.256 4.632 5.744 5.072 5.328 5.616C4.912 6.16 4.6 6.768 4.392 7.44C4.2 8.112 4.104 8.784 4.104 9.456C4.104 10.208 4.224 10.936 4.464 11.64C4.704 12.328 5.04 12.944 5.472 13.488C5.92 14.016 6.448 14.44 7.056 14.76C7.68 15.064 8.36 15.216 9.096 15.216C9.624 15.216 10.16 15.128 10.704 14.952C11.248 14.776 11.752 14.496 12.216 14.112C12.68 13.728 13.04 13.232 13.296 12.624L16.008 14.184C15.672 15.032 15.12 15.752 14.352 16.344C13.6 16.936 12.752 17.384 11.808 17.688C10.864 17.992 9.928 18.144 9 18.144C7.784 18.144 6.672 17.896 5.664 17.4C4.656 16.888 3.784 16.216 3.048 15.384C2.328 14.536 1.76 13.592 1.344 12.552C0.944 11.496 0.744 10.432 0.744 9.36ZM29.6051 18H26.3891V10.944C26.3891 9.968 26.1971 9.24 25.8131 8.76C25.4451 8.28 24.9331 8.04 24.2771 8.04C23.8931 8.04 23.4851 8.152 23.0531 8.376C22.6211 8.6 22.2291 8.912 21.8771 9.312C21.5411 9.696 21.2931 10.144 21.1331 10.656V18H17.9171V0.48H21.1331V7.752C21.5971 6.952 22.2291 6.328 23.0291 5.88C23.8291 5.432 24.7011 5.208 25.6451 5.208C26.4611 5.208 27.1251 5.352 27.6371 5.64C28.1491 5.912 28.5491 6.288 28.8371 6.768C29.1251 7.232 29.3251 7.76 29.4371 8.352C29.5491 8.928 29.6051 9.528 29.6051 10.152V18ZM38.2335 18.24C37.2255 18.24 36.3135 18.072 35.4975 17.736C34.6815 17.384 33.9855 16.912 33.4095 16.32C32.8335 15.712 32.3855 15.024 32.0655 14.256C31.7615 13.472 31.6095 12.648 31.6095 11.784C31.6095 10.584 31.8735 9.488 32.4015 8.496C32.9455 7.504 33.7135 6.712 34.7055 6.12C35.7135 5.512 36.8975 5.208 38.2575 5.208C39.6335 5.208 40.8095 5.512 41.7855 6.12C42.7615 6.712 43.5055 7.504 44.0175 8.496C44.5455 9.472 44.8095 10.528 44.8095 11.664C44.8095 11.856 44.8015 12.056 44.7855 12.264C44.7695 12.456 44.7535 12.616 44.7375 12.744H35.0175C35.0815 13.384 35.2655 13.944 35.5695 14.424C35.8895 14.904 36.2895 15.272 36.7695 15.528C37.2655 15.768 37.7935 15.888 38.3535 15.888C38.9935 15.888 39.5935 15.736 40.1535 15.432C40.7295 15.112 41.1215 14.696 41.3295 14.184L44.0895 14.952C43.7855 15.592 43.3455 16.16 42.7695 16.656C42.2095 17.152 41.5455 17.544 40.7775 17.832C40.0095 18.104 39.1615 18.24 38.2335 18.24ZM34.9455 10.704H41.5215C41.4575 10.064 41.2735 9.512 40.9695 9.048C40.6815 8.568 40.2975 8.2 39.8175 7.944C39.3375 7.672 38.8015 7.536 38.2095 7.536C37.6335 7.536 37.1055 7.672 36.6255 7.944C36.1615 8.2 35.7775 8.568 35.4735 9.048C35.1855 9.512 35.0095 10.064 34.9455 10.704ZM54.2567 8.208C53.2807 8.208 52.4087 8.4 51.6407 8.784C50.8727 9.152 50.3207 9.688 49.9847 10.392V18H46.7687V5.424H49.7207V8.112C50.1687 7.248 50.7367 6.568 51.4247 6.072C52.1127 5.576 52.8407 5.304 53.6087 5.256C53.7847 5.256 53.9207 5.256 54.0167 5.256C54.1127 5.256 54.1927 5.264 54.2567 5.28V8.208ZM71.6499 5.424H74.6979L69.4419 18H66.7539L64.6419 12.6L62.5779 18H59.8659L54.6339 5.424H57.6579L61.4019 14.928L62.8659 10.824L60.6819 5.448H63.3459L64.6419 9.288L65.9619 5.448H68.6259L66.4419 10.824L67.9299 14.928L71.6499 5.424ZM80.2361 0.959999H83.5961L89.8601 18H86.4521L84.8681 13.752H78.9161L77.3561 18H73.9481L80.2361 0.959999ZM84.2681 11.424L81.9161 4.392L79.4681 11.424H84.2681Z"/>
</symbol><symbol viewBox="0 0 192 192" xml:space="preserve" id="stepik" xmlns="http://www.w3.org/2000/svg">
    <g id="fSVGRepo_bgCarrier" stroke-width="0"/>
    <g id="fSVGRepo_tracerCarrier" stroke-linecap="round" stroke-linejoin="round"/>
    <g id="fSVGRepo_iconCarrier">
        <path d="M122.343 159.179c-6.777 6.558-16.178 10.712-26.234 10.712-10.493 0-19.893-4.154-26.889-11.15l17.708-17.707c2.404 2.405 5.465 3.716 9.181 3.716 3.498 0 6.777-1.53 9.182-3.716l35.852-35.852c2.405-2.405 3.717-5.466 3.717-9.182 0-3.498-1.53-6.777-3.717-9.182-2.404-2.404-5.465-3.716-9.181-3.716-3.717 0-6.777 1.53-9.182 3.716L86.928 122.89c-6.777 6.777-16.396 11.15-26.89 11.15-10.493 0-19.893-4.373-26.889-11.15C26.372 116.112 22 106.493 22 96c0-10.493 4.155-19.894 11.15-26.89l35.852-35.852c6.777-6.777 16.396-11.149 26.89-11.149 10.493 0 19.893 4.154 26.889 11.15l-17.708 17.707c-2.404-2.405-5.465-3.716-9.181-3.716-3.717 0-6.777 1.53-9.182 3.716L50.857 86.818C48.452 89.223 47.14 92.284 47.14 96c0 3.498 1.53 6.777 3.717 9.182 2.404 2.404 5.465 3.716 9.181 3.716 3.498 0 6.777-1.53 9.182-3.716l35.852-35.853c6.777-6.777 16.396-11.149 26.89-11.149 10.493 0 19.893 4.154 26.889 11.15C165.628 76.105 170 85.724 170 96.218c0 10.493-4.155 19.893-11.15 26.889z" style="fill:none;fill-opacity:1;stroke:#000000;stroke-width:12;stroke-linecap:round;stroke-linejoin:round;stroke-dasharray:none;stroke-opacity:1"/>
    </g>
</symbol><symbol id="telegram" viewBox="0 0 24 24" xml:space="preserve" xmlns="http://www.w3.org/2000/svg">
    <style type="text/css">.gst0{fill:none;}</style>
    <path d="M12,2C6.5,2,2,6.5,2,12s4.5,10,10,10s10-4.5,10-10S17.5,2,12,2z M16.9,8.1l-1.7,8.2c-0.1,0.6-0.5,0.7-0.9,0.4l-2.6-2  c-0.6,0.6-1.2,1.1-1.3,1.3c-0.2,0.1-0.3,0.3-0.5,0.3c-0.3,0-0.3-0.2-0.4-0.4l-0.9-3L5.9,12c-0.6-0.2-0.6-0.6,0.1-0.9l10.2-3.9  C16.6,7.1,17.1,7.3,16.9,8.1z M14.5,9l-5.7,3.6l0.9,3l0.2-2l4.9-4.4C15.1,8.9,14.9,8.9,14.5,9z"/>
    <rect class="gst0" width="24" height="24"/>
</symbol></svg>