<?xml version="1.0" encoding="utf-8"?><!DOCTYPE svg PUBLIC "-//W3C//DTD SVG 1.1//EN" "http://www.w3.org/Graphics/SVG/1.1/DTD/svg11.dtd"><svg viewBox="0 0 800 800" xmlns="http://www.w3.org/2000/svg" xmlns:xlink="http://www.w3.org/1999/xlink"><style>:root>svg{display:none}:root>svg:target{display:block}</style><svg fill="none" viewBox="0 0 34 34" id="angular" xmlns="http://www.w3.org/2000/svg"><path d="m2.9 7.087 13.94-4.962v29.75L5.068 25.372 2.9 7.087Z" fill="#DE3641"/><path d="M16.84 2.125 31.1 7.002l-2.327 18.286-11.932 6.587V2.125Z" fill="#B13138"/><path d="m16.84 5.461 9.064 19.37h-3.092l-1.934-4.42h-4.037v-2.635h2.943l-2.943-6.089-2.476 6.089h2.476v2.635h-3.687l-1.732 4.42H8.086L16.84 5.46Z" fill="#fff"/><path d="m19.858 29.973-1.18-13.25h12.985l-1.18 13.25-5.323 1.477-5.302-1.477Z" fill="#E44F26"/><path d="m25.17 30.324 4.304-1.19 1.01-11.326H25.17v12.516Z" fill="#F1662A"/><path d="M25.17 22.727h-2.145l-.15-1.668h2.296v-1.626h-4.08l.042.436.404 4.483h3.634v-1.625Zm0 4.218h-.01l-1.806-.489-.117-1.296h-1.626l.224 2.55 3.325.924h.01v-1.689Z" fill="#EBEBEB"/><path d="M25.17 22.727v1.625h1.998l-.19 2.104-1.807.489v1.69l3.326-.925.031-.276.372-4.271.043-.436H25.17Zm0-3.294v1.626h3.921l.032-.372.075-.818.042-.436h-4.07Z" fill="#fff"/></svg><svg viewBox="0 0 24 24" id="codewars" xmlns="http://www.w3.org/2000/svg"><path d="M1.072.142A1.072 1.072 0 0 0 0 1.214v21.572a1.072 1.072 0 0 0 1.072 1.072h21.856A1.072 1.072 0 0 0 24 22.786V1.214A1.072 1.072 0 0 0 22.928.142zm9.736 1.818a.904.904 0 0 1 .828.539.784.784 0 0 1 1.274.493.639.639 0 0 1 .29-.06c.33.008.59.262.625.575a1.322 1.322 0 0 1 .624-.515 1.325 1.325 0 0 1 1.718.71 1.098 1.098 0 0 1 .306-.236 1.102 1.102 0 0 1 1.483.479 1.094 1.094 0 0 1 .12.47.994.994 0 0 1 1.322 1.214.904.904 0 0 1 .874 1.438.784.784 0 0 1 .176 1.356.639.639 0 0 1 .19.224.642.642 0 0 1-.011.613 1.326 1.326 0 0 1 .482.235 1.334 1.334 0 0 1 .258 1.842 1.098 1.098 0 0 1 .35.15 1.102 1.102 0 0 1 .337 1.516 1.094 1.094 0 0 1-.344.344.994.994 0 0 1 .228 1.318 1.006 1.006 0 0 1-.605.434.904.904 0 0 1-.803 1.482.814.814 0 0 0-.008-.04.784.784 0 0 1-1.075.873.639.639 0 0 1-.098.28.625.625 0 0 1-.43.288 1.33 1.33 0 0 1 .023.456 1.334 1.334 0 0 1-1.44 1.173 1.098 1.098 0 0 1 .054.377 1.102 1.102 0 0 1-1.128 1.072 1.098 1.098 0 0 1-.47-.12.994.994 0 0 1-1.696.583.904.904 0 0 1-1.685.075.784.784 0 0 1-1.274-.493.639.639 0 0 1-.29.064.64.64 0 0 1-.621-.58l.004-.007a1.326 1.326 0 0 1-.632.523 1.334 1.334 0 0 1-1.718-.706 1.098 1.098 0 0 1-.306.232 1.102 1.102 0 0 1-1.48-.478 1.094 1.094 0 0 1-.123-.471.994.994 0 0 1-1.318-1.21.904.904 0 0 1-.874-1.442.784.784 0 0 1-.176-1.356.639.639 0 0 1-.194-.224.642.642 0 0 1 .011-.61l.019.004a1.326 1.326 0 0 1-.497-.239 1.334 1.334 0 0 1-.262-1.845 1.098 1.098 0 0 1-.35-.146 1.102 1.102 0 0 1-.337-1.52 1.094 1.094 0 0 1 .347-.34A.994.994 0 0 1 2.88 9a.904.904 0 0 1 .803-1.48.784.784 0 0 1 1.083-.836.639.639 0 0 1 .098-.28.649.649 0 0 1 .433-.288 1.33 1.33 0 0 1-.026-.452A1.334 1.334 0 0 1 6.716 4.49a1.098 1.098 0 0 1-.06-.377 1.101 1.101 0 0 1 1.13-1.073 1.094 1.094 0 0 1 .47.115.994.994 0 0 1 1.696-.579.904.904 0 0 1 .857-.617zM3.683 7.519a.784.784 0 0 0 .008.041l-.004-.04a.904.904 0 0 0-.004-.001zM17.502 19.61a1.098 1.098 0 0 0-.002-.004h-.037a1.334 1.334 0 0 0 .039.004zM13.825 3.507a1.322 1.322 0 0 0-.008.012l.008-.011zm-2.369-.014-.003.003a.9.9 0 0 1-.665.27.896.896 0 0 1-.583-.232.994.994 0 0 1-.986.732.99.99 0 0 1-.362-.075 1.098 1.098 0 0 1-1.061 1.046 1.326 1.326 0 0 1 .123.736 1.334 1.334 0 0 1-.725 1.035 1.1 1.1 0 0 1 .307.795 1.106 1.106 0 0 1-.232.65c.321.18.53.523.523.915a1.016 1.016 0 0 1-.07.337.915.915 0 0 1 .82.937.923.923 0 0 1-.01.138.74.74 0 0 1 .157-.01c.343.007.627.25.702.57a.661.661 0 0 1 .38-.111c.31.007.561.224.632.511a.418.418 0 0 1 .381-.015 1.352 1.352 0 0 1 .303-.63.418.418 0 0 1-.12-.143.422.422 0 0 1 .004-.392.665.665 0 0 1-.325-1.117.736.736 0 0 1-.359-.336.74.74 0 0 1 .385-1.023.747.747 0 0 0-.06.026.915.915 0 0 1-.201-.262.915.915 0 0 1 .623-1.315V6.53a1.02 1.02 0 0 1 .437-1.371 1.012 1.012 0 0 1 .553-.112 1.11 1.11 0 0 1 .598-1.054 1.12 1.12 0 0 1 .06-.026.642.642 0 0 1-.109-.21.784.784 0 0 1-.455.132.784.784 0 0 1-.662-.396zm4.573 1.512a1.326 1.326 0 0 1-.587.46 1.334 1.334 0 0 1-1.255-.142v-.011a1.11 1.11 0 0 1-.553.66 1.106 1.106 0 0 1-.683.113 1.02 1.02 0 0 1-.553.889 1.016 1.016 0 0 1-.329.105.918.918 0 0 1-.43 1.169.923.923 0 0 1-.127.056.74.74 0 0 1 .086.13.738.738 0 0 1-.168.89.661.661 0 0 1 .28.283.655.655 0 0 1-.149.796.418.418 0 0 1 .153.164c.019.034.03.068.038.101a1.356 1.356 0 0 1 .672-.015.422.422 0 0 1 .056-.142.422.422 0 0 1 .34-.194.665.665 0 0 1 .796-.848.736.736 0 0 1 .112-.478.733.733 0 0 1 1.016-.224.915.915 0 0 1 .127-.306.915.915 0 0 1 1.27-.28.915.915 0 0 1 .179.153 1.02 1.02 0 0 1 1.408-.314 1.012 1.012 0 0 1 .374.422c.355-.24.833-.261 1.214-.015a1.11 1.11 0 0 1 .209.172.642.642 0 0 1 .082-.108.784.784 0 0 1-.332-.337.784.784 0 0 1 .03-.77.9.9 0 0 1-.553-.455.896.896 0 0 1-.075-.624.994.994 0 0 1-1.117-.511.994.994 0 0 1-.104-.359 1.098 1.098 0 0 1-1.427-.43zM5.249 7.37a.784.784 0 0 1-.124.46.784.784 0 0 1-.68.362c.06.235.026.49-.112.71a.896.896 0 0 1-.5.377c.31.325.373.829.12 1.225a.99.99 0 0 1-.255.269 1.098 1.098 0 0 1 .351 1.45 1.326 1.326 0 0 1 .691.276 1.334 1.334 0 0 1 .512 1.154c.28-.064.579-.019.84.15a1.106 1.106 0 0 1 .438.53 1.02 1.02 0 0 1 1.05.03 1.016 1.016 0 0 1 .257.231.914.914 0 0 1 1.225-.224.919.919 0 0 1 .112.086.74.74 0 0 1 .071-.142.74.74 0 0 1 .852-.306.661.661 0 0 1 .1-.381.664.664 0 0 1 .763-.273.418.418 0 0 1 .246-.373 1.36 1.36 0 0 1-.358-.523v-.008a.418.418 0 0 1-.25.075.422.422 0 0 1-.344-.19.665.665 0 0 1-1.132-.243.736.736 0 0 1-.47.149.733.733 0 0 1-.718-.755.915.915 0 0 1-.329.049.915.915 0 0 1-.855-1.177h-.004a1.016 1.016 0 0 1-.993-1.042 1.012 1.012 0 0 1 .168-.534 1.11 1.11 0 0 1-.64-1.035 1.11 1.11 0 0 1 .068-.358.65.65 0 0 1-.1-.019zm11.127 2.133a.913.913 0 0 1-1.225.224.926.926 0 0 1-.112-.082.74.74 0 0 1-.067.142.74.74 0 0 1-.852.302.661.661 0 0 1-.105.385.662.662 0 0 1-.762.277.418.418 0 0 1-.063.212.426.426 0 0 1-.075.086 1.356 1.356 0 0 1 .314.564.418.418 0 0 1 .187-.04.422.422 0 0 1 .343.194.665.665 0 0 1 1.136.242.736.736 0 0 1 .467-.153c.41.008.728.348.72.755a.74.74 0 0 1 0 .008v-.005a.915.915 0 0 1 .326-.052.915.915 0 0 1 .896.941.919.919 0 0 1-.037.236c.564.015 1.008.482.993 1.046a1.012 1.012 0 0 1-.168.534 1.11 1.11 0 0 1 .647 1.035 1.11 1.11 0 0 1-.075.362l.004-.007.1.018a.784.784 0 0 1 .124-.46.784.784 0 0 1 .68-.362.9.9 0 0 1 .112-.71.896.896 0 0 1 .504-.373.994.994 0 0 1-.123-1.225.99.99 0 0 1 .257-.269 1.098 1.098 0 0 1-.35-1.453 1.326 1.326 0 0 1-.696-.273h-.003a1.334 1.334 0 0 1-.512-1.158 1.082 1.082 0 0 1-.837-.145 1.106 1.106 0 0 1-.44-.535 1.02 1.02 0 0 1-1.05-.026 1.016 1.016 0 0 1-.258-.235zm-.094 3.116-.007.066a.74.74 0 0 0 .007-.066zm-2.864-.259a1.36 1.36 0 0 1-.363.598.418.418 0 0 1 .194.187.422.422 0 0 1-.007.396.665.665 0 0 1 .329 1.113.736.736 0 0 1 .358.336.739.739 0 0 1-.32.994.915.915 0 0 1 .197.261.91.91 0 0 1-.396 1.233.919.919 0 0 1-.224.082v.004a1.02 1.02 0 0 1-.44 1.374 1.012 1.012 0 0 1-.55.109 1.11 1.11 0 0 1-.661 1.083.642.642 0 0 1 .112.21.026.026 0 0 1-.004 0v.003a.784.784 0 0 1 .456-.134.784.784 0 0 1 .661.392.9.9 0 0 1 .665-.27.896.896 0 0 1 .587.236.994.994 0 0 1 .982-.736.99.99 0 0 1 .362.079v.022a1.1 1.1 0 0 1 1.061-1.072 1.326 1.326 0 0 1-.123-.736c.056-.46.34-.837.725-1.035l.003.004a1.102 1.102 0 0 1-.31-.795 1.106 1.106 0 0 1 .232-.654 1.02 1.02 0 0 1-.452-1.251.915.915 0 0 1-.822-.934.923.923 0 0 1 .011-.142.74.74 0 0 1-.157.015.74.74 0 0 1-.698-.572.661.661 0 0 1-.385.112.667.667 0 0 1-.627-.512.418.418 0 0 1-.217.053.418.418 0 0 1-.18-.045zm-.964.93a1.36 1.36 0 0 1-.336.042c-.112 0-.22-.012-.322-.038a.418.418 0 0 1-.06.295.422.422 0 0 1-.343.195.665.665 0 0 1-.792.844.736.736 0 0 1-.112.478.74.74 0 0 1-1.02.224.915.915 0 0 1-.127.306.915.915 0 0 1-1.266.28.919.919 0 0 1-.183-.153v.004a1.02 1.02 0 0 1-1.408.31 1.012 1.012 0 0 1-.374-.418c-.355.239-.83.261-1.214.015a1.113 1.113 0 0 1-.21-.172.65.65 0 0 1-.081.105.784.784 0 0 1 .336.336.784.784 0 0 1-.034.77.89.89 0 0 1 .553.455.896.896 0 0 1 .075.624.994.994 0 0 1 1.12.515.99.99 0 0 1 .101.355 1.098 1.098 0 0 1 1.431.43 1.326 1.326 0 0 1 .587-.46c.43-.172.896-.104 1.255.142a1.106 1.106 0 0 1 .549-.65 1.106 1.106 0 0 1 .683-.108 1.02 1.02 0 0 1 .553-.893 1.02 1.02 0 0 1 .333-.104.916.916 0 0 1 .425-1.17.919.919 0 0 1 .131-.052.736.736 0 0 1-.09-.134.738.738 0 0 1 .169-.886.661.661 0 0 1-.28-.284.67.67 0 0 1 .149-.799.418.418 0 0 1-.15-.164.418.418 0 0 1-.048-.24z"/></svg><svg fill="none" viewBox="0 0 34 34" id="docker" xmlns="http://www.w3.org/2000/svg"><path fill-rule="evenodd" clip-rule="evenodd" d="M5.312 25.74v-2.152c0-.293.186-.505.478-.505h.08c.292 0 .478.239.478.505v4.515c0 1.09-.531 1.966-1.487 2.524-.452.265-.93.398-1.435.398h-.212c-1.09 0-1.966-.531-2.524-1.487a2.784 2.784 0 0 1-.398-1.435v-.212c0-1.09.531-1.966 1.487-2.524.452-.265.93-.398 1.435-.398h.212a2.925 2.925 0 0 1 1.886.77Zm-4.01 2.257c0 .797.398 1.381 1.088 1.78.293.159.585.239.904.239.77 0 1.354-.372 1.753-1.036.186-.319.265-.638.265-1.01 0-.69-.318-1.221-.876-1.62-.346-.239-.717-.372-1.116-.372-.85 0-1.46.425-1.833 1.195a1.857 1.857 0 0 0-.186.824Zm8.552-3.002h.133c1.17 0 2.072.558 2.63 1.594.24.399.345.85.345 1.328v.213c0 1.089-.53 1.965-1.487 2.523-.452.266-.93.399-1.435.399h-.212c-1.09 0-1.966-.532-2.524-1.488a2.785 2.785 0 0 1-.398-1.434v-.213c0-1.089.558-1.965 1.488-2.523.451-.292.956-.399 1.46-.399Zm-1.912 3.002c0 .77.372 1.328 1.036 1.727.319.185.637.265 1.01.265.77 0 1.327-.398 1.726-1.036.186-.319.265-.637.265-1.01 0-.716-.345-1.274-.93-1.673a1.915 1.915 0 0 0-1.062-.318c-.85 0-1.46.425-1.833 1.195a1.75 1.75 0 0 0-.212.85Zm9.244-1.913c-.16-.08-.452-.106-.611-.106-.85-.026-1.461.452-1.833 1.195a1.78 1.78 0 0 0-.186.824c0 .877.452 1.487 1.222 1.86.292.132.637.159.956.159.266 0 .664-.16.903-.292l.053-.027h.213c.239.053.398.186.398.451v.107c0 .61-1.142.77-1.567.797-1.514.106-2.656-.718-3.081-2.178a2.456 2.456 0 0 1-.106-.77v-.213c0-1.09.557-1.966 1.487-2.524.452-.265.93-.398 1.435-.398h.212c.531 0 1.036.16 1.488.451l.026.027.027.027c.053.08.08.159.08.265v.106c0 .266-.187.399-.426.452h-.08c-.132 0-.477-.16-.61-.213Zm3.294.691c.398-.398.796-.797 1.195-1.169.106-.106.531-.558.69-.558h.213c.239.054.398.186.398.452v.106c0 .16-.186.372-.318.478l-.718.718-1.221 1.248c.53.531 1.062 1.063 1.567 1.594l.425.451c.053.053.133.107.16.186.052.08.079.16.079.24v.132c-.053.24-.213.425-.452.425h-.08c-.159 0-.345-.186-.478-.292a8.491 8.491 0 0 1-.69-.69l-.77-.771v1.222c0 .292-.186.505-.479.505h-.08c-.291 0-.477-.24-.477-.505v-6.933c0-.292.186-.505.478-.505h.08c.292 0 .478.213.478.505v3.161Zm12.643-1.753h.107c.292 0 .504.212.504.505 0 .425-.398.53-.744.53-.451 0-.903.267-1.195.585-.398.399-.558.877-.558 1.435v2.443c0 .293-.186.505-.478.505h-.08c-.292 0-.478-.239-.478-.505v-2.603c0-1.01.479-1.806 1.302-2.39a2.922 2.922 0 0 1 1.62-.505Zm-7.198 4.86c.372.134.797.107 1.169.054.185-.08.69-.292.876-.266h.053a.582.582 0 0 1 .266.24c.133.265.08.53-.186.69l-.08.053c-.956.558-1.992.478-2.948-.053-.452-.239-.797-.61-1.063-1.063l-.053-.106c-.61-1.062-.531-2.204.16-3.214.239-.345.557-.61.93-.823l.132-.08c.903-.531 1.886-.478 2.816-.026.504.239.903.61 1.195 1.089l.053.08c.213.345-.053.663-.319.876-.318.239-.637.531-.93.797a71.586 71.586 0 0 0-2.071 1.753Zm-.877-.61 2.258-1.94c.266-.212.531-.45.797-.69-.213-.265-.558-.451-.824-.558a1.92 1.92 0 0 0-1.7.16c-.69.398-1.009 1.062-.982 1.86 0 .318.106.61.265.902a.956.956 0 0 0 .186.266Zm-5.472-20.32h3.002v3.054h1.514c.69 0 1.408-.133 2.072-.345.319-.106.69-.266 1.01-.452-.426-.557-.638-1.248-.691-1.939-.08-.93.106-2.151.743-2.868l.32-.372.371.292c.956.77 1.727 1.806 1.886 3.028 1.142-.345 2.47-.266 3.48.319l.398.239-.212.425c-.85 1.647-2.63 2.178-4.357 2.072-2.603 6.454-8.234 9.51-15.087 9.51-3.533 0-6.774-1.329-8.633-4.463l-.027-.054-.265-.557c-.638-1.382-.824-2.896-.69-4.41l.052-.451h2.55V8.952h3.002V5.95h5.976V2.948h3.586v6.004Z" fill="#3A4D54"/><path d="M29.272 10.067c.212-1.567-.956-2.789-1.7-3.373-.824.956-.956 3.506.345 4.568-.744.638-2.258 1.249-3.852 1.249H4.887c-.159 1.647.133 3.16.797 4.462l.213.399c.133.239.292.451.451.69.797.054 1.514.08 2.178.054 1.302-.027 2.364-.186 3.188-.452.133-.053.239.027.292.133.053.133-.026.239-.133.292-.106.027-.212.08-.345.106-.638.186-1.328.293-2.205.346h-.16c-.344.026-.716.026-1.115.026-.425 0-.823 0-1.301-.026 1.593 1.806 4.09 2.868 7.225 2.868 6.64 0 12.272-2.948 14.742-9.536 1.78.186 3.48-.265 4.25-1.78-1.195-.69-2.79-.477-3.692-.026Z" fill="#00AADA"/><path d="M29.271 10.067c.213-1.567-.956-2.789-1.7-3.373-.823.956-.956 3.506.346 4.568-.744.638-2.258 1.249-3.852 1.249H6.003c-.08 2.523.85 4.436 2.523 5.578 1.302-.026 2.364-.186 3.188-.451.133-.054.239.026.292.132.053.133-.027.24-.133.293-.106.026-.212.08-.345.106a10.25 10.25 0 0 1-2.258.372l-.027-.027c2.258 1.169 5.525 1.142 9.297-.292 4.197-1.62 8.128-4.702 10.864-8.208-.053.027-.08.053-.133.053Z" fill="#28B8EB"/><path d="M4.914 14.503c.106.877.372 1.7.77 2.47l.213.399c.133.239.292.451.451.69.797.054 1.514.08 2.179.054 1.301-.027 2.364-.186 3.187-.452.133-.053.24.027.292.133.053.133-.026.239-.133.292-.106.027-.212.08-.345.106-.637.186-1.381.32-2.258.372h-.106c-.345.027-.717.027-1.089.027-.425 0-.85 0-1.302-.027 1.594 1.806 4.118 2.869 7.252 2.869 5.684 0 10.625-2.152 13.494-6.906H4.914v-.027Z" fill="#028BB8"/><path d="M6.19 14.503c.345 1.54 1.142 2.763 2.337 3.586 1.302-.026 2.364-.186 3.188-.451.132-.054.239.026.292.132.053.133-.027.24-.133.293-.106.026-.213.08-.346.106-.637.186-1.38.319-2.284.372 2.258 1.168 5.525 1.142 9.27-.293 2.258-.876 4.463-2.178 6.429-3.745H6.189Z" fill="#019BC6"/><path fill-rule="evenodd" clip-rule="evenodd" d="M7.49 9.43h2.603v2.603H7.49V9.43Zm.213.239h.212v2.151h-.212V9.67Zm.398 0h.213v2.151H8.1V9.67Zm.399 0h.212v2.151H8.5V9.67Zm.371 0h.213v2.151h-.213V9.67Zm.399 0h.212v2.151H9.27V9.67Zm.398 0h.213v2.151h-.213V9.67Zm.824-3.214h2.603V9.03h-2.603V6.455Zm.212.212h.213V8.82h-.213V6.667Zm.399 0h.212V8.82h-.212V6.667Zm.372 0h.212V8.82h-.212V6.667Zm.398 0h.213V8.82h-.213V6.667Zm.399 0h.212V8.82h-.213V6.667Zm.398 0h.212V8.82h-.212V6.667Z" fill="#00ACD3"/><path fill-rule="evenodd" clip-rule="evenodd" d="M10.492 9.43h2.603v2.603h-2.603V9.43Zm.213.239h.212v2.151h-.212V9.67Zm.398 0h.213v2.151h-.213V9.67Zm.372 0h.213v2.151h-.213V9.67Zm.398 0h.213v2.151h-.213V9.67Zm.399 0h.212v2.151h-.212V9.67Zm.398 0h.213v2.151h-.213V9.67Z" fill="#23C2EE"/><path fill-rule="evenodd" clip-rule="evenodd" d="M13.494 9.43h2.603v2.603h-2.603V9.43Zm.213.239h.212v2.151h-.212V9.67Zm.371 0h.213v2.151h-.213V9.67Zm.399 0h.213v2.151h-.213V9.67Zm.398 0h.213v2.151h-.213V9.67Zm.399 0h.212v2.151h-.212V9.67Zm.372 0h.212v2.151h-.212V9.67Z" fill="#00ACD3"/><path fill-rule="evenodd" clip-rule="evenodd" d="M13.494 6.455h2.603V9.03h-2.603V6.455Zm.213.212h.212V8.82h-.212V6.667Zm.371 0h.213V8.82h-.213V6.667Zm.399 0h.213V8.82h-.213V6.667Zm.398 0h.213V8.82h-.213V6.667Zm.399 0h.212V8.82h-.212V6.667Zm.372 0h.212V8.82h-.212V6.667Zm.823 2.763h2.603v2.603H16.47V9.43Zm.24.239h.212v2.151h-.213V9.67Zm.371 0h.213v2.151h-.213V9.67Zm.399 0h.212v2.151h-.212V9.67Zm.398 0h.213v2.151h-.213V9.67Zm.372 0h.212v2.151h-.212V9.67Zm.398 0h.213v2.151h-.213V9.67Z" fill="#23C2EE"/><path fill-rule="evenodd" clip-rule="evenodd" d="M16.469 6.455h2.603V9.03h-2.603V6.455Zm.239.212h.212V8.82h-.212V6.667Zm.372 0h.212V8.82h-.212V6.667Zm.398 0h.213V8.82h-.213V6.667Zm.399 0h.212V8.82h-.212V6.667Zm.371 0h.213V8.82h-.213V6.667Zm.399 0h.212V8.82h-.212V6.667Z" fill="#00ACD3"/><path fill-rule="evenodd" clip-rule="evenodd" d="M16.469 3.453h2.603v2.603h-2.603V3.453Zm.239.213h.212v2.178h-.212V3.666Zm.372 0h.212v2.178h-.212V3.666Zm.398 0h.213v2.178h-.213V3.666Zm.399 0h.212v2.178h-.212V3.666Zm.371 0h.213v2.178h-.213V3.666Zm.399 0h.212v2.178h-.212V3.666Z" fill="#23C2EE"/><path fill-rule="evenodd" clip-rule="evenodd" d="M19.47 9.43h2.604v2.603H19.47V9.43Zm.213.239h.213v2.151h-.213V9.67Zm.399 0h.212v2.151h-.212V9.67Zm.398 0h.213v2.151h-.213V9.67Zm.372 0h.212v2.151h-.212V9.67Zm.398 0h.213v2.151h-.213V9.67Zm.399 0h.212v2.151h-.212V9.67Z" fill="#00ACD3"/><path fill-rule="evenodd" clip-rule="evenodd" d="M12.91 16.256c.398 0 .717.319.717.717a.714.714 0 0 1-.717.718.714.714 0 0 1-.718-.718c.027-.398.346-.717.718-.717Z" fill="#D4EEF1"/><path fill-rule="evenodd" clip-rule="evenodd" d="M12.91 15.442c.053 0 .132 0 .185.027a.224.224 0 0 0-.106.186c0 .106.106.212.213.212.08 0 .159-.053.185-.106.027.053.027.133.027.186a.504.504 0 1 1-1.01 0c0-.266.24-.505.505-.505ZM.265 13.77h33.282c-.717-.186-2.284-.425-2.045-1.382-1.328 1.514-4.489 1.063-5.312.32-.903 1.3-6.11.796-6.455-.213-1.116 1.328-4.595 1.328-5.711 0-.372 1.01-5.578 1.514-6.455.212-.797.744-3.984 1.196-5.312-.319.292.93-1.275 1.196-1.992 1.382Z" fill="#3A4D54"/><path d="M14.822 21.41c-1.78-.85-2.736-1.993-3.294-3.241a11.32 11.32 0 0 1-2.364.372c-.346.026-.718.026-1.09.026-.45 0-.903 0-1.38-.026 1.62 1.62 3.638 2.868 7.33 2.895.266-.027.532-.027.798-.027Z" fill="#BFDBE0"/><path d="M12.192 19.31a8.028 8.028 0 0 1-.664-1.141 11.32 11.32 0 0 1-2.364.372c.638.345 1.54.664 3.028.77Z" fill="#D4EEF1"/></svg><svg fill="none" viewBox="0 0 38 38" id="github" xmlns="http://www.w3.org/2000/svg"><path d="M12.71 29.833c0 .153-.176.276-.398.276-.253.023-.43-.1-.43-.276 0-.153.177-.276.399-.276.23-.023.43.1.43.276Zm-2.383-.345c-.053.154.1.33.33.376.199.076.429 0 .475-.154.046-.153-.1-.329-.33-.398-.199-.053-.421.023-.475.176Zm3.387-.13c-.223.054-.376.2-.353.375.023.154.223.253.452.2.223-.054.376-.2.353-.353-.023-.145-.23-.245-.452-.222ZM18.754 0C8.13 0 0 8.067 0 18.694 0 27.19 5.348 34.46 12.986 37.019c.98.177 1.325-.429 1.325-.927 0-.475-.023-3.095-.023-4.704 0 0-5.363 1.15-6.489-2.283 0 0-.873-2.23-2.13-2.804 0 0-1.754-1.203.123-1.18 0 0 1.908.154 2.957 1.977 1.678 2.957 4.49 2.107 5.585 1.601.177-1.226.675-2.076 1.226-2.582-4.283-.475-8.604-1.095-8.604-8.465 0-2.107.583-3.165 1.809-4.513-.2-.498-.85-2.551.199-5.202 1.6-.498 5.286 2.069 5.286 2.069a18.002 18.002 0 0 1 4.811-.652c1.632 0 3.28.223 4.812.652 0 0 3.685-2.575 5.286-2.069 1.05 2.659.398 4.704.2 5.202 1.225 1.356 1.976 2.413 1.976 4.513 0 7.393-4.513 7.983-8.796 8.465.705.606 1.303 1.755 1.303 3.555 0 2.582-.023 5.777-.023 6.405 0 .498.352 1.103 1.325.927C32.806 34.461 38 27.19 38 18.694 38 8.066 29.381 0 18.755 0ZM7.448 26.424c-.1.076-.077.253.053.398.123.123.3.176.399.077.1-.077.076-.253-.054-.399-.122-.122-.299-.176-.398-.076Zm-.828-.62c-.053.099.023.221.177.298.122.077.275.054.329-.054.054-.1-.023-.222-.176-.298-.153-.046-.276-.023-.33.053Zm2.483 2.727c-.123.1-.077.33.1.475.175.176.398.199.497.076.1-.1.054-.33-.1-.475-.168-.176-.398-.199-.497-.076Zm-.874-1.127c-.122.077-.122.276 0 .453.123.176.33.252.43.176.122-.1.122-.3 0-.475-.108-.177-.307-.253-.43-.154Z" fill="#fff"/></svg><svg fill="none" viewBox="0 0 24 24" id="github-dark" xmlns="http://www.w3.org/2000/svg"><path d="M8.027 18.842c0 .097-.11.174-.251.174-.16.015-.271-.063-.271-.174 0-.097.111-.174.251-.174.146-.015.271.063.271.174Zm-1.504-.218c-.034.097.062.208.208.237.125.049.27 0 .3-.096.029-.097-.063-.209-.208-.252-.126-.034-.267.014-.3.111Zm2.138-.082c-.14.034-.237.126-.222.237.014.097.14.16.285.126.14-.034.237-.126.223-.223-.015-.092-.145-.155-.286-.14ZM11.845 0C5.134 0 0 5.095 0 11.806c0 5.367 3.377 9.959 8.202 11.575.619.11.837-.271.837-.586 0-.3-.015-1.955-.015-2.97 0 0-3.387.725-4.098-1.443 0 0-.552-1.408-1.345-1.77 0 0-1.108-.76.077-.746 0 0 1.205.097 1.868 1.248 1.06 1.868 2.835 1.331 3.527 1.012.112-.774.426-1.312.774-1.63-2.704-.3-5.433-.693-5.433-5.348 0-1.33.367-1.998 1.141-2.85-.125-.314-.537-1.61.126-3.285C6.673 4.698 9 6.319 9 6.319a11.369 11.369 0 0 1 3.039-.41c1.03 0 2.07.14 3.038.41 0 0 2.328-1.625 3.34-1.306.662 1.679.25 2.97.125 3.285.774.857 1.248 1.525 1.248 2.85 0 4.67-2.85 5.042-5.554 5.347.445.382.822 1.108.822 2.245 0 1.631-.014 3.649-.014 4.046 0 .314.222.696.837.585C20.719 21.765 24 17.173 24 11.807 24 5.095 18.556 0 11.845 0ZM4.703 16.689c-.063.048-.048.16.034.251.078.078.189.112.252.049.063-.049.048-.16-.034-.252-.078-.077-.189-.111-.252-.048Zm-.522-.392c-.034.063.014.14.11.188.078.049.175.034.209-.033.034-.063-.015-.14-.111-.19-.097-.028-.174-.014-.208.035Zm1.567 1.722c-.077.063-.048.208.063.3.112.112.252.126.315.049.063-.063.034-.208-.063-.3-.107-.112-.252-.126-.315-.049Zm-.551-.71c-.078.047-.078.173 0 .284.077.112.208.16.27.112.078-.063.078-.189 0-.3-.067-.111-.193-.16-.27-.097Z" fill="#000"/></svg><svg fill="none" viewBox="0 0 34 34" id="gradle" xmlns="http://www.w3.org/2000/svg"><path d="M29.113 5.844h-9.776l-2.23 4.462H4.568v4.25H.53l4.038 13.6h26.775V5.844h-2.232Zm-7.65 2.231h7.543v2.231H20.4l1.063-2.231Zm5.843 6.481H7.012v-2.018h22.1v8.102l-1.806-6.084Z" fill="#7DC1D1"/><path d="M31.55 15.399a4.038 4.038 0 0 0-5.619-.09.382.382 0 0 0-.092.424c.019.047.048.091.084.128l.51.509a.382.382 0 0 0 .503.035 2.316 2.316 0 0 1 3.026 3.492c-3.199 3.218-7.497-5.775-17.212-1.147a1.316 1.316 0 0 0-.585 1.85l1.66 2.881a1.323 1.323 0 0 0 1.786.492l.042-.024-.033.024.743-.415a16.987 16.987 0 0 0 2.33-1.731.404.404 0 0 1 .53-.017.38.38 0 0 1 0 .585 17.644 17.644 0 0 1-2.435 1.845l-.027.015-.744.412a2.062 2.062 0 0 1-1.022.268 2.113 2.113 0 0 1-1.835-1.063l-1.579-2.717c-3.025 2.14-4.862 6.258-3.876 11.47a.383.383 0 0 0 .38.313H9.88a.382.382 0 0 0 .396-.337 2.632 2.632 0 0 1 5.22 0 .383.383 0 0 0 .373.337h1.746A.388.388 0 0 0 18 32.6a2.629 2.629 0 0 1 5.217 0 .382.382 0 0 0 .38.337h1.73a.383.383 0 0 0 .382-.378c.043-2.438.7-5.238 2.575-6.64 6.475-4.853 4.767-9.013 3.266-10.521Zm-6.616 7.339-1.24-.619a.778.778 0 1 1 1.236.624l.004-.005Z" fill="#D2D2D2"/></svg><svg fill="none" viewBox="0 0 34 34" id="gulp" xmlns="http://www.w3.org/2000/svg"><g clip-path="url(#aga)"><path d="M26.031 0H7.97A7.969 7.969 0 0 0 0 7.969V26.03A7.969 7.969 0 0 0 7.969 34H26.03A7.969 7.969 0 0 0 34 26.031V7.97A7.969 7.969 0 0 0 26.031 0Z" fill="#D34A47"/><path d="m20.51 30.729.28-4.672.775-1.321s-1.762.72-4.712.72c-2.95 0-4.684-.707-4.684-.707l.867 1.442.307 4.538c0 .486 1.605.88 3.584.88s3.583-.394 3.583-.88Zm-.884-21.814.588-2.326 3.259-3.429-.859-.732-3.45 3.653-.683 2.779a45.81 45.81 0 0 0-1.543-.026c-3.633 0-6.579.414-6.579.925 0 .51 2.946.924 6.579.924 3.633 0 6.579-.413 6.579-.924 0-.376-1.598-.7-3.891-.845Z" fill="#fff"/><path d="M19.284 10.217s-.128.029-.503.03c-.375.002-.64-.002-.747-.099a.167.167 0 0 1-.044-.112c0-.067.048-.106.108-.13l.056.089c-.024.008-.038.019-.038.03 0 .05.383.084.676.08.294-.003.648-.027.649-.077 0-.015-.027-.03-.074-.04l.057-.089c.076.024.142.07.142.148 0 .134-.171.155-.282.17Zm4.183-7.05c.081-.095-.043-.337-.278-.54-.236-.205-.493-.293-.575-.198-.082.094.042.336.278.54.235.204.492.292.575.198Zm-3.113 16.152c-.078-.743 1.625-1.82 1.188-1.854-.94.054-1.409 1.102-1.882 2.2-.173.403-.767 2.119-1.156 1.908-.39-.212.505-1.623.755-2.46-.29.211-1.349 1.034-1.622.263-.439.373-1.377.575-1.271-.404-.234.413-.758.991-1.387.751-.827-.315.478-2.947.803-2.815.325.133-.066.733-.168.966-.225.512-.484 1.156-.31 1.288.296.226 1.105-.854 1.123-.878.151-.2.582-1.507.929-1.357.347.15-.866 1.876-.412 2.218.091.07.465-.043.693-.289.147-.16.097-.512.588-1.683.49-1.171.929-2.63 1.265-2.519.337.111.06.86-.061 1.139-.567 1.31-1.548 3.473-1.085 3.31.462-.164.703-.174 1.156-.704.452-.53.431-1.402.733-1.384.302.019.252.299.178.512.297-.34 1.408-1.056 1.676-.347.318.84-1.589 2.052-1.113 1.99.463-.06 1.214-.536 1.535-.969l.883-7.935s-.889.735-6.54.735c-5.65 0-6.447-.72-6.447-.72l.752 7.243c.399-1.133 1.346-3.426 2.839-3.35.68.036 1.586 1.344.81 1.388-.33.018-.363-.653-.752-.752-.281-.07-.672.158-.925.405-.504.493-1.588 2.44-1.445 3.41.183 1.237 1.707-.43 1.965-.925.182-.348.305-1.381.702-1.273.397.108-.035 1.174-.323 2.117-.323 1.058-.493 2.174-.899 2.046-.406-.128.255-1.494.231-1.734-.381.352-1.083 1.242-1.982.802l.467 4.498s1.24.98 4.977.98c3.736 0 5.023-.965 5.023-.965l.58-5.21c-.475.462-1.975 1.282-2.071.358Z" fill="#fff"/></g><defs><clipPath id="aga"><path fill="#fff" d="M0 0h34v34H0z"/></clipPath></defs></svg><svg fill="none" viewBox="0 0 34 34" id="hibernate" xmlns="http://www.w3.org/2000/svg"><path d="m33.566 14.958-6.7-12.916C26.283.922 24.857 0 23.691 0H10.305C9.143 0 7.711.922 7.132 2.042L.436 14.958c-.581 1.12-.581 2.956 0 4.078l6.693 12.922C7.71 33.078 9.136 34 10.302 34h13.394c1.162 0 2.587-.922 3.173-2.042l6.695-12.924c.581-1.12.581-2.956 0-4.076h.002ZM15.55 7.145c0-.847.62-1.538 1.38-1.538.759 0 1.38.69 1.38 1.538v9.186c-.022.39-.177.757-.433 1.025a1.31 1.31 0 0 1-.946.416 1.31 1.31 0 0 1-.946-.416 1.618 1.618 0 0 1-.434-1.025l-.001-9.186Zm1.38 19.615c-2.482-.004-4.861-1.104-6.616-3.059-1.754-1.955-2.741-4.605-2.744-7.37a11.462 11.462 0 0 1 1.003-4.681 10.29 10.29 0 0 1 2.775-3.689c.13-.107.277-.185.434-.23.156-.043.32-.052.479-.026.16.027.313.088.452.18.138.093.259.215.355.36.096.144.166.308.206.482a1.517 1.517 0 0 1-.137 1.036 1.327 1.327 0 0 1-.321.396c-1.42 1.237-2.348 3.043-2.59 5.032-.24 1.989.226 4.004 1.3 5.616 1.075 1.611 2.671 2.691 4.45 3.01 1.78.318 3.6-.15 5.073-1.307a7.56 7.56 0 0 0 2.051-2.721 8.458 8.458 0 0 0-.012-6.926 7.585 7.585 0 0 0-2.066-2.726 1.406 1.406 0 0 1-.485-.898 1.493 1.493 0 0 1 .226-1.018c.194-.291.484-.485.806-.54.323-.054.651.037.914.252a10.266 10.266 0 0 1 2.798 3.695 11.444 11.444 0 0 1 1.008 4.703c-.002 2.765-.989 5.416-2.744 7.371-1.755 1.955-4.135 3.054-6.617 3.056" fill="#000"/></svg><svg fill="none" viewBox="0 0 25 34" id="html-5" xmlns="http://www.w3.org/2000/svg"><g clip-path="url(#aia)"><path d="M24.069 6.665 21.88 31.186l-9.84 2.728L2.23 31.19.042 6.665h24.027Z" fill="#E44D26"/><path d="m12.056 31.83 7.95-2.205 1.87-20.955h-9.82v23.16Z" fill="#F16529"/><path d="M7.8 14.686h4.255v-3.008H4.513l.072.807.739 8.29h6.731v-3.009h-3.98l-.275-3.08Zm.678 7.592h-3.02l.422 4.723 6.161 1.71.014-.003v-3.13l-.013.004-3.35-.905-.214-2.399Z" fill="#EBEBEB"/><path d="M2.277 0h1.529v1.51h1.398V0h1.529v4.573H5.204V3.042H3.806v1.531H2.277V0Zm6.466 1.517H7.397V0h4.221v1.517h-1.346v3.056H8.743V1.517ZM12.288 0h1.594l.98 1.607.98-1.607h1.594v4.573h-1.522V2.307l-1.052 1.626h-.026l-1.052-1.626v2.266h-1.496V0Zm5.91 0h1.528v3.062h2.15v1.511h-3.679V0Z" fill="#000"/><path d="M12.045 20.774h3.704l-.35 3.901-3.354.906v3.13L18.21 27l.046-.508.706-7.919.074-.808h-6.992v3.008Zm0-6.095v.007h7.266l.06-.676.137-1.525.072-.807h-7.535v3Z" fill="#fff"/></g><defs><clipPath id="aia"><path fill="#fff" d="M0 0h24.111v34H0z"/></clipPath></defs></svg><svg fill="none" viewBox="0 0 34 34" id="insomnia" xmlns="http://www.w3.org/2000/svg"><g clip-path="url(#aja)"><path d="M17 33.136c8.911 0 16.135-7.225 16.135-16.136S25.911.864 17 .864C8.088.864.864 8.09.864 17c0 8.912 7.224 16.136 16.136 16.136Z" fill="#fff"/><path d="M17 0C7.611 0 0 7.611 0 17s7.611 17 17 17 17-7.611 17-17S26.389 0 17 0Zm0 1.729c8.434 0 15.271 6.837 15.271 15.271 0 8.434-6.837 15.271-15.271 15.271-8.434 0-15.271-6.837-15.271-15.271C1.729 8.566 8.566 1.729 17 1.729Z" fill="#4000BF"/><path d="M17.192 4.898c6.683 0 12.101 5.418 12.101 12.102s-5.418 12.102-12.101 12.102C10.508 29.102 5.09 23.684 5.09 17c0-1.633.324-3.191.91-4.613a4.706 4.706 0 1 0 6.578-6.578c1.422-.587 2.98-.91 4.614-.91Z" fill="url(#ajb)"/></g><defs><linearGradient id="ajb" x1="1215.26" y1="2425.23" x2="1215.26" y2="4.898" gradientUnits="userSpaceOnUse"><stop stop-color="#7400E1"/><stop offset="1" stop-color="#4000BF"/></linearGradient><clipPath id="aja"><path fill="#fff" d="M0 0h34v34H0z"/></clipPath></defs></svg><svg fill="none" viewBox="0 0 26 34" id="java" xmlns="http://www.w3.org/2000/svg"><g clip-path="url(#aka)"><path d="M9.91 17.473s-1.297.754.923 1.01c2.69.306 4.064.262 7.028-.299 0 0 .779.489 1.867.912-6.644 2.848-15.037-.165-9.818-1.623Zm-.812-3.716s-1.455 1.077.767 1.307c2.873.296 5.142.32 9.068-.436 0 0 .543.55 1.396.852-8.032 2.349-16.98.185-11.23-1.723Z" fill="#5382A1"/><path d="M14.144 16.264c1.637 1.885-.43 3.581-.43 3.581s4.157-2.146 2.248-4.833c-1.783-2.505-3.15-3.75 4.252-8.044 0 0-11.62 2.902-6.07 9.296Z" fill="#E76F00"/><path d="M22.932 29.032s.96.79-1.057 1.402c-3.835 1.162-15.962 1.513-19.33.047-1.212-.527 1.06-1.258 1.774-1.412.745-.161 1.17-.131 1.17-.131-1.346-.949-8.704 1.863-3.737 2.668 13.546 2.197 24.693-.99 21.18-2.574ZM8.736 18.718s-6.168 1.465-2.184 1.997c1.682.225 5.035.174 8.159-.088 2.552-.215 5.116-.673 5.116-.673s-.9.386-1.552.83c-6.264 1.648-18.364.881-14.88-.804 2.946-1.424 5.34-1.262 5.34-1.262ZM19.8 24.903c6.368-3.31 3.424-6.489 1.369-6.06-.504.104-.729.195-.729.195s.188-.293.545-.42c4.065-1.429 7.191 4.216-1.313 6.452 0 0 .099-.088.128-.167Z" fill="#5382A1"/><path d="M15.963.036s3.526 3.528-3.345 8.953c-5.51 4.351-1.257 6.832-.002 9.667-3.217-2.902-5.577-5.457-3.993-7.834 2.324-3.49 8.762-5.182 7.34-10.786Z" fill="#E76F00"/><path d="M9.362 33.869c6.112.391 15.497-.217 15.72-3.11 0 0-.428 1.097-5.052 1.968-5.216.981-11.65.867-15.467.238 0 0 .782.646 4.799.904Z" fill="#5382A1"/></g><defs><clipPath id="aka"><path fill="#fff" d="M0 0h25.156v34H0z"/></clipPath></defs></svg><svg fill="none" viewBox="0 0 34 34" id="js" xmlns="http://www.w3.org/2000/svg"><path d="M2.125 2.125h29.75v29.75H2.125V2.125Z" fill="#F5DE19"/><path d="M22.11 25.367a3.05 3.05 0 0 0 2.762 1.7c1.158 0 1.899-.579 1.899-1.381 0-.956-.76-1.298-2.036-1.856l-.699-.3c-2.019-.86-3.357-1.936-3.357-4.212 0-2.096 1.593-3.693 4.093-3.693a4.133 4.133 0 0 1 3.976 2.239l-2.185 1.397a1.902 1.902 0 0 0-1.795-1.198 1.216 1.216 0 0 0-1.338 1.198c0 .838.52 1.178 1.72 1.7l.699.3c2.375 1.019 3.718 2.057 3.718 4.391 0 2.517-1.977 3.896-4.632 3.896a5.377 5.377 0 0 1-5.095-2.859l2.27-1.322Zm-9.876.242c.439.78.838 1.438 1.799 1.438.918 0 1.498-.36 1.498-1.756v-9.506h2.795v9.543c0 2.894-1.7 4.212-4.174 4.212a4.34 4.34 0 0 1-4.194-2.55l2.276-1.38Z" fill="#000"/></svg><svg fill="none" viewBox="0 0 24 24" id="json" xmlns="http://www.w3.org/2000/svg"><g clip-path="url(#ama)"><path d="M30.364 42V8L35 42V8M1 8h4.636v27.625c0 1.69-.244 3.312-.679 4.508C4.523 41.328 3.933 42 3.318 42s-1.204-.672-1.639-1.867C1.244 38.937 1 37.316 1 35.625V33.5m9.273 4.25c0 1.127.163 2.208.452 3.005.29.797.683 1.245 1.093 1.245h1.546c.41 0 .803-.448 1.092-1.245.29-.797.453-1.878.453-3.005v-8.5c0-1.127-.163-2.208-.453-3.005-.29-.797-.682-1.245-1.092-1.245h-1.546c-.41 0-.803-.448-1.093-1.245-.29-.797-.452-1.878-.452-3.005v-8.5c0-1.127.163-2.208.452-3.005.29-.797.683-1.245 1.093-1.245h1.546c.41 0 .803.448 1.092 1.245.29.797.453 1.878.453 3.005M22.636 8c.82 0 1.606.896 2.186 2.49.58 1.594.905 3.756.905 6.01v17c0 2.254-.325 4.416-.905 6.01-.58 1.595-1.366 2.49-2.186 2.49-.82 0-1.606-.895-2.185-2.49-.58-1.594-.905-3.756-.905-6.01v-17c0-2.254.325-4.416.905-6.01C21.03 8.896 21.817 8 22.636 8Z" stroke="#000" stroke-width="2" stroke-linecap="round" stroke-linejoin="round"/></g><defs><clipPath id="ama"><path fill="#fff" d="M0 0h24v24H0z"/></clipPath></defs></svg><svg fill="none" viewBox="0 0 16 16" id="kotlin" xmlns="http://www.w3.org/2000/svg"><path d="M15 15H1V1h14L8 8l7 7Z" fill="url(#ana)"/><defs><linearGradient id="ana" x1="14.968" y1="1.032" x2=".971" y2="15.029" gradientUnits="userSpaceOnUse"><stop stop-color="#E44857"/><stop offset=".47" stop-color="#9D4B9D"/><stop offset="1" stop-color="#6D5FAA"/></linearGradient></defs></svg><svg fill="none" viewBox="0 0 34 34" id="kubernetes" xmlns="http://www.w3.org/2000/svg"><g clip-path="url(#aoa)"><path d="M16.882.508c-.3.015-.595.09-.866.22L4.196 6.374a2.257 2.257 0 0 0-1.223 1.52L.057 20.583a2.224 2.224 0 0 0 .435 1.897l8.181 10.172a2.256 2.256 0 0 0 1.768.844l13.12-.003a2.277 2.277 0 0 0 1.767-.842l8.178-10.174a2.233 2.233 0 0 0 .437-1.897l-2.92-12.686A2.233 2.233 0 0 0 29.8 6.372L17.978.727a2.277 2.277 0 0 0-1.096-.22Z" fill="#326CE5"/><path d="M16.994 4.82v.002c-.391.004-.708.355-.708.79l.001.019c0 .059-.003.13-.001.182.01.25.064.443.097.673.045.377.057.677.06.98l.009-.044a10.886 10.886 0 0 0-.031-.636c.037.326.063.628.049.9-.004-.085-.016-.179-.017-.26l-.01.044c0 .092.025.21.018.298-.016.077-.077.131-.124.197l-.006.032c.046-.06.094-.118.122-.186a.775.775 0 0 1-.188.291c.021-.033.039-.07.064-.102l.007-.032c-.039.054-.06.121-.103.162l-.001.002-.017.297a9.111 9.111 0 0 0-5.896 2.834 10.554 10.554 0 0 1-.252-.178l-.001-.001h-.003c-.127.017-.252.055-.417-.04-.315-.213-.603-.507-.952-.861-.16-.17-.276-.331-.466-.494-.043-.038-.109-.088-.157-.126a.85.85 0 0 0-.497-.187.687.687 0 0 0-.568.251c-.246.308-.167.78.174 1.052l.011.007c.046.038.104.087.147.119.202.149.387.225.587.343.423.261.773.478 1.05.738.107.114.126.316.141.405v.002l.225.2a9.163 9.163 0 0 0-1.443 6.377l-.293.086v.002c-.08.101-.19.258-.302.305-.363.114-.773.156-1.267.208-.232.019-.432.008-.68.055-.054.01-.13.03-.189.043l-.006.002-.01.003c-.42.101-.69.488-.603.869.087.38.497.612.92.521l.01-.001.014-.005c.058-.013.132-.027.183-.041.243-.065.418-.16.636-.243.467-.168.855-.309 1.232-.363.154-.012.32.096.403.143h.002l.306-.052a9.214 9.214 0 0 0 4.076 5.09l-.127.306v.003c.046.12.097.28.063.396-.137.355-.372.73-.64 1.15-.129.193-.262.343-.38.565-.028.054-.063.135-.09.19-.183.393-.049.845.304 1.014.354.171.794-.01.984-.401l.002-.003v-.002c.027-.055.064-.127.088-.18.1-.23.134-.426.204-.648.187-.47.29-.963.546-1.269.07-.082.183-.114.302-.146l.002-.002.16-.287a9.149 9.149 0 0 0 6.523.016c.045.08.127.23.15.268v.002l.002.001c.122.04.252.06.359.217.192.328.323.718.484 1.188.07.221.105.419.206.649.023.053.06.126.087.182.19.393.631.574.987.403.352-.17.486-.621.303-1.013-.027-.056-.064-.138-.092-.191-.117-.222-.25-.371-.38-.565-.268-.418-.49-.766-.627-1.121-.056-.182.01-.293.055-.413l.001-.004-.002-.002a.263.263 0 0 1-.024-.045 1.619 1.619 0 0 1-.032-.077c-.021-.056-.043-.117-.06-.158a9.21 9.21 0 0 0 4.075-5.126c.092.015.247.041.298.052h.005c.107-.071.202-.162.392-.147.377.055.764.195 1.232.363.216.083.392.18.635.245.052.014.125.027.183.04.004 0 .008.003.014.004h.01c.423.091.834-.14.921-.52.087-.382-.184-.768-.604-.869-.06-.014-.146-.037-.205-.049-.247-.046-.447-.035-.68-.054-.494-.052-.903-.094-1.267-.208-.145-.057-.25-.232-.302-.305l-.002-.002-.283-.082c.152-1.1.101-2.218-.148-3.3a9.163 9.163 0 0 0-1.324-3.062l.248-.222.001-.001v-.003c.012-.128.002-.258.132-.397.278-.26.628-.477 1.051-.738.2-.118.386-.194.588-.344.046-.033.108-.087.156-.125.342-.273.421-.743.175-1.052-.246-.308-.722-.336-1.063-.064-.049.038-.114.088-.158.126-.19.164-.308.325-.468.494-.348.355-.637.65-.952.863-.135.078-.334.05-.426.045h-.002l-.267.191a9.277 9.277 0 0 0-5.867-2.834 17.083 17.083 0 0 1-.017-.312V8.12l-.002-.002c-.093-.088-.202-.162-.23-.35-.03-.38.021-.789.08-1.282.034-.23.088-.422.098-.673.002-.058-.002-.14-.002-.202 0-.437-.32-.792-.714-.792h-.005ZM7.65 9.396Zm8.457.923-.209 3.7-.015.008v.003c-.001.014-.004.026-.006.038a.638.638 0 0 1-.102.283.624.624 0 0 1-.183.176c-.019.012-.04.021-.06.031a.64.64 0 0 1-.231.06c-.012.001-.023.004-.035.004-.014 0-.025-.006-.038-.007a.611.611 0 0 1-.25-.08c-.013-.008-.026-.012-.037-.02l-.002.007.001-.006c-.011-.007-.027-.004-.038-.013l-.003-.002-.006.003-3.034-2.15.077-.07c.267-.255.554-.49.857-.7.064-.044.126-.089.19-.13.323-.211.662-.396 1.014-.552.064-.029.13-.055.194-.082.348-.143.708-.26 1.074-.348.032-.008.063-.018.096-.025.153-.034.308-.055.463-.08l.002-.006h.001l-.002.007c.095-.015.188-.037.282-.049Zm1.787 0c.052.007.103.019.155.026a7.428 7.428 0 0 1 2.266.723A7.432 7.432 0 0 1 22 12.25c.038.036.078.069.116.105l-3.014 2.137-.01-.004-.003.002c-.012.009-.025.012-.037.02a.622.622 0 0 1-.235.089c-.02.003-.04.008-.06.008a.624.624 0 0 1-.334-.08.624.624 0 0 1-.198-.173c-.014-.018-.024-.039-.035-.058a.64.64 0 0 1-.076-.236c-.002-.014-.007-.027-.008-.042v-.003l-.003-.002-.21-3.693Zm7.35 3.248Zm-14.497.183 2.77 2.478-.002.015.002.002c.25.217.285.592.078.85-.007.01-.018.015-.026.024a.624.624 0 0 1-.262.173c-.011.004-.02.011-.032.015h-.004l-.003.013-3.55 1.025c-.006-.05-.006-.098-.01-.148a7.173 7.173 0 0 1 .113-2.074 7.183 7.183 0 0 1 .856-2.247c.024-.042.045-.085.07-.126Zm12.485.002c.026.042.047.086.072.128a7.418 7.418 0 0 1 .798 1.95c.012.047.028.093.038.14.183.797.229 1.593.154 2.363l-3.569-1.028-.003-.015-.003-.002c-.012-.003-.023-.009-.034-.013a.636.636 0 0 1-.255-.163.623.623 0 0 1-.13-.219c-.008-.02-.012-.042-.017-.063a.638.638 0 0 1-.008-.237l.005-.039c.003-.012.01-.022.013-.034a.61.61 0 0 1 .16-.265c.009-.008.014-.02.024-.028l.002-.003-.002-.008 2.755-2.464Zm2.451.878Zm-9.25 1.793h1.133l.703.88-.252 1.098-1.017.489-1.02-.49-.253-1.099.706-.878Zm3.647 3.027a.6.6 0 0 1 .141.01l.004.001.006-.008 3.673.621c-.017.048-.039.094-.057.141a7.446 7.446 0 0 1-.519 1.085 7.427 7.427 0 0 1-.69.985 7.412 7.412 0 0 1-1.547 1.393c-.043.029-.082.06-.125.088l-1.425-3.445.004-.005-.001-.003c-.006-.012-.007-.025-.012-.037a.637.637 0 0 1-.036-.236c.001-.021.002-.043.005-.064a.623.623 0 0 1 .089-.237c.012-.019.026-.036.04-.054a.637.637 0 0 1 .18-.153c.012-.007.021-.015.033-.02a.613.613 0 0 1 .237-.062Zm-6.192.015h.003l.025.003a.623.623 0 0 1 .56.454l.008.024c.03.127.018.26-.034.38l-.001.003.01.013-1.41 3.41c-.041-.026-.08-.056-.12-.083a7.446 7.446 0 0 1-.938-.748 7.427 7.427 0 0 1-.805-.892 7.428 7.428 0 0 1-1.008-1.8c-.018-.048-.04-.094-.058-.143l3.64-.617.007.008.004-.002a.642.642 0 0 1 .117-.01Zm3.09 1.498c.014 0 .03.004.045.004a.609.609 0 0 1 .2.042c.014.006.03.008.043.015a.61.61 0 0 1 .277.264l.002.003h.014l1.795 3.244c-.074.024-.148.046-.222.068-.088.026-.176.05-.265.074-.075.02-.15.04-.226.057l-.1.019a7.3 7.3 0 0 1-1.11.149c-.074.004-.148.01-.223.011a7.3 7.3 0 0 1-1.147-.059c-.074-.01-.149-.023-.223-.035a7.293 7.293 0 0 1-1.077-.259l-.102-.03 1.791-3.237h.003l.002-.004c.007-.012.017-.022.025-.034a.636.636 0 0 1 .23-.216.637.637 0 0 1 .225-.07c.015 0 .028-.005.042-.006Zm3.125 5.274Z" fill="#fff"/></g><defs><clipPath id="aoa"><path fill="#fff" d="M0 0h34v34H0z"/></clipPath></defs></svg><svg viewBox="0 0 32 32" id="leetcode" xmlns="http://www.w3.org/2000/svg"><path d="m21.469 23.907-3.595 3.473c-.624.625-1.484.885-2.432.885s-1.807-.26-2.432-.885l-5.776-5.812c-.62-.625-.937-1.537-.937-2.485 0-.952.317-1.812.937-2.432l5.76-5.844c.62-.619 1.5-.859 2.448-.859s1.808.26 2.432.885l3.595 3.473c.687.688 1.823.663 2.536-.052.708-.713.735-1.848.047-2.536l-3.473-3.511a6.793 6.793 0 0 0-3.261-1.787l3.287-3.333c.688-.687.667-1.823-.047-2.536s-1.849-.735-2.536-.052L4.553 13.968c-1.307 1.312-1.989 3.113-1.989 5.113 0 1.996.683 3.86 1.989 5.168l5.797 5.812c1.307 1.307 3.115 1.937 5.115 1.937 1.995 0 3.801-.683 5.109-1.989l3.479-3.521c.688-.683.661-1.817-.052-2.531s-1.849-.74-2.531-.052zm6.28-6.558H14.218c-.932 0-1.692.801-1.692 1.791 0 .991.76 1.797 1.692 1.797h13.531c.933 0 1.693-.807 1.693-1.797 0-.989-.76-1.791-1.693-1.791z"/></svg><svg fill="none" viewBox="0 0 90 19" id="logo" xmlns="http://www.w3.org/2000/svg"><path d="M.744 9.36c0-1.04.184-2.056.552-3.048a8.885 8.885 0 0 1 1.656-2.736 7.721 7.721 0 0 1 2.64-1.968c1.04-.496 2.224-.744 3.552-.744 1.568 0 2.92.344 4.056 1.032 1.152.688 2.008 1.584 2.568 2.688l-2.544 1.752c-.288-.64-.664-1.144-1.128-1.512a3.958 3.958 0 0 0-1.488-.792 5.36 5.36 0 0 0-1.56-.24c-.832 0-1.56.168-2.184.504a4.886 4.886 0 0 0-1.536 1.32 5.8 5.8 0 0 0-.936 1.824 7.308 7.308 0 0 0-.288 2.016c0 .752.12 1.48.36 2.184.24.688.576 1.304 1.008 1.848.448.528.976.952 1.584 1.272a4.595 4.595 0 0 0 2.04.456c.528 0 1.064-.088 1.608-.264a4.56 4.56 0 0 0 1.512-.84c.464-.384.824-.88 1.08-1.488l2.712 1.56c-.336.848-.888 1.568-1.656 2.16a8.078 8.078 0 0 1-2.544 1.344A9.12 9.12 0 0 1 9 18.144c-1.216 0-2.328-.248-3.336-.744a8.746 8.746 0 0 1-2.616-2.016 10.197 10.197 0 0 1-1.704-2.832 8.95 8.95 0 0 1-.6-3.192ZM29.605 18H26.39v-7.056c0-.976-.192-1.704-.576-2.184-.368-.48-.88-.72-1.536-.72-.384 0-.792.112-1.224.336a4.049 4.049 0 0 0-1.176.936 3.682 3.682 0 0 0-.744 1.344V18h-3.216V.48h3.216v7.272A4.955 4.955 0 0 1 23.03 5.88a5.264 5.264 0 0 1 2.616-.672c.816 0 1.48.144 1.992.432.512.272.912.648 1.2 1.128.288.464.488.992.6 1.584.112.576.168 1.176.168 1.8V18Zm8.628.24c-1.008 0-1.92-.168-2.735-.504a6.425 6.425 0 0 1-2.088-1.416 6.756 6.756 0 0 1-1.344-2.064 6.778 6.778 0 0 1-.457-2.472c0-1.2.264-2.296.792-3.288a6.197 6.197 0 0 1 2.304-2.376c1.009-.608 2.193-.912 3.553-.912 1.375 0 2.551.304 3.527.912a5.902 5.902 0 0 1 2.233 2.376c.527.976.791 2.032.791 3.168 0 .192-.008.392-.023.6-.017.192-.032.352-.049.48h-9.72c.064.64.248 1.2.552 1.68.32.48.72.848 1.2 1.104a3.59 3.59 0 0 0 1.584.36c.64 0 1.24-.152 1.8-.456.577-.32.968-.736 1.177-1.248l2.76.768a5.163 5.163 0 0 1-1.32 1.704 6.312 6.312 0 0 1-1.992 1.176c-.768.272-1.617.408-2.544.408Zm-3.287-7.536h6.576c-.064-.64-.248-1.192-.553-1.656a2.936 2.936 0 0 0-1.151-1.104 3.204 3.204 0 0 0-1.608-.408c-.577 0-1.105.136-1.584.408a3.165 3.165 0 0 0-1.152 1.104c-.288.464-.464 1.016-.528 1.656Zm19.31-2.496c-.975 0-1.847.192-2.615.576-.768.368-1.32.904-1.656 1.608V18h-3.216V5.424h2.952v2.688c.448-.864 1.016-1.544 1.704-2.04s1.416-.768 2.184-.816h.408c.096 0 .176.008.24.024v2.928ZM71.65 5.424h3.048L69.442 18h-2.688l-2.112-5.4-2.064 5.4h-2.712L54.634 5.424h3.024l3.744 9.504 1.464-4.104-2.184-5.376h2.664l1.296 3.84 1.32-3.84h2.664l-2.184 5.376 1.488 4.104 3.72-9.504ZM80.236.96h3.36L89.86 18h-3.408l-1.584-4.248h-5.952L77.356 18h-3.408L80.236.96Zm4.032 10.464-2.352-7.032-2.448 7.032h4.8Z" fill="#fff"/></svg><svg fill="none" viewBox="0 0 16 16" id="lua" xmlns="http://www.w3.org/2000/svg"><g clip-path="url(#ara)"><path d="M14.12.088a1.793 1.793 0 1 0 .002 3.586A1.793 1.793 0 0 0 14.12.088ZM8 1.882a6.122 6.122 0 0 0-6.12 6.12A6.122 6.122 0 0 0 8 14.122a6.122 6.122 0 0 0 6.12-6.12A6.122 6.122 0 0 0 8 1.882Z" fill="navy"/><path d="M10.536 3.674a1.793 1.793 0 0 0 0 3.584 1.793 1.793 0 0 0 0-3.584Zm-6.69 3.371v4.015h2.496v-.451H4.359V7.045h-.512Zm7.199 1.046c-.42 0-.766.122-.959.337-.132.149-.186.314-.198.6h.464c.038-.353.248-.512.677-.512.413 0 .645.154.645.43v.12c0 .194-.115.276-.479.32-.649.083-.749.105-.925.176-.336.137-.507.396-.507.77 0 .525.364.855.947.855.363 0 .656-.127.98-.425.033.293.176.425.474.425.094 0 .165-.01.314-.05v-.346a.373.373 0 0 1-.1.012c-.16 0-.248-.083-.248-.227V8.88c0-.512-.375-.788-1.085-.788Zm-4.218.083V10.4c0 .48.358.788.92.788.424 0 .693-.15.963-.53v.403h.413V8.174h-.457V9.81c0 .59-.31.976-.788.976-.363 0-.595-.222-.595-.568V8.174h-.456Zm4.847 1.46v.516c0 .156-.046.249-.183.376a.976.976 0 0 1-.683.258c-.358 0-.568-.17-.568-.463 0-.302.205-.458.695-.529.485-.066.585-.088.739-.159Z" fill="#fff"/><path d="M7.717 0a8 8 0 0 0-.697.054l.023.183c.226-.028.453-.046.68-.053L7.717 0Zm.698.006-.01.183c.228.012.454.034.68.065L9.11.072a8.003 8.003 0 0 0-.695-.066ZM6.332.17a7.876 7.876 0 0 0-.676.174l.053.176a7.75 7.75 0 0 1 .66-.171l-.037-.18ZM9.797.2l-.042.178c.222.051.442.112.658.182l.057-.175A7.994 7.994 0 0 0 9.797.2Zm-4.8.378a8.003 8.003 0 0 0-.635.29l.084.164a7.75 7.75 0 0 1 .62-.284l-.069-.17Zm6.127.051-.072.17c.21.088.415.186.617.292l.085-.162a8.007 8.007 0 0 0-.63-.3Zm-7.369.584a8 8 0 0 0-.575.396l.11.147c.182-.137.37-.266.563-.387l-.098-.156Zm-1.113.841a8 8 0 0 0-.498.49l.134.125c.155-.166.318-.326.487-.478l-.123-.137Zm-.952 1.02a7.994 7.994 0 0 0-.405.57l.153.1c.125-.192.257-.377.397-.556l-.145-.113Zm-.76 1.17c-.11.206-.21.416-.301.63l.169.073c.089-.21.187-.415.294-.616L.93 4.244Zm14.203.122-.164.083c.103.203.197.41.283.621l.17-.068a7.997 7.997 0 0 0-.29-.636ZM.384 5.53a7.875 7.875 0 0 0-.186.673l.18.04c.05-.22.11-.44.181-.657L.384 5.53Zm15.271.13-.175.054c.066.218.123.439.17.661l.18-.038a7.992 7.992 0 0 0-.175-.676ZM.072 6.89a8 8 0 0 0-.066.695l.183.009c.012-.227.033-.454.065-.68l-.182-.025Zm15.873.135-.182.023c.028.226.046.453.053.68L16 7.721a7.989 7.989 0 0 0-.055-.697ZM.184 8.277 0 8.282a8 8 0 0 0 .054.696l.183-.022a7.875 7.875 0 0 1-.053-.68Zm15.627.133a7.886 7.886 0 0 1-.065.68l.182.025c.032-.23.054-.462.066-.695l-.183-.01ZM.349 9.63l-.18.038c.048.228.107.453.175.676l.175-.054a7.748 7.748 0 0 1-.17-.66Zm15.273.13a7.715 7.715 0 0 1-.182.658l.175.057c.072-.222.134-.446.186-.673l-.179-.041ZM.748 10.933l-.17.07c.087.215.184.427.29.634l.163-.083a7.755 7.755 0 0 1-.283-.62Zm14.453.124c-.089.21-.187.415-.294.616l.162.086c.11-.205.21-.416.301-.63l-.169-.072Zm-13.833 1.09-.156.098c.124.197.256.389.397.575l.146-.11a7.87 7.87 0 0 1-.387-.563Zm13.192.113a7.82 7.82 0 0 1-.397.555l.145.114c.143-.184.279-.373.406-.569l-.154-.1Zm-12.37.975-.137.123c.156.173.32.34.49.498l.125-.134a7.853 7.853 0 0 1-.478-.487Zm11.53.099a7.87 7.87 0 0 1-.487.478l.123.137c.173-.156.34-.32.498-.49l-.134-.125Zm-10.533.831-.113.145c.183.143.373.279.568.406l.1-.154a7.852 7.852 0 0 1-.555-.397Zm9.52.082c-.182.137-.37.266-.562.387l.098.155a8.02 8.02 0 0 0 .575-.396l-.111-.146Zm-8.377.662-.087.162c.206.109.416.21.63.3l.072-.168a7.738 7.738 0 0 1-.615-.294Zm7.222.062c-.203.103-.41.198-.621.283l.069.17c.216-.087.428-.184.635-.29l-.083-.163Zm-5.968.47-.057.175c.222.072.446.134.673.187l.042-.18a7.791 7.791 0 0 1-.658-.181Zm4.704.041a7.75 7.75 0 0 1-.66.17l.037.18c.228-.048.454-.106.677-.175l-.054-.175Zm-3.375.265-.026.182c.23.032.463.054.695.066l.01-.183a7.883 7.883 0 0 1-.68-.065Zm2.041.018a7.857 7.857 0 0 1-.68.053l.007.183c.232-.008.465-.026.696-.054l-.023-.182Z" fill="gray"/></g><defs><clipPath id="ara"><path fill="#fff" d="M0 0h16v16H0z"/></clipPath></defs></svg><svg fill="none" viewBox="0 0 34 34" id="maven" xmlns="http://www.w3.org/2000/svg"><g clip-path="url(#asa)"><path d="M26.031 0H7.97A7.969 7.969 0 0 0 0 7.969V26.03A7.969 7.969 0 0 0 7.969 34H26.03A7.969 7.969 0 0 0 34 26.031V7.97A7.969 7.969 0 0 0 26.031 0Z" fill="#F4F2ED"/><path d="M7.083 3.586c-.046.108-.09.249-.13.419l-.03.132-.029.143-.027.154-.026.163-.025.173-.023.183-.022.191-.02.2-.01.104-.017.214-.016.221-.014.23-.006.118 1.421.688c-.021-.83.005-1.615.08-2.336l.015-.129-.01.118-.013.195-.005.093-.008.211-.002.12-.003.265v.222l.003.244.004.173.01.279.008.197.01.207.006.107c.265-.216.582-.5.912-.81l.221-.21.112-.107.222-.216.219-.218.214-.216.205-.212a4.437 4.437 0 0 0-.7-1.055l-.076-.08a3.192 3.192 0 0 0-.146-.14l-.07-.061-.067-.055a2.672 2.672 0 0 0-.065-.05l-.061-.044-.059-.04-.08-.049-.072-.04-.08-.04-.06-.026-.11-.04-.08-.025-.078-.022-.06-.015-.064-.014-.034-.007-.07-.013-.076-.01c-.393-.05-.9.002-1.118.516Z" fill="url(#asb)"/><path d="M8.48 11.115c-.064-.465-.124-.93-.18-1.396-.043-.374-.079-.749-.109-1.125l-.025-.332v-.025c-.032-.44-.053-.88-.064-1.32l-1.42-.683-.003.086-.01.18c-.014.34-.024.702-.027 1.082-.004.427 0 .874.008 1.342.01.43.028.878.051 1.334.017.293.036.588.058.887l.026.346 1.898.961-.067-.448-.136-.889Z" fill="url(#asc)"/><path d="m11.226 22.137.029.101.188.64.083.275.09.291.03.105a.802.802 0 0 0 .018.051l.306.98c.271-.056.601.045.95.197l.14.064a1.557 1.557 0 0 0-1.037-.564c1.163-.775 1.928-1.774 1.82-2.965a4.132 4.132 0 0 0-.046-.325c-.018.44-.193.762-.701 1.106l-.063.041c.526-.924.67-1.552.608-2.363a7.682 7.682 0 0 0-.075-.616c-.168 1.208-.816 1.99-1.765 2.452l-.575.53Z" fill="url(#asd)"/><path d="m10.546 20.72-.12-.453-.244-.916a89.858 89.858 0 0 1-.336-1.34c-.11-.453-.217-.908-.323-1.363-.108-.465-.21-.931-.308-1.398l-.096-.463-.185-.925a19.946 19.946 0 0 1-.092-.501c-.053-.285-.103-.572-.152-.86l-.01-.046-1.887-.963.006.06v.03c.039.428.076.862.126 1.298.05.443.106.887.172 1.336.056.379.116.756.178 1.133l.042.228a26.566 26.566 0 0 0 .881 3.487l.073.211.152.42c.179.486.377.964.595 1.433l1.908.966c-.102-.35-.196-.707-.3-1.068l-.052-.203-.028-.103Z" fill="url(#ase)"/><path d="M9.046 21.192c.23.491.48.968.757 1.425l.154.248a2.182 2.182 0 0 0-.632-.125l-.11-.006-.054-.002-.106-.002h-.15l-.132.004-.112.006-.157.013h-.002c.965.334 1.81.744 2.344 1.365-.212.234-.609.411-1.108.556.372.04.655.024.859-.01l.082-.015a2.62 2.62 0 0 0 .038-.008l.069-.017.059-.017.072-.026.036-.015c-.306.256-.498.691-.657 1.18l-.055.174c-.01.029-.018.058-.027.088.406-.664.808-1.103 1.2-1.27.438 1.451.945 2.996 1.5 4.608l.26.75.267.757a.574.574 0 0 0 .09-.539l-.179-.502-.202-.587-.313-.93-.257-.78-.284-.88-.271-.859-.25-.805-.182-.602-.15-.498c-.02-.065-.037-.132-.057-.199l-.056-.185-.161-.555-.164-.572-.073-.264-.003-.004-1.908-.966c.004.016.01.03.015.044l.01.022Z" fill="url(#asf)"/><path d="m8.905 12.493.034.185.07.38.207 1.06.076.368.11.521.058.266c.056.264.116.532.18.805l.129.556.129.541.067.276.139.56.138.546a74.06 74.06 0 0 0 .392 1.48l.198.723.15.53.155.543.08.275c.001.01.003.021.009.029l.575-.53-.014.005-.03.016c.683-.645 1.268-1.938 1.402-3.102a7.446 7.446 0 0 0-.018-1.73 11.888 11.888 0 0 0-.278-1.48 18.988 18.988 0 0 0-.423-1.451 2.878 2.878 0 0 1-.44.634l-.1.109-.033.035-.073.073c.504-.783.564-1.624.415-2.497a3.163 3.163 0 0 1-.57.987c-.038.046-.083.091-.128.136l-.022.02-.014.012a3.506 3.506 0 0 0 .4-.923l.013-.056c.02-.087.034-.175.047-.263l.02-.17c.007-.1.009-.202.004-.306l-.013-.192a.548.548 0 0 0-.005-.043l-.02-.123a8.772 8.772 0 0 0-.137-.67l-.042-.161-.037-.137-.049-.162-.063-.19a1.48 1.48 0 0 0-.02-.054l-.039-.096a2.255 2.255 0 0 0-.035-.08l-.031-.065a.543.543 0 0 1-.024.076l-.018.039c-.119.279-.395.661-.647.93-.004.003-.008.006-.009.013l-.052.051a.843.843 0 0 0-.026.03l.01-.02-1.813 1.66c.015.014.017.024.016.031Z" fill="url(#asg)"/><path d="M8.204 6.885c.007.133.016.27.026.414l.022.294.013.153.026.315.015.163.004.053.005.025c.015.161.032.328.051.5l.04.35.046.365.075.57c.035.258.074.526.116.805l.033.212c.033.216.069.437.107.663l.12.699 1.813-1.66c.378-.685.46-1.111.455-1.641a7.621 7.621 0 0 0-.013-.331l-.008-.115c-.03-.464-.085-.956-.164-1.431-.074-.46-.166-.903-.27-1.282a6.765 6.765 0 0 0-.208-.65 7.395 7.395 0 0 0-.2-.452l-.205.21-.106.106-.217.216-.22.217-.223.214-.11.106-.22.206c-.29.269-.567.514-.803.706" fill="url(#ash)"/><path d="M25.659 3.941a2.175 2.175 0 0 0-.19.09l-.105.059a5.04 5.04 0 0 0-.233.143l-.127.084-.132.092-.14.1-.144.11a6.35 6.35 0 0 0-.075.057l-.154.12-.159.128-.164.135-.169.143-.174.15-.178.156-.183.164-.093.084.598 1.684a20.584 20.584 0 0 1 1.934-1.828l.224-.182.016-.012-.154.125-.151.13-.164.15-.156.145-.13.126-.094.091-.203.204-.167.171-.24.252-.127.137-.132.145-.208.23-.145.164c.15.014.312.026.486.037l.267.014.281.012.292.009.298.006.303.004.153.001H26.477l.3-.003.148-.002.29-.006c.238-.709.293-1.279.274-1.705l-.006-.108-.01-.1-.005-.049-.013-.091-.014-.085-.008-.04-.017-.074-.017-.068-.017-.062-.017-.054-.032-.09-.026-.06-.062-.128-.036-.068-.03-.053-.035-.06-.04-.062-.044-.066-.049-.068c-.272-.368-.738-.781-1.352-.528Z" fill="url(#asi)"/><path d="M20.803 11.114c.317-.425.639-.847.964-1.266a35.98 35.98 0 0 1 2.066-2.414l-.598-1.678-.073.067-.15.138a36.068 36.068 0 0 0-1.403 1.376l-.357.37-.181.189c-.345.367-.685.738-1.02 1.115-.22.251-.44.505-.657.76l-.254.298.764 2.283.302-.414.597-.824Z" fill="url(#asj)"/><path d="m14.255 22.168-.114.21-.3.56-.152.287-.159.305c-.03.057-.06.108-.085.165l-.167.322-.365.71c.298.192.496.608.67 1.075a1.76 1.76 0 0 0-.386-1.277c1.551.3 2.96.103 3.82-.941.078-.097.152-.197.221-.299-.364.34-.762.46-1.449.332l-.077-.015c1.158-.327 1.773-.717 2.367-1.42.15-.179.294-.364.43-.555-1.096.839-2.239.953-3.37.571l-.884-.03Z" fill="url(#ask)"/><path d="m14.774 20.592.322-.566.532-.93c.26-.448.524-.895.794-1.347.271-.452.547-.903.823-1.354.282-.46.57-.916.863-1.37.287-.449.585-.896.876-1.34.106-.16.214-.319.324-.476.185-.273.372-.543.561-.813l.029-.045-.754-2.275-.043.053a.264.264 0 0 1-.024.025c-.309.375-.624.754-.93 1.145a44.26 44.26 0 0 0-.923 1.212c-.255.349-.507.7-.756 1.054l-.148.216a30.614 30.614 0 0 0-1.63 2.676 35.13 35.13 0 0 0-.43.83c-.111.228-.217.46-.322.688a21.523 21.523 0 0 0-.659 1.626l.768 2.294.15-.272.305-.548.153-.278.119-.205Z" fill="url(#asl)"/><path d="M13.252 19.674a17.112 17.112 0 0 0-.523 1.75l-.073.322a2.18 2.18 0 0 0-.306-.48l-.076-.092a2.792 2.792 0 0 0-.04-.045l-.079-.087-.079-.084-.078-.078-.111-.108-.102-.093-.11-.097-.1-.083c.51 1.036.865 2.038.802 2.962-.357.02-.817-.153-1.334-.433.223.272.427.465.599.6l.077.058.037.026.07.047.064.04.06.034.052.027.047.023.04.017a.427.427 0 0 0 .018.007c-.433-.037-.913.146-1.408.397l-.166.086-.167.09c.854-.212 1.527-.246 1.976-.07-.225.426-.447.854-.666 1.282l-.335.661a164.674 164.674 0 0 0-1.535 3.13l-.345.725-.347.736c.237-.032.395-.168.5-.363l.392-.83.36-.745.46-.936.406-.814.402-.796.383-.745.53-1.02.377-.715.13-.243.112-.206.101-.194.155-.285.317-.583.163-.297.15-.271v-.006l-.767-2.293a.347.347 0 0 0-.023.047l-.01.025Z" fill="url(#asm)"/><path d="m20.05 12.561-.12.176-.245.363-.394.594-.281.422-.071.11c-.109.166-.216.332-.323.499l-.329.515c-.223.353-.444.707-.662 1.064l-.17.277c-.278.457-.553.915-.825 1.375l-.322.549a84.48 84.48 0 0 0-.786 1.371l-.489.872-.15.271-.304.554a123.65 123.65 0 0 0-.323.596l.884.03c-.015-.008-.031-.01-.052-.019 1.062.024 2.56-.552 3.593-1.383a8.422 8.422 0 0 0 1.36-1.407c.327-.416.638-.884.953-1.412.29-.49.561-.992.812-1.504-.256.09-.546.14-.858.161l-.167.009c-.037.002-.073.001-.112.002h-.06c1.028-.23 1.745-.859 2.318-1.68-.28.135-.729.301-1.243.342-.067.006-.139.007-.21.007h-.035l-.02-.002a3.96 3.96 0 0 0 1.055-.425l.055-.036c.086-.054.166-.114.247-.174l.15-.121c.118-.102.226-.214.325-.334l.065-.074a.55.55 0 0 0 .03-.039l.08-.114.038-.056c.138-.197.268-.398.391-.604l.046-.077c.059-.102.111-.194.157-.281l.054-.102.081-.165a2.23 2.23 0 0 0 .046-.098l.023-.056.04-.1c.013-.031.023-.06.032-.085l.012-.036a.665.665 0 0 1-.08.041l-.045.018c-.317.13-.844.218-1.26.234-.006 0-.011-.001-.017.003h-.084a.602.602 0 0 0-.044.004l.023-.008-2.778-.104c.002.023-.005.032-.011.037Z" fill="url(#asn)"/><path d="M23.94 7.488c-.099.112-.201.23-.307.354l-.216.254-.225.269-.271.328a.259.259 0 0 0-.017.023c-.16.198-.32.397-.477.598l-.25.322-.128.167-.358.474-.235.315c-.122.164-.243.33-.363.495l-.124.172c-.127.175-.253.351-.377.528l-.258.368-.265.38 2.779.104c.848-.25 1.254-.528 1.67-.958.086-.09.17-.183.252-.278l.085-.098c.356-.41.692-.838 1.005-1.283.306-.43.585-.858.802-1.246.141-.25.258-.481.349-.688.072-.173.138-.347.198-.524l-.288.005-.296.004h-.607l-.152-.002-.302-.004-.299-.007-.146-.004-.287-.01a21.154 21.154 0 0 1-.138-.007l-.268-.014c-.162-.01-.324-.022-.485-.037Z" fill="url(#aso)"/></g><defs><linearGradient id="asb" x1="7.437" y1="5.51" x2="12.044" y2="4.008" gradientUnits="userSpaceOnUse"><stop stop-color="#F69923"/><stop offset=".312" stop-color="#F79A23"/><stop offset=".838" stop-color="#E97826"/></linearGradient><linearGradient id="asc" x1="7.073" y1="30.796" x2="12.726" y2="8.35" gradientUnits="userSpaceOnUse"><stop offset=".323" stop-color="#9E2064"/><stop offset=".63" stop-color="#C92037"/><stop offset=".751" stop-color="#CD2335"/><stop offset="1" stop-color="#E97826"/></linearGradient><linearGradient id="asd" x1="12.143" y1="30.089" x2="15.857" y2="12.001" gradientUnits="userSpaceOnUse"><stop stop-color="#282662"/><stop offset=".095" stop-color="#662E8D"/><stop offset=".788" stop-color="#9F2064"/><stop offset=".949" stop-color="#CD2032"/></linearGradient><linearGradient id="ase" x1="8.043" y1="29.569" x2="16.263" y2="9.579" gradientUnits="userSpaceOnUse"><stop offset=".323" stop-color="#9E2064"/><stop offset=".63" stop-color="#C92037"/><stop offset=".751" stop-color="#CD2335"/><stop offset="1" stop-color="#E97826"/></linearGradient><linearGradient id="asf" x1="10.097" y1="28.645" x2="16.716" y2="20.398" gradientUnits="userSpaceOnUse"><stop stop-color="#282662"/><stop offset=".095" stop-color="#662E8D"/><stop offset=".788" stop-color="#9F2064"/><stop offset=".949" stop-color="#CD2032"/></linearGradient><linearGradient id="asg" x1="10.607" y1="33.056" x2="16.651" y2="4.446" gradientUnits="userSpaceOnUse"><stop offset=".323" stop-color="#9E2064"/><stop offset=".63" stop-color="#C92037"/><stop offset=".751" stop-color="#CD2335"/><stop offset="1" stop-color="#E97826"/></linearGradient><linearGradient id="ash" x1="8.866" y1="40.128" x2="14.554" y2="7.018" gradientUnits="userSpaceOnUse"><stop offset=".323" stop-color="#9E2064"/><stop offset=".63" stop-color="#C92037"/><stop offset=".751" stop-color="#CD2335"/><stop offset="1" stop-color="#E97826"/></linearGradient><linearGradient id="asi" x1="23.947" y1="6.1" x2="29.927" y2="4.506" gradientUnits="userSpaceOnUse"><stop stop-color="#F69923"/><stop offset=".312" stop-color="#F79A23"/><stop offset=".838" stop-color="#E97826"/></linearGradient><linearGradient id="asj" x1="15.13" y1="31.806" x2="27.299" y2="9.511" gradientUnits="userSpaceOnUse"><stop offset=".323" stop-color="#9E2064"/><stop offset=".63" stop-color="#C92037"/><stop offset=".751" stop-color="#CD2335"/><stop offset="1" stop-color="#E97826"/></linearGradient><linearGradient id="ask" x1="11.759" y1="27.022" x2="17.255" y2="17.793" gradientUnits="userSpaceOnUse"><stop stop-color="#282662"/><stop offset=".095" stop-color="#662E8D"/><stop offset=".788" stop-color="#9F2064"/><stop offset=".949" stop-color="#CD2032"/></linearGradient><linearGradient id="asl" x1="13.889" y1="30.227" x2="26.23" y2="9.338" gradientUnits="userSpaceOnUse"><stop offset=".323" stop-color="#9E2064"/><stop offset=".63" stop-color="#C92037"/><stop offset=".751" stop-color="#CD2335"/><stop offset="1" stop-color="#E97826"/></linearGradient><linearGradient id="asm" x1="10.944" y1="28.37" x2="17.712" y2="18.3" gradientUnits="userSpaceOnUse"><stop stop-color="#282662"/><stop offset=".095" stop-color="#662E8D"/><stop offset=".788" stop-color="#9F2064"/><stop offset=".949" stop-color="#CD2032"/></linearGradient><linearGradient id="asn" x1="10.75" y1="30.246" x2="24.976" y2="7.451" gradientUnits="userSpaceOnUse"><stop offset=".323" stop-color="#9E2064"/><stop offset=".63" stop-color="#C92037"/><stop offset=".751" stop-color="#CD2335"/><stop offset="1" stop-color="#E97826"/></linearGradient><linearGradient id="aso" x1="10.797" y1="21.214" x2="19.908" y2="6.199" gradientUnits="userSpaceOnUse"><stop offset=".323" stop-color="#9E2064"/><stop offset=".63" stop-color="#C92037"/><stop offset=".751" stop-color="#CD2335"/><stop offset="1" stop-color="#E97826"/></linearGradient><clipPath id="asa"><path fill="#fff" d="M0 0h34v34H0z"/></clipPath></defs></svg><svg fill="none" viewBox="0 0 40 42" id="mongodb" xmlns="http://www.w3.org/2000/svg"><g filter="url(#ata)" fill-rule="evenodd" clip-rule="evenodd"><path d="M26.178 26.6c.045-.087.088-.163.124-.242.023-.05.059-.06.11-.06.3.01.601.019.902.021.256.003.512-.002.768-.005.289-.003.578-.018.866-.01a2.65 2.65 0 0 1 1.105.257c.414.204.728.515.942.925.134.26.218.543.247.834.046.427.016.845-.12 1.253a2.226 2.226 0 0 1-.93 1.184c-.34.224-.714.356-1.114.431-.424.08-.85.055-1.275.056-.466.002-.932-.008-1.399-.014-.081 0-.093-.016-.071-.094l.02-.072c.045-.142.07-.149.214-.173a.742.742 0 0 0 .29-.11c.048-.032.068-.116.087-.181a.67.67 0 0 0 .018-.18c.007-.91.014-1.819.017-2.728.001-.23-.004-.46-.017-.69-.009-.16-.095-.27-.286-.308-.149-.03-.298-.053-.448-.079l-.05-.016Zm4.27 2.202c-.02-.18-.03-.364-.063-.542a1.86 1.86 0 0 0-.594-1.094c-.532-.473-1.174-.546-1.846-.49-.153.013-.186.066-.188.223-.004.223-.008.446-.008.67v2.122c0 .202.003.403.008.604.007.205.081.38.283.459.317.126.651.14.984.09.532-.082.904-.392 1.154-.857.198-.368.253-.77.27-1.185Zm1.293 2.41a.459.459 0 0 1 .095-.285c.015-.023.067-.022.103-.029l.304-.06c.108-.023.164-.095.18-.2.01-.07.02-.14.02-.211.007-.557.013-1.114.016-1.671.002-.558 0-1.116 0-1.674l-.002-.106c-.011-.18-.098-.273-.276-.299l-.386-.058c-.047-.007-.064-.03-.047-.072.03-.072.058-.147.1-.211.016-.024.069-.034.104-.033.184.003.369.017.553.016l1.605-.01c.309 0 .608.054.885.203a.961.961 0 0 1 .525.756.977.977 0 0 1-.321.904c-.108.1-.248.165-.374.245l-.04.026c.116.043.226.08.334.124.316.129.567.331.7.654.104.255.104.52.042.784-.096.414-.369.689-.723.896a2.331 2.331 0 0 1-1.075.329c-.353.017-.708.01-1.062.015h-.205c-.341-.007-.682-.016-1.024-.025l-.03-.008Zm1.471-1.618h.003c0 .175-.002.35.001.525.002.113-.002.23.023.338.037.163.11.31.294.357.244.064.5.075.748.032.313-.054.562-.21.699-.509.102-.22.117-.455.082-.695a.9.9 0 0 0-.493-.694 1.334 1.334 0 0 0-.585-.167c-.233-.01-.466-.01-.698-.017-.066-.002-.075.032-.075.085.002.248.001.497.001.745Zm.495-1.188c.128-.007.272-.009.415-.023a.632.632 0 0 0 .568-.427c.051-.133.049-.27.05-.409a.798.798 0 0 0-.549-.778c-.264-.094-.537-.096-.81-.088-.112.003-.161.051-.163.163l-.016 1.458c-.001.058.024.083.08.085l.425.019Z" fill="#94795D"/><path d="m5.8 30.931-.02.251h-.513l-.941.014-.03.001c-.046-.005-.127-.005-.13-.018-.013-.075-.008-.153-.005-.23 0-.01.031-.02.049-.025l.244-.054c.152-.04.206-.105.213-.263.008-.177.016-.354.017-.531.003-.436 0-.872.002-1.308 0-.102-.035-.178-.13-.22-.113-.05-.227-.098-.342-.145-.054-.021-.124-.034-.118-.106.006-.074.075-.094.139-.108.266-.061.533-.12.798-.185.085-.021.167-.056.27-.092.005.055.015.108.014.16l-.016.25c0 .028.014.066.035.082.013.01.056-.008.077-.025.227-.172.467-.321.74-.408.425-.135.79-.01 1.044.356.09.129.09.129.215.039.214-.156.437-.293.688-.383.549-.199 1.077.053 1.268.607.07.2.096.408.095.62l-.005 1.407c0 .116.039.182.149.218.124.041.253.069.392.105l-.032.242h-.451c-.357.004-.714.006-1.07.014-.063.002-.08-.014-.082-.072-.01-.186-.012-.186.163-.228l.059-.015c.171-.047.228-.1.23-.273.004-.499.014-1-.011-1.497-.026-.516-.436-.791-.937-.659a1.382 1.382 0 0 0-.449.216c-.046.034-.055.072-.051.13.014.22.022.44.025.66.003.386-.002.771 0 1.157 0 .156.053.216.208.252l.229.053.042.01c.004.073.007.146.003.22-.002.045-.038.05-.077.048-.223-.005-.446-.013-.67-.012-.27 0-.541.008-.812.013h-.064c0-.078-.004-.152.003-.226 0-.018.032-.043.054-.049l.267-.056c.113-.028.168-.086.174-.202.03-.534.052-1.068.002-1.601a.984.984 0 0 0-.087-.305c-.137-.302-.444-.428-.8-.337-.168.043-.32.12-.464.218a.213.213 0 0 0-.1.184c0 .533 0 1.066.003 1.598l.003.205c.003.143.064.219.206.25.091.02.184.034.287.053Z" fill="#50382B"/><path d="M21.86 27.966c.04.2.04.38-.107.517-.146.136-.331.09-.512.06.017.095.036.176.045.258.065.608-.196 1.059-.76 1.317-.213.097-.44.133-.67.152-.115.009-.215.096-.226.19-.011.096.049.195.169.223.141.034.29.044.434.06.312.036.628.052.936.108.466.084.726.49.644.959-.073.416-.315.72-.651.952-.566.392-1.188.507-1.85.307-.379-.115-.646-.364-.738-.767a.512.512 0 0 1 .155-.52c.18-.163.377-.307.565-.46l.061-.061-.07-.05c-.192-.09-.346-.216-.406-.433-.02-.074 0-.122.063-.16.107-.064.212-.129.317-.195.05-.031.098-.063.144-.098.063-.048.057-.084-.017-.111a1.033 1.033 0 0 1-.45-.301c-.2-.24-.257-.525-.24-.826.025-.47.28-.78.695-.979a1.724 1.724 0 0 1 1.491-.036c.186.08.382.097.582.083a.582.582 0 0 0 .396-.189Zm-1.818 3.369c-.37-.004-.487.042-.704.264a.576.576 0 0 0 .001.84c.184.19.414.278.67.305.3.03.593.018.865-.132.29-.16.433-.457.368-.757-.054-.247-.236-.36-.458-.425a2.952 2.952 0 0 0-.742-.095Zm-.727-2.367c.013.103.019.207.042.308.059.26.172.49.432.606.304.137.694.078.827-.35.091-.284.08-.591-.03-.869a.665.665 0 0 0-.242-.314c-.264-.185-.742-.21-.936.198a1.048 1.048 0 0 0-.093.421Z" fill="#4F382B"/><path d="M15.577 27.9c.01.046.03.098.03.15.001.098-.01.197-.015.295v.086l.083-.064c.229-.188.474-.348.76-.435.516-.155 1.031.127 1.2.653.063.2.088.405.09.613.006.464.01.928.014 1.392.002.166.02.196.178.244.09.027.181.047.274.061.05.008.072.028.07.078v.045c-.002.192-.015.201-.201.2-.446 0-.891.003-1.337.006-.133.001-.133.005-.146-.126l-.003-.075c.008-.114.01-.113.122-.129.075-.011.15-.028.222-.047.076-.02.112-.075.122-.15.005-.037.011-.075.011-.113-.006-.507.002-1.014-.026-1.52-.022-.41-.334-.653-.745-.625a1.076 1.076 0 0 0-.55.197c-.11.077-.132.188-.132.307l.012 1.422c.001.104.004.207.014.31.01.113.05.159.16.183.106.023.214.037.327.056l.01.087c.003.203-.018.218-.215.217-.461-.002-.922.001-1.383.006-.072.002-.103-.021-.101-.092l-.001-.03c-.012-.183-.007-.19.166-.22l.082-.016c.188-.043.236-.093.238-.283.01-.603.012-1.206.018-1.81.001-.086-.032-.153-.112-.19l-.342-.144c-.063-.026-.136-.042-.138-.13-.002-.061.064-.116.154-.134.181-.037.364-.067.543-.112.178-.044.352-.104.547-.162Z" fill="#4F372B"/><path d="M25.542 29.477c-.008.563-.154 1.018-.553 1.36-.505.434-1.292.581-1.936.257a1.318 1.318 0 0 1-.608-.626 1.979 1.979 0 0 1-.146-1.325c.104-.452.377-.779.786-.99.42-.218.864-.303 1.331-.189a1.456 1.456 0 0 1 1.1 1.24c.016.107.021.216.026.273Zm-.684.305-.023-.003c0-.053.003-.106 0-.16-.02-.33-.094-.646-.286-.923a.963.963 0 0 0-.752-.44.722.722 0 0 0-.771.546 2.031 2.031 0 0 0 .175 1.6.991.991 0 0 0 .547.47c.476.167.899-.05 1.023-.538.046-.18.059-.368.087-.552Z" fill="#4F382B"/><path d="M13.842 29.52c-.01.404-.105.778-.355 1.103-.267.348-.635.534-1.053.612-.494.093-.958.009-1.356-.323a1.37 1.37 0 0 1-.402-.59 2.031 2.031 0 0 1-.088-1.158c.091-.421.33-.743.698-.96.427-.249.887-.36 1.379-.248.632.144.997.556 1.132 1.18.027.126.03.256.045.384Zm-.692.267-.018-.003v-.076c-.01-.37-.083-.724-.304-1.032a.96.96 0 0 0-.665-.412c-.459-.066-.758.206-.857.576-.13.482-.09.96.111 1.417.125.285.323.508.626.615.474.169.902-.054 1.022-.54.044-.178.058-.363.085-.545Z" fill="#4F372B"/><path d="M24.878 8.91c.326.942.56 1.904.637 2.9.096 1.237.052 2.466-.209 3.682l-.033.097c-.082 0-.165-.01-.245.003-.676.106-1.35.216-2.025.325-.698.114-1.396.222-2.093.343-.247.042-.552-.009-.652.333l-.047.016.033-2.04-.034-4.92.325-.056c.532-.087 1.063-.176 1.595-.26.635-.101 1.27-.2 1.906-.298.28-.043.561-.083.842-.125Z" fill="#439934"/><path d="M19.539 22.554c-.343-.294-.698-.576-1.027-.886-1.768-1.669-3.062-3.632-3.7-6a9.71 9.71 0 0 1-.33-1.986c-.026-.472-.064-.947-.03-1.416.088-1.246.268-2.48.634-3.682l.02-.028c.036.048.087.09.105.143.357 1.05.711 2.103 1.063 3.155 1.108 3.308 2.214 6.616 3.323 9.922.022.065.078.118.118.176l-.176.602Z" fill="#45A538"/><path d="M24.877 8.91c-.28.042-.561.082-.842.125-.635.099-1.27.197-1.905.298-.532.084-1.064.172-1.595.26l-.326.055-.002-.212c-.011-.174-.03-.348-.032-.522l-.036-3.335c-.009-.696-.021-1.391-.035-2.087-.008-.432-.02-.864-.038-1.296-.01-.232-.048-.463-.063-.695-.009-.133.003-.267.006-.401.166.32.328.644.498.963.27.504.698.875 1.085 1.28 1.526 1.602 2.61 3.464 3.285 5.567Z" fill="#46A037"/><path d="m20.21 16.609.048-.017c.1-.34.405-.29.652-.332.697-.12 1.395-.23 2.093-.343.675-.109 1.35-.219 2.025-.325.08-.013.163-.003.245-.003-.126.45-.225.911-.386 1.35-.181.496-.402.98-.635 1.456a9.99 9.99 0 0 1-1.289 1.981c-.39.468-.823.902-1.258 1.329-.241.236-.524.429-.788.641l-.069-.047-.246-.21-.255-.559a8.416 8.416 0 0 1-.283-1.996l.005-.114.035-.492c.012-.169.027-.336.034-.505.025-.604.048-1.21.072-1.814Z" fill="#409433"/><path d="M20.21 16.609c-.024.605-.046 1.21-.072 1.815-.007.169-.022.337-.034.504l-.155.06c-.345-1.016-.69-2.02-1.027-3.027-.559-1.666-1.11-3.334-1.667-5a907.14 907.14 0 0 0-1.36-4.031c-.02-.063-.082-.112-.124-.168l.993-1.826c.034.059.08.114.1.178.46 1.36.919 2.72 1.374 4.082l1.77 5.316c.024.07.063.136.1.215l.136-.158-.034 2.04Z" fill="#4FAA41"/><path d="M15.77 6.762c.043.056.104.105.126.168.456 1.343.91 2.686 1.36 4.031.556 1.666 1.107 3.335 1.666 5 .337 1.007.682 2.011 1.027 3.026l.155-.058-.035.492-.031.113c-.054.54-.1 1.08-.166 1.617-.033.27-.103.534-.156.801-.04-.058-.097-.11-.119-.176-1.11-3.306-2.215-6.614-3.322-9.922A808.767 808.767 0 0 0 15.21 8.7c-.018-.053-.069-.095-.105-.143l.665-1.794Z" fill="#4AA73C"/><path d="m20.244 14.57-.136.157c-.037-.079-.076-.144-.1-.215l-1.77-5.316c-.456-1.362-.914-2.722-1.374-4.082-.021-.064-.066-.12-.1-.178l1.228-1.617c.039.052.094.098.114.156.341.999.68 1.998 1.015 2.999.314.934.623 1.87.941 2.803.021.062.096.106.145.16l.003.211.034 4.921Z" fill="#57AE47"/><path d="M20.207 9.436c-.05-.053-.123-.097-.145-.16-.317-.932-.627-1.868-.94-2.802-.337-1-.675-2-1.016-2.999-.02-.058-.075-.104-.114-.155.4-.392.787-.797 1.202-1.17.37-.332.667-.687.68-1.211l.03-.105.105.265c-.003.134-.015.269-.006.402.015.232.053.463.063.695.02.431.029.864.038 1.296.014.695.027 1.391.035 2.087l.036 3.334c.003.175.021.35.032.523Z" fill="#60B24F"/><path d="M19.716 21.952c.053-.267.123-.531.156-.801.066-.538.112-1.078.166-1.617l.013-.002.014.002c.013.675.108 1.345.282 1.997-.036.047-.086.089-.105.142-.147.416-.286.835-.435 1.251-.02.057-.077.101-.116.15l-.152-.52.177-.602Z" fill="#A9AA88"/><path d="M19.69 23.075c.04-.05.097-.094.117-.15.148-.416.287-.836.435-1.252.019-.053.07-.095.105-.142l.255.559c-.05.071-.12.136-.148.215l-.488 1.432c-.02.058-.088.098-.134.147l-.142-.809Z" fill="#B6B598"/><path d="M19.832 23.884c.046-.049.114-.09.135-.147l.487-1.432c.028-.08.098-.144.148-.215l.247.21c-.12.117-.186.253-.146.425l-.075.245c-.034.042-.083.079-.1.127-.17.488-.332.978-.504 1.466-.022.061-.082.11-.124.165l-.068-.844Z" fill="#C2C1A7"/><path d="M19.9 24.727c.042-.054.103-.103.124-.165.172-.487.334-.977.504-1.465.017-.048.066-.085.1-.127l-.103 1.125c-.028.032-.067.06-.08.097l-.345.985c-.024.067-.07.127-.106.19-.032-.042-.09-.082-.092-.126-.01-.17-.003-.342-.002-.514Z" fill="#CECDB7"/><path d="M19.994 25.367c.036-.063.082-.123.107-.19l.343-.985c.014-.037.054-.064.081-.096l.003.738-.247.634-.287-.1Z" fill="#DBDAC7"/><path d="m20.28 25.468.248-.634.05.75-.298-.116Z" fill="#EBE9DC"/><path d="M20.703 22.725c-.04-.171.026-.307.145-.425l.069.047-.214.378Z" fill="#CECDB7"/><path d="m20.064 19.535-.013-.003-.014.002.032-.113-.005.114Z" fill="#4FAA41"/></g><defs><filter id="ata" x="-1" y="0" width="42" height="42" filterUnits="userSpaceOnUse" color-interpolation-filters="sRGB"><feFlood flood-opacity="0" result="BackgroundImageFix"/><feColorMatrix in="SourceAlpha" values="0 0 0 0 0 0 0 0 0 0 0 0 0 0 0 0 0 0 127 0" result="hardAlpha"/><feOffset dy="4"/><feGaussianBlur stdDeviation="2"/><feComposite in2="hardAlpha" operator="out"/><feColorMatrix values="0 0 0 0 0 0 0 0 0 0 0 0 0 0 0 0 0 0 0.25 0"/><feBlend in2="BackgroundImageFix" result="effect1_dropShadow_57847_130"/><feBlend in="SourceGraphic" in2="effect1_dropShadow_57847_130" result="shape"/></filter></defs></svg><svg fill="none" viewBox="0 0 16 16" id="moon" xmlns="http://www.w3.org/2000/svg"><path d="M6 .277a.768.768 0 0 1 .08.858 7.208 7.208 0 0 0-.878 3.46c0 4.022 3.278 7.278 7.319 7.278.526 0 1.04-.055 1.533-.16a.787.787 0 0 1 .81.316.733.733 0 0 1-.031.893A8.35 8.35 0 0 1 8.344 16C3.734 16 0 12.286 0 7.71 0 4.266 2.114 1.31 5.124.06A.752.752 0 0 1 6 .276Z" fill="#000"/><path d="M10.794 3.147a.217.217 0 0 1 .412 0l.387 1.163c.173.518.579.924 1.097 1.097l1.162.387a.217.217 0 0 1 0 .412l-1.162.387a1.734 1.734 0 0 0-1.097 1.097l-.387 1.162a.217.217 0 0 1-.412 0l-.387-1.162A1.734 1.734 0 0 0 9.31 6.593l-1.162-.387a.217.217 0 0 1 0-.412l1.162-.387a1.734 1.734 0 0 0 1.097-1.097l.387-1.163Zm3.07-3.049a.144.144 0 0 1 .22-.07.145.145 0 0 1 .053.07l.258.774c.115.346.386.617.732.732l.774.258a.145.145 0 0 1 0 .274l-.774.258a1.155 1.155 0 0 0-.732.732l-.258.774a.145.145 0 0 1-.274 0l-.258-.774a1.156 1.156 0 0 0-.732-.732l-.774-.258a.145.145 0 0 1 0-.274l.774-.258c.346-.115.617-.386.732-.732L13.863.1Z" fill="#000"/></svg><svg fill="none" viewBox="0 0 34 34" id="mysql" xmlns="http://www.w3.org/2000/svg"><path d="M23.24 7.793c-.162 0-.273.02-.388.047v.018h.02c.077.148.207.255.303.387.077.152.142.303.218.453l.02-.02c.133-.094.199-.245.199-.473-.057-.066-.066-.133-.114-.198-.056-.095-.178-.142-.255-.217l-.003.003ZM8.174 26.485H6.861a72.252 72.252 0 0 0-.383-6.248h-.01L4.47 26.485h-1l-1.983-6.248h-.014c-.155 2.08-.247 4.163-.276 6.248H0c.078-2.787.272-5.398.58-7.835h1.63l1.891 5.758h.012L6.02 18.65h1.551c.343 2.856.545 5.468.606 7.835h-.004Zm5.69-5.78c-.535 2.898-1.24 5.004-2.113 6.318-.683 1.014-1.43 1.521-2.242 1.52-.216 0-.483-.065-.802-.195v-.7c.157.024.339.037.547.037.38 0 .685-.105.916-.315.279-.255.418-.54.418-.857 0-.22-.108-.666-.326-1.337l-1.436-4.471h1.289l1.03 3.343c.233.76.33 1.29.29 1.59.567-1.508.961-3.153 1.183-4.933h1.247Zm17.461 5.78H27.6V18.65h1.254v6.871h2.472v.964Zm-4.703.19-1.44-.707c.13-.107.25-.225.362-.355.613-.717.919-1.781.918-3.191 0-2.593-1.018-3.89-3.053-3.89-.997 0-1.776.329-2.337.987-.61.72-.916 1.78-.916 3.18 0 1.378.27 2.389.814 3.032.494.58 1.242.871 2.242.871.374 0 .716-.046 1.027-.139l1.877 1.094.51-.881h-.004Zm-4.664-1.759c-.318-.51-.477-1.33-.477-2.459 0-1.974.6-2.96 1.8-2.96.628 0 1.09.235 1.383.707.317.513.476 1.327.476 2.441 0 1.99-.6 2.986-1.799 2.987-.63 0-1.092-.236-1.386-.709l.003-.007Zm-2.348-.602c0 .667-.244 1.213-.732 1.638-.485.425-1.139.637-1.96.637-.77 0-1.507-.243-2.229-.73l.336-.674c.62.311 1.182.466 1.686.465.47 0 .84-.104 1.11-.311a1.063 1.063 0 0 0 .424-.872c0-.467-.326-.864-.918-1.197-.55-.302-1.647-.93-1.647-.93-.598-.436-.896-.902-.896-1.668 0-.637.222-1.149.666-1.537.445-.393 1.021-.589 1.729-.588.726 0 1.387.194 1.983.58l-.302.675a3.826 3.826 0 0 0-1.507-.326c-.402 0-.71.098-.927.292a.977.977 0 0 0-.351.742c0 .465.331.865.943 1.205.557.304 1.682.949 1.682.949.613.432.918.892.918 1.654l-.008-.004Zm13.29-8.29c-.757-.02-1.345.057-1.837.266-.141.057-.368.057-.388.237.078.075.09.198.156.303.113.19.309.443.49.577.196.157.398.304.605.439.368.226.786.361 1.148.59.205.132.415.3.623.442.103.071.17.199.303.244v-.028c-.065-.085-.085-.208-.149-.303-.095-.095-.19-.18-.283-.274a4.53 4.53 0 0 0-.985-.956c-.303-.207-.966-.496-1.09-.843l-.019-.02c.207-.018.453-.093.652-.15.321-.085.616-.066.949-.15.151-.04.302-.084.453-.133v-.085c-.17-.17-.297-.401-.473-.56a12.752 12.752 0 0 0-1.564-1.166c-.297-.19-.674-.311-.987-.473-.114-.057-.303-.085-.369-.18-.17-.207-.269-.482-.39-.728-.277-.54-.536-1.09-.774-1.648-.17-.37-.274-.74-.482-1.08-.977-1.611-2.036-2.587-3.663-3.542-.35-.198-.77-.283-1.213-.388-.237-.012-.473-.029-.708-.039-.156-.066-.306-.246-.44-.332-.538-.34-1.932-1.077-2.328-.102-.256.614.378 1.22.597 1.532.163.217.369.465.482.709.067.164.085.333.152.504.15.417.293.881.491 1.27.104.2.217.407.35.586.077.103.207.151.237.321-.134.193-.142.474-.219.709-.34 1.072-.206 2.398.275 3.187.152.235.513.757.996.557.425-.17.332-.708.454-1.183.028-.113.01-.188.068-.265v.021c.133.267.266.52.388.787.292.464.802.946 1.228 1.268.227.17.407.464.69.57v-.03h-.021c-.061-.081-.142-.121-.218-.188a4.945 4.945 0 0 1-.496-.566 12.745 12.745 0 0 1-1.059-1.726c-.155-.297-.286-.618-.41-.91-.057-.114-.057-.284-.152-.34-.142.206-.35.386-.453.641-.18.408-.199.91-.267 1.43-.038.01-.02 0-.038.02-.303-.073-.407-.387-.52-.651-.283-.673-.33-1.754-.085-2.529.067-.198.35-.824.237-1.014-.06-.18-.247-.283-.35-.43a3.548 3.548 0 0 1-.34-.604c-.227-.53-.34-1.117-.587-1.646-.113-.245-.311-.502-.473-.727-.18-.255-.378-.435-.521-.737-.047-.103-.114-.275-.038-.388.02-.076.06-.106.133-.127.124-.102.474.03.598.087.35.142.644.275.937.474.134.093.277.273.447.32h.198c.303.066.645.02.928.103.503.162.956.397 1.363.652a8.43 8.43 0 0 1 2.954 3.238c.113.218.162.418.266.645.198.467.443.94.644 1.391.199.446.39.901.675 1.27.141.2.71.303.966.406.188.085.482.163.652.266.325.199.643.425.949.643.156.108.627.345.656.536Z" fill="#000"/></svg><svg fill="none" viewBox="0 0 34 34" id="nginx" xmlns="http://www.w3.org/2000/svg"><path d="M16.944 2.125h.07c.354.168.698.355 1.032.561l11.537 6.636a.84.84 0 0 1 .44.838c-.009 4.663 0 9.325-.006 13.986a.85.85 0 0 1-.378.54c-4.09 2.354-8.179 4.707-12.269 7.058a.627.627 0 0 1-.698.04c-4.094-2.348-8.184-4.7-12.27-7.055a.744.744 0 0 1-.426-.708V10.035a.733.733 0 0 1 .412-.712c3.84-2.208 7.68-4.418 11.521-6.63.342-.195.678-.402 1.035-.568Z" fill="#019639"/><path d="M9.315 11.197v11.537a1.594 1.594 0 0 0 .454 1.155 1.753 1.753 0 0 0 2.188.22 1.658 1.658 0 0 0 .728-1.375c0-2.783-.005-5.567 0-8.35 2.538 3.038 5.082 6.072 7.63 9.103a3.007 3.007 0 0 0 2.762.83 1.658 1.658 0 0 0 1.33-1.456c.005-3.925.005-7.85 0-11.774a1.68 1.68 0 0 0-3.35 0c0 2.829-.016 5.654 0 8.481-2.492-2.939-4.954-5.903-7.437-8.853a2.996 2.996 0 0 0-2.814-1.117 1.679 1.679 0 0 0-1.491 1.599Z" fill="#fff"/></svg><svg fill="none" viewBox="0 0 34 34" id="php" xmlns="http://www.w3.org/2000/svg"><path d="M0 17c0 4.939 7.611 8.943 17 8.943S34 21.939 34 17s-7.611-8.943-17-8.943S0 12.061 0 17Z" fill="url(#axa)"/><path d="M17 25.279c9.022 0 16.336-3.707 16.336-8.279S26.022 8.721 17 8.721C7.978 8.721.664 12.428.664 17S7.978 25.279 17 25.279Z" fill="#777BB3"/><path d="M9.237 18.026c.742 0 1.295-.136 1.646-.406.347-.267.586-.73.711-1.375.117-.603.073-1.023-.132-1.25-.21-.233-.663-.35-1.346-.35H8.93l-.657 3.381h.964Zm-3.878 4.166a.184.184 0 0 1-.18-.22l1.741-8.961a.184.184 0 0 1 .18-.15h3.755c1.18 0 2.058.32 2.61.953.555.635.726 1.523.51 2.639-.089.454-.24.876-.452 1.255-.22.389-.5.74-.831 1.04-.407.381-.867.657-1.367.82-.492.16-1.124.241-1.878.241h-1.52l-.435 2.234a.185.185 0 0 1-.18.15H5.358Z" fill="#000"/><path d="M9.081 14.829h1.034c.825 0 1.112.181 1.21.29.16.178.191.556.087 1.091-.117.6-.333 1.025-.643 1.264-.317.244-.833.368-1.533.368h-.74l.585-3.013Zm1.773-2.152H7.1a.37.37 0 0 0-.362.299l-1.742 8.961a.369.369 0 0 0 .362.44H7.31a.37.37 0 0 0 .362-.299l.405-2.084h1.369c.773 0 1.425-.085 1.935-.25a3.827 3.827 0 0 0 1.436-.86 4.38 4.38 0 0 0 .866-1.086c.22-.395.38-.836.471-1.31.229-1.175.043-2.115-.551-2.795-.589-.674-1.514-1.016-2.749-1.016Zm-2.806 5.534h1.188c.787 0 1.373-.149 1.758-.445.385-.297.646-.792.78-1.485.13-.667.07-1.137-.176-1.41-.247-.274-.741-.411-1.483-.411H8.777l-.729 3.75Zm2.806-5.166c1.13 0 1.953.297 2.471.89s.674 1.42.468 2.482c-.085.438-.23.838-.432 1.2a4.015 4.015 0 0 1-.794.996c-.39.364-.823.624-1.3.78-.476.154-1.083.232-1.821.232H7.774l-.463 2.382H5.358L7.1 13.045h3.754Z" fill="#fff"/><path d="M18.45 19.81a.185.185 0 0 1-.182-.22l.77-3.965c.074-.378.056-.648-.05-.763-.065-.07-.26-.187-.837-.187h-1.396l-.968 4.985a.185.185 0 0 1-.182.15H13.67a.186.186 0 0 1-.179-.14.186.186 0 0 1-.002-.08l1.742-8.962a.185.185 0 0 1 .18-.15h1.937a.186.186 0 0 1 .18.14.184.184 0 0 1 .002.08l-.42 2.163h1.501c1.144 0 1.92.202 2.372.617.46.423.604 1.1.427 2.012l-.81 4.17a.185.185 0 0 1-.182.15H18.45Z" fill="#000"/><path d="M17.348 10.294h-1.936a.369.369 0 0 0-.363.299l-1.742 8.962a.37.37 0 0 0 .362.439h1.937a.369.369 0 0 0 .363-.299l.939-4.835h1.244c.576 0 .697.123.701.128.035.037.081.211.005.601l-.77 3.966a.369.369 0 0 0 .362.439h1.968a.37.37 0 0 0 .362-.299l.81-4.17c.19-.98.028-1.713-.483-2.183-.488-.447-1.304-.665-2.496-.665h-1.278l.378-1.943a.369.369 0 0 0-.363-.44Zm0 .37-.463 2.382h1.726c1.085 0 1.834.19 2.246.568.412.379.536.992.371 1.84l-.81 4.17H18.45l.77-3.964c.088-.451.056-.759-.096-.923-.152-.164-.476-.246-.972-.246h-1.548l-.998 5.134H13.67l1.742-8.962h1.937Z" fill="#fff"/><path d="M24.474 18.026c.742 0 1.296-.136 1.646-.406.346-.267.586-.73.712-1.375.117-.603.072-1.023-.133-1.25-.21-.233-.662-.35-1.346-.35h-1.186l-.657 3.381h.964Zm-3.877 4.166a.185.185 0 0 1-.18-.139.184.184 0 0 1-.001-.08l1.741-8.962a.184.184 0 0 1 .181-.15h3.755c1.18 0 2.058.32 2.61.953.554.635.726 1.523.509 2.639-.083.44-.236.863-.451 1.255-.22.389-.5.74-.831 1.04-.407.381-.868.657-1.368.82-.492.16-1.124.241-1.878.241h-1.52l-.434 2.234a.184.184 0 0 1-.181.15h-1.952Z" fill="#000"/><path d="M24.32 14.829h1.033c.825 0 1.112.181 1.21.29.161.178.192.556.088 1.091-.117.6-.333 1.025-.643 1.264-.318.244-.834.368-1.534.368h-.74l.585-3.013Zm1.772-2.152h-3.754a.37.37 0 0 0-.362.299l-1.742 8.961a.37.37 0 0 0 .362.44h1.953a.369.369 0 0 0 .362-.299l.405-2.084h1.368c.773 0 1.425-.085 1.935-.25a3.826 3.826 0 0 0 1.437-.86c.344-.314.636-.68.865-1.086.221-.395.38-.836.472-1.31.228-1.175.043-2.115-.552-2.795-.588-.674-1.513-1.016-2.749-1.016Zm-2.805 5.534h1.187c.787 0 1.373-.149 1.759-.445.385-.297.645-.792.78-1.485.13-.667.07-1.137-.177-1.41-.247-.274-.741-.411-1.483-.411h-1.337l-.73 3.75Zm2.805-5.166c1.13 0 1.953.297 2.471.89s.674 1.42.468 2.482a4.006 4.006 0 0 1-.432 1.2 4.002 4.002 0 0 1-.794.996c-.39.364-.823.624-1.3.78-.476.154-1.083.232-1.821.232h-1.672l-.464 2.382h-1.952l1.742-8.962h3.754Z" fill="#fff"/><defs><radialGradient id="axa" cx="0" cy="0" r="1" gradientUnits="userSpaceOnUse" gradientTransform="translate(10.207 11.201) scale(22.3235)"><stop stop-color="#AEB2D5"/><stop offset=".3" stop-color="#AEB2D5"/><stop offset=".75" stop-color="#484C89"/><stop offset="1" stop-color="#484C89"/></radialGradient></defs></svg><svg fill="none" viewBox="0 0 33 34" id="postgresql" xmlns="http://www.w3.org/2000/svg"><g clip-path="url(#aya)"><path d="M32.842 20.36c-.198-.6-.716-1.016-1.386-1.116-.315-.047-.677-.027-1.105.061-.746.154-1.3.212-1.703.224 1.524-2.574 2.764-5.51 3.478-8.272 1.154-4.467.537-6.503-.184-7.423C30.035 1.397 27.253.088 23.897.048a14.258 14.258 0 0 0-4.183.586A15.573 15.573 0 0 0 17.27.41c-1.615-.026-3.042.326-4.26 1.05a19.421 19.421 0 0 0-3.01-.756C7.059.221 4.688.598 2.954 1.823.853 3.306-.121 5.883.059 9.483c.057 1.143.697 4.62 1.703 7.918.579 1.896 1.196 3.47 1.834 4.679.905 1.715 1.873 2.725 2.96 3.087.61.203 1.717.345 2.881-.624.148.178.345.356.606.521.332.21.738.38 1.143.482 1.46.365 2.829.274 3.996-.238l.017.577c.008.278.015.55.026.805.069 1.722.186 3.061.533 3.998.02.052.045.13.072.214.173.53.463 1.418 1.2 2.114.763.72 1.686.94 2.531.94.424 0 .829-.055 1.184-.131 1.264-.271 2.7-.684 3.74-2.164.982-1.398 1.46-3.505 1.546-6.824l.032-.269.02-.175.232.02.06.004c1.287.059 2.862-.214 3.83-.664.764-.354 3.214-1.648 2.637-3.393Z" fill="#000"/><path d="M30.64 20.699c-3.83.79-4.094-.507-4.094-.507 4.044-6 5.735-13.617 4.276-15.481-3.98-5.086-10.87-2.68-10.985-2.618l-.037.006a13.66 13.66 0 0 0-2.555-.266c-1.733-.028-3.048.455-4.045 1.211 0 0-12.29-5.063-11.719 6.368.122 2.432 3.486 18.4 7.498 13.577 1.466-1.764 2.884-3.255 2.884-3.255a3.719 3.719 0 0 0 2.429.62l.069-.058c-.022.22-.012.433.027.687-1.034 1.155-.73 1.357-2.796 1.783-2.09.43-.863 1.198-.06 1.399.972.242 3.22.587 4.74-1.54l-.06.242c.405.325.69 2.11.642 3.729-.048 1.619-.08 2.73.24 3.598.318.868.636 2.82 3.353 2.239 2.27-.486 3.445-1.747 3.61-3.85.115-1.494.378-1.273.395-2.61l.21-.632c.244-2.027.04-2.68 1.437-2.376l.34.03c1.03.046 2.377-.166 3.167-.533 1.702-.79 2.712-2.11 1.034-1.763Z" fill="#336791"/><path d="M13.919 10.5c-.345-.049-.658-.004-.816.116a.3.3 0 0 0-.124.199c-.02.142.08.3.141.38.174.23.427.388.677.423a.78.78 0 0 0 .109.007c.418 0 .798-.325.831-.565.042-.301-.395-.502-.818-.56Zm11.434.009c-.033-.236-.452-.303-.85-.248-.398.056-.784.235-.752.472.026.183.358.497.75.497a.742.742 0 0 0 .101-.007.968.968 0 0 0 .546-.299c.14-.146.22-.309.205-.415Z" fill="#fff"/><path d="M31.914 20.61c-.146-.442-.616-.584-1.397-.423-2.319.479-3.15.147-3.422-.054 1.802-2.745 3.285-6.065 4.085-9.161.379-1.467.588-2.83.605-3.94.02-1.219-.188-2.114-.616-2.661C29.442 2.165 26.909.982 23.843.95c-2.108-.024-3.89.515-4.235.667-.727-.18-1.52-.292-2.383-.306-1.582-.026-2.95.353-4.083 1.126a18.23 18.23 0 0 0-3.318-.87C7.136 1.134 5 1.462 3.476 2.542 1.656 3.83.817 6.134.98 9.388c.055 1.095.678 4.463 1.663 7.688 1.296 4.246 2.704 6.65 4.186 7.143.174.058.374.099.595.099.54 0 1.203-.244 1.893-1.073a68.27 68.27 0 0 1 2.61-2.953 4.204 4.204 0 0 0 1.876.505l.005.052c-.113.134-.223.27-.331.408-.454.576-.548.696-2.008.997-.415.085-1.519.313-1.535 1.086-.017.845 1.304 1.2 1.455 1.237.525.132 1.03.196 1.512.196 1.172 0 2.204-.385 3.029-1.13-.026 3.011.1 5.98.461 6.883.297.74 1.02 2.55 3.306 2.55a5.3 5.3 0 0 0 1.11-.127c2.386-.51 3.421-1.565 3.822-3.89.214-1.241.582-4.207.755-5.799.366.114.836.167 1.344.166 1.06 0 2.284-.225 3.05-.58.863-.401 2.418-1.383 2.136-2.237Zm-5.68-10.752c-.008.47-.073.896-.141 1.341-.074.479-.15.974-.17 1.575-.018.585.055 1.192.125 1.78.143 1.188.29 2.41-.278 3.616a4.758 4.758 0 0 1-.25-.516c-.071-.17-.224-.445-.436-.825-.824-1.478-2.754-4.939-1.766-6.351.294-.42 1.041-.853 2.916-.62ZM23.96 1.901c2.748.06 4.921 1.088 6.46 3.055 1.18 1.508-.12 8.37-3.882 14.291a22.473 22.473 0 0 0-.114-.144l-.047-.06c.972-1.605.782-3.193.613-4.602-.07-.578-.136-1.124-.119-1.637.017-.543.09-1.01.159-1.46.085-.556.172-1.13.148-1.808a.75.75 0 0 0 .016-.255c-.061-.65-.803-2.594-2.315-4.354-.827-.963-2.033-2.04-3.68-2.767a12.408 12.408 0 0 1 2.761-.26ZM8.587 22.638c-.76.914-1.285.739-1.457.681-1.125-.375-2.43-2.751-3.58-6.52-.995-3.26-1.576-6.54-1.622-7.458-.146-2.908.56-4.935 2.095-6.024 2.499-1.772 6.607-.711 8.258-.173l-.072.069c-2.709 2.736-2.644 7.41-2.638 7.696 0 .11.01.266.022.481.046.786.133 2.25-.099 3.907-.215 1.54.26 3.047 1.303 4.135.107.112.22.218.337.318a69.725 69.725 0 0 0-2.547 2.888Zm2.895-3.863c-.84-.877-1.222-2.096-1.047-3.347.244-1.75.154-3.275.105-4.094l-.016-.294c.396-.351 2.23-1.334 3.538-1.034.597.136.96.543 1.112 1.242.782 3.62.103 5.128-.442 6.34-.113.25-.22.486-.31.73l-.07.189c-.178.477-.344.921-.446 1.342-.894-.002-1.763-.384-2.424-1.074m.137 4.881a2.096 2.096 0 0 1-.633-.272 3.09 3.09 0 0 1 .674-.2c1.718-.354 1.983-.604 2.563-1.34.132-.168.283-.36.491-.592.311-.348.453-.29.71-.182.21.086.413.348.495.636.04.136.083.394-.06.595-1.21 1.694-2.974 1.672-4.24 1.355Zm8.99 8.365c-2.102.45-2.846-.622-3.336-1.847-.317-.791-.472-4.36-.362-8.3a.476.476 0 0 0-.02-.15 1.985 1.985 0 0 0-.06-.28c-.163-.573-.563-1.052-1.043-1.251-.19-.08-.54-.224-.96-.117.09-.369.245-.786.413-1.238l.07-.19c.08-.214.18-.436.286-.67.57-1.269 1.353-3.006.504-6.93-.318-1.47-1.38-2.188-2.988-2.022-.965.1-1.848.49-2.288.712a7.364 7.364 0 0 0-.262.14c.123-1.481.587-4.25 2.324-6C13.98 2.775 15.436 2.23 17.21 2.26c3.495.057 5.736 1.851 7.001 3.346 1.09 1.288 1.68 2.585 1.916 3.285-1.771-.18-2.976.17-3.587 1.043-1.328 1.9.727 5.586 1.715 7.357.181.325.338.606.387.725.322.78.738 1.3 1.042 1.68.093.116.184.23.252.328-.536.155-1.5.512-1.412 2.299-.07.896-.574 5.093-.83 6.575-.338 1.96-1.059 2.689-3.086 3.123Zm8.77-10.037c-.548.255-1.466.446-2.339.487-.963.045-1.453-.108-1.569-.202-.054-1.113.36-1.23.799-1.353.069-.02.136-.038.201-.06.04.032.085.065.133.097.774.51 2.155.566 4.105.163l.021-.004c-.263.246-.713.576-1.35.872Z" fill="#fff"/></g><defs><clipPath id="aya"><path fill="#fff" d="M0 0h32.97v34H0z"/></clipPath></defs></svg><svg fill="none" viewBox="0 0 16 16" id="python" xmlns="http://www.w3.org/2000/svg"><g clip-path="url(#aza)"><path d="M12.25 0h-8.5A3.75 3.75 0 0 0 0 3.75v8.5A3.75 3.75 0 0 0 3.75 16h8.5A3.75 3.75 0 0 0 16 12.25v-8.5A3.75 3.75 0 0 0 12.25 0Z" fill="#F4F2ED"/><path d="M7.955 1.813c-3.173 0-2.975 1.376-2.975 1.376l.003 1.425h3.029v.428H3.78S1.75 4.812 1.75 8.014s1.772 3.088 1.772 3.088H4.58V9.616s-.057-1.772 1.744-1.772h3.004s1.687.027 1.687-1.63V3.471s.256-1.66-3.06-1.66Zm-1.67.958a.544.544 0 1 1 .001 1.089.544.544 0 0 1 0-1.089Z" fill="url(#azb)"/><path d="M8.045 14.248c3.173 0 2.975-1.377 2.975-1.377l-.003-1.425H7.988v-.428h4.231s2.031.23 2.031-2.972-1.772-3.088-1.772-3.088H11.42v1.486s.057 1.772-1.744 1.772H6.673s-1.688-.027-1.688 1.63v2.742s-.256 1.66 3.06 1.66Zm1.67-.96a.545.545 0 1 1 0-1.088.545.545 0 0 1 0 1.089Z" fill="url(#azc)"/></g><defs><linearGradient id="azb" x1="2.951" y1="2.931" x2="9.146" y2="9.064" gradientUnits="userSpaceOnUse"><stop stop-color="#387EB8"/><stop offset="1" stop-color="#366994"/></linearGradient><linearGradient id="azc" x1="6.754" y1="6.869" x2="13.406" y2="13.158" gradientUnits="userSpaceOnUse"><stop stop-color="#FFE052"/><stop offset="1" stop-color="#FFC331"/></linearGradient><clipPath id="aza"><path fill="#fff" d="M0 0h16v16H0z"/></clipPath></defs></svg><svg fill="none" viewBox="0 0 34 34" id="rabbitmq" xmlns="http://www.w3.org/2000/svg"><g clip-path="url(#baa)"><path d="M31.747 13.597H21.062a.967.967 0 0 1-.967-.968V1.493A1.49 1.49 0 0 0 18.6 0h-3.816a1.49 1.49 0 0 0-1.495 1.493v11.062a1.039 1.039 0 0 1-1.041 1.043l-3.503.012a1.033 1.033 0 0 1-1.043-1.043l.025-11.073A1.489 1.489 0 0 0 6.234 0H2.417A1.49 1.49 0 0 0 .923 1.494V32.67c0 .727.59 1.331 1.33 1.331h29.494a1.331 1.331 0 0 0 1.33-1.331V14.927a1.321 1.321 0 0 0-1.33-1.33Zm-5.01 11.702a1.739 1.739 0 0 1-1.732 1.733H21.99a1.738 1.738 0 0 1-1.732-1.733v-3.013a1.738 1.738 0 0 1 1.732-1.733h3.013a1.738 1.738 0 0 1 1.734 1.733v3.013Z" fill="#F60"/></g><defs><clipPath id="baa"><path fill="#fff" d="M0 0h34v34H0z"/></clipPath></defs></svg><svg fill="none" viewBox="0 0 40 34" id="redis" xmlns="http://www.w3.org/2000/svg"><g clip-path="url(#bba)"><path d="M38.014 26.11c-2.112 1.1-13.05 5.597-15.378 6.811-2.328 1.214-3.622 1.202-5.462.323-1.839-.88-13.478-5.58-15.575-6.583C.55 26.16 0 25.737 0 25.338v-4s15.153-3.298 17.6-4.175c2.446-.878 3.294-.91 5.376-.147 2.082.763 14.53 3.008 16.588 3.762l-.001 3.942c0 .396-.475.83-1.55 1.39Z" fill="#912626"/><path d="M38.013 22.134c-2.111 1.1-13.049 5.597-15.377 6.811-2.329 1.214-3.622 1.202-5.462.323-1.84-.879-13.478-5.581-15.575-6.583-2.096-1.002-2.14-1.692-.08-2.498 2.059-.807 13.634-5.348 16.08-6.226 2.447-.877 3.295-.91 5.377-.146 2.082.762 12.954 5.09 15.011 5.843 2.058.755 2.137 1.376.026 2.476Z" fill="#C6302B"/><path d="M38.014 19.639c-2.112 1.1-13.05 5.597-15.378 6.812-2.328 1.213-3.622 1.202-5.462.322-1.84-.879-13.478-5.58-15.575-6.583C.55 19.69 0 19.267 0 18.868v-4s15.153-3.298 17.6-4.176c2.446-.878 3.294-.91 5.376-.147 2.082.763 14.53 3.008 16.588 3.762l-.001 3.943c0 .395-.475.829-1.55 1.389Z" fill="#912626"/><path d="M38.013 15.663c-2.111 1.1-13.049 5.598-15.377 6.812-2.329 1.214-3.622 1.202-5.462.322-1.84-.878-13.478-5.58-15.575-6.582-2.096-1.002-2.14-1.692-.08-2.499 2.059-.806 13.634-5.348 16.08-6.225 2.447-.878 3.295-.91 5.377-.147s12.954 5.09 15.011 5.843c2.058.755 2.137 1.376.026 2.476Z" fill="#C6302B"/><path d="M38.014 12.928c-2.112 1.1-13.05 5.598-15.378 6.812-2.328 1.214-3.622 1.202-5.462.323-1.84-.88-13.478-5.581-15.575-6.583C.55 12.979 0 12.556 0 12.157v-4S15.153 4.86 17.6 3.983c2.446-.878 3.294-.91 5.376-.147 2.082.763 14.53 3.008 16.588 3.762l-.001 3.942c0 .395-.475.829-1.55 1.39Z" fill="#912626"/><path d="M38.013 8.953c-2.112 1.1-13.049 5.597-15.377 6.811-2.329 1.214-3.622 1.202-5.462.323-1.84-.88-13.478-5.581-15.575-6.583-2.096-1.002-2.14-1.692-.08-2.498C3.577 6.199 15.152 1.658 17.598.78c2.447-.877 3.295-.909 5.377-.146s12.954 5.09 15.01 5.843c2.059.754 2.138 1.375.027 2.476Z" fill="#C6302B"/><path d="m24.616 5.062-3.401.354-.762 1.832-1.23-2.045-3.927-.353 2.93-1.057-.879-1.622 2.744 1.073 2.587-.847-.7 1.678 2.638.987Zm-4.366 8.89-6.348-2.633 9.097-1.397-2.749 4.03ZM11.45 6.08c2.685 0 4.862.844 4.862 1.884 0 1.041-2.177 1.885-4.862 1.885s-4.862-.844-4.862-1.885c0-1.04 2.177-1.884 4.862-1.884Z" fill="#fff"/><path d="m28.637 5.563 5.383 2.128-5.379 2.125-.004-4.253Z" fill="#621B1C"/><path d="m22.68 7.92 5.957-2.357.005 4.253-.584.229-5.377-2.126Z" fill="#9A2928"/></g><defs><clipPath id="bba"><path fill="#fff" d="M0 0h39.564v34H0z"/></clipPath></defs></svg><svg fill="none" viewBox="0 0 34 34" id="rest-api" xmlns="http://www.w3.org/2000/svg"><path d="M27.2 22.1c-2.21 0-4.08 1.36-4.76 3.4H15.3c0-1.19-.34-2.21-.85-3.06l12.07-12.41c.51 0 1.02.17 1.53.17 2.38 0 4.25-1.87 4.25-4.25S30.43 1.7 28.05 1.7 23.8 3.57 23.8 5.95c0 .51.17 1.19.34 1.7l-11.9 12.24c-1.02-.85-2.38-1.19-3.74-1.19v-7.14c2.04-.68 3.4-2.55 3.4-4.76 0-2.89-2.21-5.1-5.1-5.1-2.89 0-5.1 2.21-5.1 5.1 0 2.21 1.36 4.08 3.4 4.76v7.99c-2.04 1.19-3.4 3.4-3.4 5.78 0 3.74 3.06 6.8 6.8 6.8 2.55 0 4.76-1.36 5.78-3.4h7.99c.68 1.87 2.55 3.4 4.76 3.4 2.72 0 5.1-2.21 5.1-5.1.17-2.72-2.21-4.93-4.93-4.93Z" fill="#000" opacity=".12"/></svg><svg fill="none" viewBox="0 0 34 34" id="scss" xmlns="http://www.w3.org/2000/svg"><path fill-rule="evenodd" clip-rule="evenodd" d="M17 2.125a14.875 14.875 0 1 1 0 29.75 14.875 14.875 0 0 1 0-29.75Z" fill="#C69"/><path d="M26.33 8.492c-.673-2.642-5.054-3.507-9.2-2.038a20.826 20.826 0 0 0-7.059 4.049c-2.283 2.136-2.648 3.995-2.498 4.771.532 2.742 4.285 4.533 5.83 5.862v.008c-.456.224-3.788 1.912-4.57 3.634-.822 1.819.131 3.123.763 3.299a4.675 4.675 0 0 0 5.045-2.046 5.12 5.12 0 0 0 .502-4.556 5.95 5.95 0 0 1 2.276-.13c2.61.305 3.122 1.933 3.024 2.616a1.72 1.72 0 0 1-.827 1.168c-.183.114-.24.152-.224.237.023.122.107.118.263.091a2.035 2.035 0 0 0 1.42-1.813c.062-1.594-1.469-3.385-4.18-3.34a7.117 7.117 0 0 0-2.326.32l-.115-.128c-1.677-1.788-4.775-3.054-4.644-5.458.048-.875.351-3.176 5.95-5.968 4.59-2.288 8.264-1.658 8.9-.263.907 1.993-1.964 5.696-6.73 6.23a3.581 3.581 0 0 1-3.01-.762c-.251-.277-.288-.288-.382-.237-.152.084-.055.328 0 .473a2.827 2.827 0 0 0 1.722 1.353 9.138 9.138 0 0 0 5.587-.552c2.891-1.115 5.146-4.223 4.484-6.82ZM14.045 21.954c.21.728.2 1.502-.03 2.223a3.68 3.68 0 0 1-.083.223 4.252 4.252 0 0 1-.784 1.214c-.864.943-2.072 1.3-2.59 1-.558-.325-.279-1.654.723-2.713a10.096 10.096 0 0 1 2.629-1.872l.135-.075Z" fill="#fff"/></svg><svg viewBox="0 0 192 192" xml:space="preserve" fill="none" id="stepik" xmlns="http://www.w3.org/2000/svg"><path fill="#222" d="M122.343 159.179c-6.777 6.558-16.178 10.712-26.234 10.712-10.493 0-19.893-4.154-26.889-11.15l17.708-17.707c2.404 2.405 5.465 3.716 9.181 3.716 3.498 0 6.777-1.53 9.182-3.716l35.852-35.852c2.405-2.405 3.717-5.466 3.717-9.182 0-3.498-1.53-6.777-3.717-9.182-2.404-2.404-5.465-3.716-9.181-3.716-3.717 0-6.777 1.53-9.182 3.716L86.928 122.89c-6.777 6.777-16.396 11.15-26.89 11.15-10.493 0-19.893-4.373-26.889-11.15C26.372 116.112 22 106.493 22 96c0-10.493 4.155-19.894 11.15-26.89l35.852-35.852c6.777-6.777 16.396-11.149 26.89-11.149 10.493 0 19.893 4.154 26.889 11.15l-17.708 17.707c-2.404-2.405-5.465-3.716-9.181-3.716-3.717 0-6.777 1.53-9.182 3.716L50.857 86.818C48.452 89.223 47.14 92.284 47.14 96c0 3.498 1.53 6.777 3.717 9.182 2.404 2.404 5.465 3.716 9.181 3.716 3.498 0 6.777-1.53 9.182-3.716l35.852-35.853c6.777-6.777 16.396-11.149 26.89-11.149 10.493 0 19.893 4.154 26.889 11.15C165.628 76.105 170 85.724 170 96.218c0 10.493-4.155 19.893-11.15 26.889z" style="fill:none;fill-opacity:1;stroke:#000;stroke-width:12;stroke-linecap:round;stroke-linejoin:round;stroke-dasharray:none;stroke-opacity:1"/></svg><svg fill="none" viewBox="0 0 16 16" id="sun" xmlns="http://www.w3.org/2000/svg"><path d="M8 11a3 3 0 1 1 0-6 3 3 0 0 1 0 6Zm0 1a4 4 0 1 0 0-8 4 4 0 0 0 0 8ZM8 0a.5.5 0 0 1 .5.5v2a.5.5 0 1 1-1 0v-2A.5.5 0 0 1 8 0Zm0 13a.5.5 0 0 1 .5.5v2a.5.5 0 0 1-1 0v-2A.5.5 0 0 1 8 13Zm8-5a.5.5 0 0 1-.5.5h-2a.5.5 0 0 1 0-1h2a.5.5 0 0 1 .5.5ZM3 8a.5.5 0 0 1-.5.5h-2a.5.5 0 0 1 0-1h2A.5.5 0 0 1 3 8Zm10.657-5.657a.5.5 0 0 1 0 .707l-1.414 1.415a.5.5 0 0 1-.707-.708l1.414-1.414a.5.5 0 0 1 .707 0Zm-9.193 9.193a.5.5 0 0 1 0 .707L3.05 13.657a.5.5 0 0 1-.707-.707l1.414-1.414a.5.5 0 0 1 .707 0Zm9.193 2.121a.5.5 0 0 1-.707 0l-1.414-1.414a.5.5 0 0 1 .707-.707l1.414 1.414a.5.5 0 0 1 0 .707ZM4.464 4.465a.5.5 0 0 1-.707 0L2.343 3.05a.5.5 0 1 1 .707-.707l1.414 1.414a.5.5 0 0 1 0 .708Z" fill="#000"/></svg><svg viewBox="0 0 24 24" xml:space="preserve" id="telegram" xmlns="http://www.w3.org/2000/svg"><path d="M12 2C6.5 2 2 6.5 2 12s4.5 10 10 10 10-4.5 10-10S17.5 2 12 2zm4.9 6.1-1.7 8.2c-.1.6-.5.7-.9.4l-2.6-2c-.6.6-1.2 1.1-1.3 1.3-.2.1-.3.3-.5.3-.3 0-.3-.2-.4-.4l-.9-3-2.7-.9c-.6-.2-.6-.6.1-.9l10.2-3.9c.4-.1.9.1.7.9zm-2.4.9-5.7 3.6.9 3 .2-2 4.9-4.4c.3-.3.1-.3-.3-.2z"/><path style="fill:none" d="M0 0h24v24H0z"/></svg></svg>