<?xml version="1.0" encoding="utf-8"?><svg viewBox="0 0 90 19" xmlns="http://www.w3.org/2000/svg" xmlns:xlink="http://www.w3.org/1999/xlink"><style>:root>svg{display:none}:root>svg:target{display:block}</style><svg fill="none" viewBox="0 0 90 19" id="logo" xmlns="http://www.w3.org/2000/svg">
    <path d="M.744 9.36c0-1.04.184-2.056.552-3.048a8.885 8.885 0 0 1 1.656-2.736 7.721 7.721 0 0 1 2.64-1.968c1.04-.496 2.224-.744 3.552-.744 1.568 0 2.92.344 4.056 1.032 1.152.688 2.008 1.584 2.568 2.688l-2.544 1.752c-.288-.64-.664-1.144-1.128-1.512a3.958 3.958 0 0 0-1.488-.792 5.36 5.36 0 0 0-1.56-.24c-.832 0-1.56.168-2.184.504a4.886 4.886 0 0 0-1.536 1.32 5.8 5.8 0 0 0-.936 1.824 7.308 7.308 0 0 0-.288 2.016c0 .752.12 1.48.36 2.184.24.688.576 1.304 1.008 1.848.448.528.976.952 1.584 1.272a4.595 4.595 0 0 0 2.04.456c.528 0 1.064-.088 1.608-.264a4.56 4.56 0 0 0 1.512-.84c.464-.384.824-.88 1.08-1.488l2.712 1.56c-.336.848-.888 1.568-1.656 2.16a8.078 8.078 0 0 1-2.544 1.344A9.12 9.12 0 0 1 9 18.144c-1.216 0-2.328-.248-3.336-.744a8.746 8.746 0 0 1-2.616-2.016 10.197 10.197 0 0 1-1.704-2.832 8.95 8.95 0 0 1-.6-3.192ZM29.605 18H26.39v-7.056c0-.976-.192-1.704-.576-2.184-.368-.48-.88-.72-1.536-.72-.384 0-.792.112-1.224.336a4.049 4.049 0 0 0-1.176.936 3.682 3.682 0 0 0-.744 1.344V18h-3.216V.48h3.216v7.272A4.955 4.955 0 0 1 23.03 5.88a5.264 5.264 0 0 1 2.616-.672c.816 0 1.48.144 1.992.432.512.272.912.648 1.2 1.128.288.464.488.992.6 1.584.112.576.168 1.176.168 1.8V18Zm8.628.24c-1.008 0-1.92-.168-2.735-.504a6.425 6.425 0 0 1-2.088-1.416 6.756 6.756 0 0 1-1.344-2.064 6.778 6.778 0 0 1-.457-2.472c0-1.2.264-2.296.792-3.288a6.197 6.197 0 0 1 2.304-2.376c1.009-.608 2.193-.912 3.553-.912 1.375 0 2.551.304 3.527.912a5.902 5.902 0 0 1 2.233 2.376c.527.976.791 2.032.791 3.168 0 .192-.008.392-.023.6-.017.192-.032.352-.049.48h-9.72c.064.64.248 1.2.552 1.68.32.48.72.848 1.2 1.104a3.59 3.59 0 0 0 1.584.36c.64 0 1.24-.152 1.8-.456.577-.32.968-.736 1.177-1.248l2.76.768a5.163 5.163 0 0 1-1.32 1.704 6.312 6.312 0 0 1-1.992 1.176c-.768.272-1.617.408-2.544.408Zm-3.287-7.536h6.576c-.064-.64-.248-1.192-.553-1.656a2.936 2.936 0 0 0-1.151-1.104 3.204 3.204 0 0 0-1.608-.408c-.577 0-1.105.136-1.584.408a3.165 3.165 0 0 0-1.152 1.104c-.288.464-.464 1.016-.528 1.656Zm19.31-2.496c-.975 0-1.847.192-2.615.576-.768.368-1.32.904-1.656 1.608V18h-3.216V5.424h2.952v2.688c.448-.864 1.016-1.544 1.704-2.04s1.416-.768 2.184-.816h.408c.096 0 .176.008.24.024v2.928ZM71.65 5.424h3.048L69.442 18h-2.688l-2.112-5.4-2.064 5.4h-2.712L54.634 5.424h3.024l3.744 9.504 1.464-4.104-2.184-5.376h2.664l1.296 3.84 1.32-3.84h2.664l-2.184 5.376 1.488 4.104 3.72-9.504ZM80.236.96h3.36L89.86 18h-3.408l-1.584-4.248h-5.952L77.356 18h-3.408L80.236.96Zm4.032 10.464-2.352-7.032-2.448 7.032h4.8Z" fill="#fff"/>
</svg></svg>