<?xml version="1.0" encoding="utf-8"?><!DOCTYPE svg PUBLIC "-//W3C//DTD SVG 1.1//EN" "http://www.w3.org/Graphics/SVG/1.1/DTD/svg11.dtd"><svg viewBox="0 0 800 800" xmlns="http://www.w3.org/2000/svg" xmlns:xlink="http://www.w3.org/1999/xlink"><style>:root>svg{display:none}:root>svg:target{display:block}</style><svg viewBox="0 0 24 24" id="codewars" xmlns="http://www.w3.org/2000/svg">
    <path d="M1.072.142A1.072 1.072 0 0 0 0 1.214v21.572a1.072 1.072 0 0 0 1.072 1.072h21.856A1.072 1.072 0 0 0 24 22.786V1.214A1.072 1.072 0 0 0 22.928.142zm9.736 1.818a.904.904 0 0 1 .828.539.784.784 0 0 1 1.274.493.639.639 0 0 1 .29-.06c.33.008.59.262.625.575a1.322 1.322 0 0 1 .624-.515 1.325 1.325 0 0 1 1.718.71 1.098 1.098 0 0 1 .306-.236 1.102 1.102 0 0 1 1.483.479 1.094 1.094 0 0 1 .12.47.994.994 0 0 1 1.322 1.214.904.904 0 0 1 .874 1.438.784.784 0 0 1 .176 1.356.639.639 0 0 1 .19.224.642.642 0 0 1-.011.613 1.326 1.326 0 0 1 .482.235 1.334 1.334 0 0 1 .258 1.842 1.098 1.098 0 0 1 .35.15 1.102 1.102 0 0 1 .337 1.516 1.094 1.094 0 0 1-.344.344.994.994 0 0 1 .228 1.318 1.006 1.006 0 0 1-.605.434.904.904 0 0 1-.803 1.482.814.814 0 0 0-.008-.04.784.784 0 0 1-1.075.873.639.639 0 0 1-.098.28.625.625 0 0 1-.43.288 1.33 1.33 0 0 1 .023.456 1.334 1.334 0 0 1-1.44 1.173 1.098 1.098 0 0 1 .054.377 1.102 1.102 0 0 1-1.128 1.072 1.098 1.098 0 0 1-.47-.12.994.994 0 0 1-1.696.583.904.904 0 0 1-1.685.075.784.784 0 0 1-1.274-.493.639.639 0 0 1-.29.064.64.64 0 0 1-.621-.58l.004-.007a1.326 1.326 0 0 1-.632.523 1.334 1.334 0 0 1-1.718-.706 1.098 1.098 0 0 1-.306.232 1.102 1.102 0 0 1-1.48-.478 1.094 1.094 0 0 1-.123-.471.994.994 0 0 1-1.318-1.21.904.904 0 0 1-.874-1.442.784.784 0 0 1-.176-1.356.639.639 0 0 1-.194-.224.642.642 0 0 1 .011-.61l.019.004a1.326 1.326 0 0 1-.497-.239 1.334 1.334 0 0 1-.262-1.845 1.098 1.098 0 0 1-.35-.146 1.102 1.102 0 0 1-.337-1.52 1.094 1.094 0 0 1 .347-.34A.994.994 0 0 1 2.88 9a.904.904 0 0 1 .803-1.48.784.784 0 0 1 1.083-.836.639.639 0 0 1 .098-.28.649.649 0 0 1 .433-.288 1.33 1.33 0 0 1-.026-.452A1.334 1.334 0 0 1 6.716 4.49a1.098 1.098 0 0 1-.06-.377 1.101 1.101 0 0 1 1.13-1.073 1.094 1.094 0 0 1 .47.115.994.994 0 0 1 1.696-.579.904.904 0 0 1 .857-.617zM3.683 7.519a.784.784 0 0 0 .008.041l-.004-.04a.904.904 0 0 0-.004-.001zM17.502 19.61a1.098 1.098 0 0 0-.002-.004h-.037a1.334 1.334 0 0 0 .039.004zM13.825 3.507a1.322 1.322 0 0 0-.008.012l.008-.011zm-2.369-.014-.003.003a.9.9 0 0 1-.665.27.896.896 0 0 1-.583-.232.994.994 0 0 1-.986.732.99.99 0 0 1-.362-.075 1.098 1.098 0 0 1-1.061 1.046 1.326 1.326 0 0 1 .123.736 1.334 1.334 0 0 1-.725 1.035 1.1 1.1 0 0 1 .307.795 1.106 1.106 0 0 1-.232.65c.321.18.53.523.523.915a1.016 1.016 0 0 1-.07.337.915.915 0 0 1 .82.937.923.923 0 0 1-.01.138.74.74 0 0 1 .157-.01c.343.007.627.25.702.57a.661.661 0 0 1 .38-.111c.31.007.561.224.632.511a.418.418 0 0 1 .381-.015 1.352 1.352 0 0 1 .303-.63.418.418 0 0 1-.12-.143.422.422 0 0 1 .004-.392.665.665 0 0 1-.325-1.117.736.736 0 0 1-.359-.336.74.74 0 0 1 .385-1.023.747.747 0 0 0-.06.026.915.915 0 0 1-.201-.262.915.915 0 0 1 .623-1.315V6.53a1.02 1.02 0 0 1 .437-1.371 1.012 1.012 0 0 1 .553-.112 1.11 1.11 0 0 1 .598-1.054 1.12 1.12 0 0 1 .06-.026.642.642 0 0 1-.109-.21.784.784 0 0 1-.455.132.784.784 0 0 1-.662-.396zm4.573 1.512a1.326 1.326 0 0 1-.587.46 1.334 1.334 0 0 1-1.255-.142v-.011a1.11 1.11 0 0 1-.553.66 1.106 1.106 0 0 1-.683.113 1.02 1.02 0 0 1-.553.889 1.016 1.016 0 0 1-.329.105.918.918 0 0 1-.43 1.169.923.923 0 0 1-.127.056.74.74 0 0 1 .086.13.738.738 0 0 1-.168.89.661.661 0 0 1 .28.283.655.655 0 0 1-.149.796.418.418 0 0 1 .153.164c.019.034.03.068.038.101a1.356 1.356 0 0 1 .672-.015.422.422 0 0 1 .056-.142.422.422 0 0 1 .34-.194.665.665 0 0 1 .796-.848.736.736 0 0 1 .112-.478.733.733 0 0 1 1.016-.224.915.915 0 0 1 .127-.306.915.915 0 0 1 1.27-.28.915.915 0 0 1 .179.153 1.02 1.02 0 0 1 1.408-.314 1.012 1.012 0 0 1 .374.422c.355-.24.833-.261 1.214-.015a1.11 1.11 0 0 1 .209.172.642.642 0 0 1 .082-.108.784.784 0 0 1-.332-.337.784.784 0 0 1 .03-.77.9.9 0 0 1-.553-.455.896.896 0 0 1-.075-.624.994.994 0 0 1-1.117-.511.994.994 0 0 1-.104-.359 1.098 1.098 0 0 1-1.427-.43zM5.249 7.37a.784.784 0 0 1-.124.46.784.784 0 0 1-.68.362c.06.235.026.49-.112.71a.896.896 0 0 1-.5.377c.31.325.373.829.12 1.225a.99.99 0 0 1-.255.269 1.098 1.098 0 0 1 .351 1.45 1.326 1.326 0 0 1 .691.276 1.334 1.334 0 0 1 .512 1.154c.28-.064.579-.019.84.15a1.106 1.106 0 0 1 .438.53 1.02 1.02 0 0 1 1.05.03 1.016 1.016 0 0 1 .257.231.914.914 0 0 1 1.225-.224.919.919 0 0 1 .112.086.74.74 0 0 1 .071-.142.74.74 0 0 1 .852-.306.661.661 0 0 1 .1-.381.664.664 0 0 1 .763-.273.418.418 0 0 1 .246-.373 1.36 1.36 0 0 1-.358-.523v-.008a.418.418 0 0 1-.25.075.422.422 0 0 1-.344-.19.665.665 0 0 1-1.132-.243.736.736 0 0 1-.47.149.733.733 0 0 1-.718-.755.915.915 0 0 1-.329.049.915.915 0 0 1-.855-1.177h-.004a1.016 1.016 0 0 1-.993-1.042 1.012 1.012 0 0 1 .168-.534 1.11 1.11 0 0 1-.64-1.035 1.11 1.11 0 0 1 .068-.358.65.65 0 0 1-.1-.019zm11.127 2.133a.913.913 0 0 1-1.225.224.926.926 0 0 1-.112-.082.74.74 0 0 1-.067.142.74.74 0 0 1-.852.302.661.661 0 0 1-.105.385.662.662 0 0 1-.762.277.418.418 0 0 1-.063.212.426.426 0 0 1-.075.086 1.356 1.356 0 0 1 .314.564.418.418 0 0 1 .187-.04.422.422 0 0 1 .343.194.665.665 0 0 1 1.136.242.736.736 0 0 1 .467-.153c.41.008.728.348.72.755a.74.74 0 0 1 0 .008v-.005a.915.915 0 0 1 .326-.052.915.915 0 0 1 .896.941.919.919 0 0 1-.037.236c.564.015 1.008.482.993 1.046a1.012 1.012 0 0 1-.168.534 1.11 1.11 0 0 1 .647 1.035 1.11 1.11 0 0 1-.075.362l.004-.007.1.018a.784.784 0 0 1 .124-.46.784.784 0 0 1 .68-.362.9.9 0 0 1 .112-.71.896.896 0 0 1 .504-.373.994.994 0 0 1-.123-1.225.99.99 0 0 1 .257-.269 1.098 1.098 0 0 1-.35-1.453 1.326 1.326 0 0 1-.696-.273h-.003a1.334 1.334 0 0 1-.512-1.158 1.082 1.082 0 0 1-.837-.145 1.106 1.106 0 0 1-.44-.535 1.02 1.02 0 0 1-1.05-.026 1.016 1.016 0 0 1-.258-.235zm-.094 3.116-.007.066a.74.74 0 0 0 .007-.066zm-2.864-.259a1.36 1.36 0 0 1-.363.598.418.418 0 0 1 .194.187.422.422 0 0 1-.007.396.665.665 0 0 1 .329 1.113.736.736 0 0 1 .358.336.739.739 0 0 1-.32.994.915.915 0 0 1 .197.261.91.91 0 0 1-.396 1.233.919.919 0 0 1-.224.082v.004a1.02 1.02 0 0 1-.44 1.374 1.012 1.012 0 0 1-.55.109 1.11 1.11 0 0 1-.661 1.083.642.642 0 0 1 .112.21.026.026 0 0 1-.004 0v.003a.784.784 0 0 1 .456-.134.784.784 0 0 1 .661.392.9.9 0 0 1 .665-.27.896.896 0 0 1 .587.236.994.994 0 0 1 .982-.736.99.99 0 0 1 .362.079v.022a1.1 1.1 0 0 1 1.061-1.072 1.326 1.326 0 0 1-.123-.736c.056-.46.34-.837.725-1.035l.003.004a1.102 1.102 0 0 1-.31-.795 1.106 1.106 0 0 1 .232-.654 1.02 1.02 0 0 1-.452-1.251.915.915 0 0 1-.822-.934.923.923 0 0 1 .011-.142.74.74 0 0 1-.157.015.74.74 0 0 1-.698-.572.661.661 0 0 1-.385.112.667.667 0 0 1-.627-.512.418.418 0 0 1-.217.053.418.418 0 0 1-.18-.045zm-.964.93a1.36 1.36 0 0 1-.336.042c-.112 0-.22-.012-.322-.038a.418.418 0 0 1-.06.295.422.422 0 0 1-.343.195.665.665 0 0 1-.792.844.736.736 0 0 1-.112.478.74.74 0 0 1-1.02.224.915.915 0 0 1-.127.306.915.915 0 0 1-1.266.28.919.919 0 0 1-.183-.153v.004a1.02 1.02 0 0 1-1.408.31 1.012 1.012 0 0 1-.374-.418c-.355.239-.83.261-1.214.015a1.113 1.113 0 0 1-.21-.172.65.65 0 0 1-.081.105.784.784 0 0 1 .336.336.784.784 0 0 1-.034.77.89.89 0 0 1 .553.455.896.896 0 0 1 .075.624.994.994 0 0 1 1.12.515.99.99 0 0 1 .101.355 1.098 1.098 0 0 1 1.431.43 1.326 1.326 0 0 1 .587-.46c.43-.172.896-.104 1.255.142a1.106 1.106 0 0 1 .549-.65 1.106 1.106 0 0 1 .683-.108 1.02 1.02 0 0 1 .553-.893 1.02 1.02 0 0 1 .333-.104.916.916 0 0 1 .425-1.17.919.919 0 0 1 .131-.052.736.736 0 0 1-.09-.134.738.738 0 0 1 .169-.886.661.661 0 0 1-.28-.284.67.67 0 0 1 .149-.799.418.418 0 0 1-.15-.164.418.418 0 0 1-.048-.24z"/>
</svg><svg fill="none" viewBox="0 0 38 38" id="github" xmlns="http://www.w3.org/2000/svg">
    <path d="M12.71 29.833c0 .153-.176.276-.398.276-.253.023-.43-.1-.43-.276 0-.153.177-.276.399-.276.23-.023.43.1.43.276Zm-2.383-.345c-.053.154.1.33.33.376.199.076.429 0 .475-.154.046-.153-.1-.329-.33-.398-.199-.053-.421.023-.475.176Zm3.387-.13c-.223.054-.376.2-.353.375.023.154.223.253.452.2.223-.054.376-.2.353-.353-.023-.145-.23-.245-.452-.222ZM18.754 0C8.13 0 0 8.067 0 18.694 0 27.19 5.348 34.46 12.986 37.019c.98.177 1.325-.429 1.325-.927 0-.475-.023-3.095-.023-4.704 0 0-5.363 1.15-6.489-2.283 0 0-.873-2.23-2.13-2.804 0 0-1.754-1.203.123-1.18 0 0 1.908.154 2.957 1.977 1.678 2.957 4.49 2.107 5.585 1.601.177-1.226.675-2.076 1.226-2.582-4.283-.475-8.604-1.095-8.604-8.465 0-2.107.583-3.165 1.809-4.513-.2-.498-.85-2.551.199-5.202 1.6-.498 5.286 2.069 5.286 2.069a18.002 18.002 0 0 1 4.811-.652c1.632 0 3.28.223 4.812.652 0 0 3.685-2.575 5.286-2.069 1.05 2.659.398 4.704.2 5.202 1.225 1.356 1.976 2.413 1.976 4.513 0 7.393-4.513 7.983-8.796 8.465.705.606 1.303 1.755 1.303 3.555 0 2.582-.023 5.777-.023 6.405 0 .498.352 1.103 1.325.927C32.806 34.461 38 27.19 38 18.694 38 8.066 29.381 0 18.755 0ZM7.448 26.424c-.1.076-.077.253.053.398.123.123.3.176.399.077.1-.077.076-.253-.054-.399-.122-.122-.299-.176-.398-.076Zm-.828-.62c-.053.099.023.221.177.298.122.077.275.054.329-.054.054-.1-.023-.222-.176-.298-.153-.046-.276-.023-.33.053Zm2.483 2.727c-.123.1-.077.33.1.475.175.176.398.199.497.076.1-.1.054-.33-.1-.475-.168-.176-.398-.199-.497-.076Zm-.874-1.127c-.122.077-.122.276 0 .453.123.176.33.252.43.176.122-.1.122-.3 0-.475-.108-.177-.307-.253-.43-.154Z" fill="#fff"/>
</svg><svg fill="none" viewBox="0 0 24 24" id="github-dark" xmlns="http://www.w3.org/2000/svg">
    <path d="M8.027 18.842c0 .097-.11.174-.251.174-.16.015-.271-.063-.271-.174 0-.097.111-.174.251-.174.146-.015.271.063.271.174Zm-1.504-.218c-.034.097.062.208.208.237.125.049.27 0 .3-.096.029-.097-.063-.209-.208-.252-.126-.034-.267.014-.3.111Zm2.138-.082c-.14.034-.237.126-.222.237.014.097.14.16.285.126.14-.034.237-.126.223-.223-.015-.092-.145-.155-.286-.14ZM11.845 0C5.134 0 0 5.095 0 11.806c0 5.367 3.377 9.959 8.202 11.575.619.11.837-.271.837-.586 0-.3-.015-1.955-.015-2.97 0 0-3.387.725-4.098-1.443 0 0-.552-1.408-1.345-1.77 0 0-1.108-.76.077-.746 0 0 1.205.097 1.868 1.248 1.06 1.868 2.835 1.331 3.527 1.012.112-.774.426-1.312.774-1.63-2.704-.3-5.433-.693-5.433-5.348 0-1.33.367-1.998 1.141-2.85-.125-.314-.537-1.61.126-3.285C6.673 4.698 9 6.319 9 6.319a11.369 11.369 0 0 1 3.039-.41c1.03 0 2.07.14 3.038.41 0 0 2.328-1.625 3.34-1.306.662 1.679.25 2.97.125 3.285.774.857 1.248 1.525 1.248 2.85 0 4.67-2.85 5.042-5.554 5.347.445.382.822 1.108.822 2.245 0 1.631-.014 3.649-.014 4.046 0 .314.222.696.837.585C20.719 21.765 24 17.173 24 11.807 24 5.095 18.556 0 11.845 0ZM4.703 16.689c-.063.048-.048.16.034.251.078.078.189.112.252.049.063-.049.048-.16-.034-.252-.078-.077-.189-.111-.252-.048Zm-.522-.392c-.034.063.014.14.11.188.078.049.175.034.209-.033.034-.063-.015-.14-.111-.19-.097-.028-.174-.014-.208.035Zm1.567 1.722c-.077.063-.048.208.063.3.112.112.252.126.315.049.063-.063.034-.208-.063-.3-.107-.112-.252-.126-.315-.049Zm-.551-.71c-.078.047-.078.173 0 .284.077.112.208.16.27.112.078-.063.078-.189 0-.3-.067-.111-.193-.16-.27-.097Z" fill="#000"/>
</svg><svg viewBox="0 0 32 32" id="leetcode" xmlns="http://www.w3.org/2000/svg">
    <path d="m21.469 23.907-3.595 3.473c-.624.625-1.484.885-2.432.885s-1.807-.26-2.432-.885l-5.776-5.812c-.62-.625-.937-1.537-.937-2.485 0-.952.317-1.812.937-2.432l5.76-5.844c.62-.619 1.5-.859 2.448-.859s1.808.26 2.432.885l3.595 3.473c.687.688 1.823.663 2.536-.052.708-.713.735-1.848.047-2.536l-3.473-3.511a6.793 6.793 0 0 0-3.261-1.787l3.287-3.333c.688-.687.667-1.823-.047-2.536s-1.849-.735-2.536-.052L4.553 13.968c-1.307 1.312-1.989 3.113-1.989 5.113 0 1.996.683 3.86 1.989 5.168l5.797 5.812c1.307 1.307 3.115 1.937 5.115 1.937 1.995 0 3.801-.683 5.109-1.989l3.479-3.521c.688-.683.661-1.817-.052-2.531s-1.849-.74-2.531-.052zm6.28-6.558H14.218c-.932 0-1.692.801-1.692 1.791 0 .991.76 1.797 1.692 1.797h13.531c.933 0 1.693-.807 1.693-1.797 0-.989-.76-1.791-1.693-1.791z"/>
</svg><svg fill="none" viewBox="0 0 90 19" id="logo" xmlns="http://www.w3.org/2000/svg">
    <path d="M.744 9.36c0-1.04.184-2.056.552-3.048a8.885 8.885 0 0 1 1.656-2.736 7.721 7.721 0 0 1 2.64-1.968c1.04-.496 2.224-.744 3.552-.744 1.568 0 2.92.344 4.056 1.032 1.152.688 2.008 1.584 2.568 2.688l-2.544 1.752c-.288-.64-.664-1.144-1.128-1.512a3.958 3.958 0 0 0-1.488-.792 5.36 5.36 0 0 0-1.56-.24c-.832 0-1.56.168-2.184.504a4.886 4.886 0 0 0-1.536 1.32 5.8 5.8 0 0 0-.936 1.824 7.308 7.308 0 0 0-.288 2.016c0 .752.12 1.48.36 2.184.24.688.576 1.304 1.008 1.848.448.528.976.952 1.584 1.272a4.595 4.595 0 0 0 2.04.456c.528 0 1.064-.088 1.608-.264a4.56 4.56 0 0 0 1.512-.84c.464-.384.824-.88 1.08-1.488l2.712 1.56c-.336.848-.888 1.568-1.656 2.16a8.078 8.078 0 0 1-2.544 1.344A9.12 9.12 0 0 1 9 18.144c-1.216 0-2.328-.248-3.336-.744a8.746 8.746 0 0 1-2.616-2.016 10.197 10.197 0 0 1-1.704-2.832 8.95 8.95 0 0 1-.6-3.192ZM29.605 18H26.39v-7.056c0-.976-.192-1.704-.576-2.184-.368-.48-.88-.72-1.536-.72-.384 0-.792.112-1.224.336a4.049 4.049 0 0 0-1.176.936 3.682 3.682 0 0 0-.744 1.344V18h-3.216V.48h3.216v7.272A4.955 4.955 0 0 1 23.03 5.88a5.264 5.264 0 0 1 2.616-.672c.816 0 1.48.144 1.992.432.512.272.912.648 1.2 1.128.288.464.488.992.6 1.584.112.576.168 1.176.168 1.8V18Zm8.628.24c-1.008 0-1.92-.168-2.735-.504a6.425 6.425 0 0 1-2.088-1.416 6.756 6.756 0 0 1-1.344-2.064 6.778 6.778 0 0 1-.457-2.472c0-1.2.264-2.296.792-3.288a6.197 6.197 0 0 1 2.304-2.376c1.009-.608 2.193-.912 3.553-.912 1.375 0 2.551.304 3.527.912a5.902 5.902 0 0 1 2.233 2.376c.527.976.791 2.032.791 3.168 0 .192-.008.392-.023.6-.017.192-.032.352-.049.48h-9.72c.064.64.248 1.2.552 1.68.32.48.72.848 1.2 1.104a3.59 3.59 0 0 0 1.584.36c.64 0 1.24-.152 1.8-.456.577-.32.968-.736 1.177-1.248l2.76.768a5.163 5.163 0 0 1-1.32 1.704 6.312 6.312 0 0 1-1.992 1.176c-.768.272-1.617.408-2.544.408Zm-3.287-7.536h6.576c-.064-.64-.248-1.192-.553-1.656a2.936 2.936 0 0 0-1.151-1.104 3.204 3.204 0 0 0-1.608-.408c-.577 0-1.105.136-1.584.408a3.165 3.165 0 0 0-1.152 1.104c-.288.464-.464 1.016-.528 1.656Zm19.31-2.496c-.975 0-1.847.192-2.615.576-.768.368-1.32.904-1.656 1.608V18h-3.216V5.424h2.952v2.688c.448-.864 1.016-1.544 1.704-2.04s1.416-.768 2.184-.816h.408c.096 0 .176.008.24.024v2.928ZM71.65 5.424h3.048L69.442 18h-2.688l-2.112-5.4-2.064 5.4h-2.712L54.634 5.424h3.024l3.744 9.504 1.464-4.104-2.184-5.376h2.664l1.296 3.84 1.32-3.84h2.664l-2.184 5.376 1.488 4.104 3.72-9.504ZM80.236.96h3.36L89.86 18h-3.408l-1.584-4.248h-5.952L77.356 18h-3.408L80.236.96Zm4.032 10.464-2.352-7.032-2.448 7.032h4.8Z" fill="#fff"/>
</svg><svg viewBox="0 0 192 192" xml:space="preserve" fill="none" id="stepik" xmlns="http://www.w3.org/2000/svg">
    <path fill="#222" d="M122.343 159.179c-6.777 6.558-16.178 10.712-26.234 10.712-10.493 0-19.893-4.154-26.889-11.15l17.708-17.707c2.404 2.405 5.465 3.716 9.181 3.716 3.498 0 6.777-1.53 9.182-3.716l35.852-35.852c2.405-2.405 3.717-5.466 3.717-9.182 0-3.498-1.53-6.777-3.717-9.182-2.404-2.404-5.465-3.716-9.181-3.716-3.717 0-6.777 1.53-9.182 3.716L86.928 122.89c-6.777 6.777-16.396 11.15-26.89 11.15-10.493 0-19.893-4.373-26.889-11.15C26.372 116.112 22 106.493 22 96c0-10.493 4.155-19.894 11.15-26.89l35.852-35.852c6.777-6.777 16.396-11.149 26.89-11.149 10.493 0 19.893 4.154 26.889 11.15l-17.708 17.707c-2.404-2.405-5.465-3.716-9.181-3.716-3.717 0-6.777 1.53-9.182 3.716L50.857 86.818C48.452 89.223 47.14 92.284 47.14 96c0 3.498 1.53 6.777 3.717 9.182 2.404 2.404 5.465 3.716 9.181 3.716 3.498 0 6.777-1.53 9.182-3.716l35.852-35.853c6.777-6.777 16.396-11.149 26.89-11.149 10.493 0 19.893 4.154 26.889 11.15C165.628 76.105 170 85.724 170 96.218c0 10.493-4.155 19.893-11.15 26.889z" style="fill:none;fill-opacity:1;stroke:#000;stroke-width:12;stroke-linecap:round;stroke-linejoin:round;stroke-dasharray:none;stroke-opacity:1"/>
</svg><svg viewBox="0 0 24 24" xml:space="preserve" id="telegram" xmlns="http://www.w3.org/2000/svg">
    <path d="M12 2C6.5 2 2 6.5 2 12s4.5 10 10 10 10-4.5 10-10S17.5 2 12 2zm4.9 6.1-1.7 8.2c-.1.6-.5.7-.9.4l-2.6-2c-.6.6-1.2 1.1-1.3 1.3-.2.1-.3.3-.5.3-.3 0-.3-.2-.4-.4l-.9-3-2.7-.9c-.6-.2-.6-.6.1-.9l10.2-3.9c.4-.1.9.1.7.9zm-2.4.9-5.7 3.6.9 3 .2-2 4.9-4.4c.3-.3.1-.3-.3-.2z"/>
    <path style="fill:none" d="M0 0h24v24H0z"/>
</svg></svg>