<svg width="34" height="34" viewBox="0 0 34 34" fill="none" xmlns="http://www.w3.org/2000/svg">
<path d="M29.1125 5.84375H19.3375L17.1063 10.3062H4.56875V14.5562H0.53125L4.56875 28.1562H31.3438V5.84375H29.1125ZM21.4625 8.075H29.0062V10.3062H20.4L21.4625 8.075ZM27.3063 14.5562H7.0125V12.5375H29.1125V20.6401L27.3063 14.5562Z" fill="#7DC1D1"/>
<path d="M31.5499 15.3988C30.8085 14.657 29.8075 14.2327 28.7589 14.2159C27.7102 14.199 26.6962 14.5909 25.9314 15.3085C25.8939 15.3435 25.8638 15.3858 25.843 15.4327C25.8222 15.4796 25.8111 15.5302 25.8102 15.5815C25.8097 15.6332 25.8194 15.6845 25.8387 15.7325C25.858 15.7804 25.8866 15.8241 25.9229 15.861L26.4329 16.3699C26.4982 16.4359 26.5854 16.4759 26.6781 16.4823C26.7707 16.4888 26.8626 16.4613 26.9365 16.405C27.4053 16.0533 27.9901 15.8925 28.5728 15.9548C29.1556 16.0172 29.6931 16.2982 30.0769 16.7412C30.4606 17.1841 30.6623 17.7561 30.641 18.3418C30.6198 18.9275 30.3773 19.4834 29.9625 19.8974C26.7633 23.1147 22.4655 14.1217 12.75 18.7499C12.593 18.823 12.452 18.9263 12.335 19.054C12.2179 19.1816 12.1272 19.3311 12.068 19.4938C12.0088 19.6565 11.9823 19.8293 11.9899 20.0023C11.9975 20.1753 12.0392 20.3451 12.1125 20.502C12.1281 20.5358 12.1455 20.5688 12.1645 20.6008L13.8242 23.4812C13.9982 23.781 14.2829 24.0006 14.6172 24.0926C14.9514 24.1846 15.3084 24.1417 15.6113 23.9732L15.6527 23.9487L15.6198 23.9732L16.3635 23.5577C17.1878 23.0482 17.967 22.4692 18.6925 21.8269C18.764 21.7603 18.8573 21.7218 18.955 21.7187C19.0527 21.7155 19.1482 21.748 19.2238 21.8099C19.301 21.8734 19.3501 21.9649 19.3602 22.0644C19.3704 22.1639 19.3408 22.2634 19.278 22.3412C19.2622 22.3613 19.244 22.3795 19.2238 22.3954C18.4666 23.0795 17.6514 23.6967 16.7875 24.2399L16.7609 24.2547L16.0172 24.667C15.7055 24.8435 15.3532 24.9358 14.995 24.9347C14.6227 24.9349 14.257 24.8367 13.9348 24.6501C13.6126 24.4636 13.3453 24.1952 13.1601 23.8722L11.5812 21.1554C8.55629 23.2942 6.71923 27.4125 7.70523 32.6251C7.7217 32.7134 7.76873 32.7931 7.83809 32.8503C7.90745 32.9074 7.9947 32.9383 8.08454 32.9375H9.88123C9.9774 32.9414 10.0715 32.9089 10.1448 32.8464C10.218 32.784 10.2651 32.6962 10.2765 32.6007C10.3586 31.9665 10.6688 31.3839 11.1491 30.9617C11.6294 30.5396 12.247 30.3068 12.8865 30.3068C13.526 30.3068 14.1436 30.5396 14.6239 30.9617C15.1042 31.3839 15.4144 31.9665 15.4965 32.6007C15.5076 32.6926 15.5516 32.7773 15.6203 32.8393C15.6891 32.9012 15.778 32.9361 15.8705 32.9375H17.6162C17.7101 32.9373 17.8007 32.903 17.8712 32.8411C17.9418 32.7791 17.9874 32.6937 17.9998 32.6007C18.0791 31.9648 18.3879 31.3797 18.8683 30.9555C19.3486 30.5313 19.9674 30.2972 20.6082 30.2972C21.2491 30.2972 21.8678 30.5313 22.3482 30.9555C22.8285 31.3797 23.1374 31.9648 23.2167 32.6007C23.2278 32.6936 23.2727 32.7793 23.3429 32.8414C23.413 32.9034 23.5034 32.9376 23.597 32.9375H25.3268C25.4273 32.9375 25.5238 32.8979 25.5954 32.8273C25.667 32.7567 25.7079 32.6608 25.7093 32.5603C25.7518 30.1219 26.4084 27.3222 28.2837 25.9207C34.7586 21.0672 33.0512 16.9075 31.5499 15.3988ZM24.9337 22.7375L23.6937 22.1191C23.693 21.986 23.7265 21.8549 23.791 21.7384C23.8554 21.6219 23.9487 21.5239 24.0619 21.4537C24.1751 21.3836 24.3044 21.3438 24.4375 21.3379C24.5705 21.3321 24.7028 21.3605 24.8217 21.4205C24.9406 21.4805 25.0421 21.5699 25.1165 21.6804C25.1909 21.7908 25.2357 21.9185 25.2466 22.0512C25.2575 22.1839 25.2342 22.3171 25.1788 22.4382C25.1235 22.5594 25.038 22.6642 24.9305 22.7428L24.9337 22.7375Z" fill="#D2D2D2"/>
</svg>
