<svg width="34" height="34" viewBox="0 0 34 34" fill="none" xmlns="http://www.w3.org/2000/svg">
<path d="M33.5658 14.958L26.8653 2.04196C26.2844 0.921563 24.8579 0 23.6921 0H10.3051C9.14349 0 7.7113 0.921563 7.13191 2.04196L0.435607 14.958C-0.145202 16.0784 -0.145202 17.9137 0.435607 19.0356L7.12908 31.958C7.70989 33.0784 9.13641 34 10.3023 34H23.6963C24.8579 34 26.283 33.0784 26.8695 31.958L33.5644 19.0341C34.1452 17.9137 34.1452 16.0784 33.5644 14.958H33.5658ZM15.5508 7.14527C15.5508 6.29787 16.1713 5.6067 16.9306 5.6067C17.6899 5.6067 18.3118 6.29787 18.3118 7.14527V16.3309C18.2893 16.7215 18.1341 17.088 17.8779 17.3557C17.6216 17.6235 17.2834 17.7725 16.932 17.7725C16.5806 17.7725 16.2424 17.6235 15.9861 17.3557C15.7299 17.088 15.5747 16.7215 15.5522 16.3309L15.5508 7.14527ZM16.9306 26.76C14.4488 26.7563 12.0697 25.6562 10.3151 23.7011C8.56053 21.746 7.57368 19.0955 7.57106 16.3309C7.57463 14.7049 7.91787 13.1022 8.57361 11.6495C9.22935 10.1968 10.1796 8.93401 11.3492 7.96111C11.4787 7.8536 11.626 7.77566 11.7827 7.73174C11.9393 7.68782 12.1022 7.6788 12.262 7.70519C12.4218 7.73158 12.5753 7.79287 12.7138 7.88553C12.8523 7.97819 12.973 8.1004 13.0689 8.24515C13.1654 8.38921 13.2353 8.55304 13.2749 8.72726C13.3144 8.90148 13.3227 9.08268 13.2992 9.26048C13.2758 9.43827 13.2212 9.60918 13.1384 9.76341C13.0556 9.91764 12.9463 10.0522 12.8168 10.1593C11.3976 11.3961 10.4685 13.2016 10.2276 15.1907C9.98672 17.1799 10.4531 19.1951 11.5273 20.8066C12.6015 22.4181 14.1985 23.4982 15.9775 23.8165C17.7566 24.1348 19.5769 23.6661 21.0501 22.5104C21.9149 21.7937 22.6172 20.8616 23.101 19.7887C23.5848 18.7157 23.8367 17.5316 23.8366 16.3309C23.8334 15.1257 23.5773 13.938 23.0889 12.8626C22.6004 11.7872 21.893 10.8539 21.0232 10.1372C20.7613 9.92096 20.587 9.59799 20.5385 9.23896C20.4899 8.87993 20.5709 8.51408 20.7639 8.22148C20.958 7.9298 21.248 7.73566 21.5703 7.68154C21.8926 7.62742 22.221 7.71773 22.4837 7.9327C23.6627 8.9043 24.6211 10.17 25.2821 11.6283C25.9431 13.0867 26.2883 14.6972 26.2901 16.3309C26.2882 19.0958 25.3014 21.7469 23.5463 23.702C21.7912 25.6571 19.4113 26.7564 16.9292 26.7585" fill="black"/>
</svg>
