<svg width="34" height="34" viewBox="0 0 34 34" fill="none" xmlns="http://www.w3.org/2000/svg">
<g clip-path="url(#clip0_57847_158)">
<path d="M16.9998 33.1356C25.9112 33.1356 33.1354 25.9115 33.1354 17C33.1354 8.08858 25.9112 0.86438 16.9998 0.86438C8.08833 0.86438 0.864258 8.08858 0.864258 17C0.864258 25.9115 8.08833 33.1356 16.9998 33.1356Z" fill="white"/>
<path d="M17 0C7.61122 0 0 7.61122 0 17C0 26.3888 7.61122 34 17 34C26.3888 34 34 26.3889 34 17C34 7.61122 26.3889 0 17 0ZM17 1.72882C25.434 1.72882 32.2712 8.56601 32.2712 17C32.2712 25.434 25.434 32.2712 17 32.2712C8.56601 32.2712 1.72882 25.434 1.72882 17C1.72882 8.56601 8.56601 1.72882 17 1.72882Z" fill="#4000BF"/>
<path d="M17.1916 4.89832C23.8752 4.89832 29.2933 10.3165 29.2933 17.0001C29.2933 23.6836 23.8752 29.1017 17.1915 29.1017C10.5079 29.1017 5.08984 23.6836 5.08984 17.0001C5.08984 15.3667 5.41351 13.8088 6.00014 12.3871C6.85665 13.5536 8.23803 14.3107 9.79605 14.3107C12.3952 14.3107 14.5023 12.2037 14.5023 9.60453C14.5023 8.04637 13.7451 6.66512 12.5786 5.80861C14.0004 5.22198 15.5581 4.89832 17.1916 4.89832Z" fill="url(#paint0_linear_57847_158)"/>
</g>
<defs>
<linearGradient id="paint0_linear_57847_158" x1="1215.26" y1="2425.23" x2="1215.26" y2="4.89832" gradientUnits="userSpaceOnUse">
<stop stop-color="#7400E1"/>
<stop offset="1" stop-color="#4000BF"/>
</linearGradient>
<clipPath id="clip0_57847_158">
<rect width="34" height="34" fill="white"/>
</clipPath>
</defs>
</svg>
