<svg width="34" height="34" viewBox="0 0 34 34" fill="none" xmlns="http://www.w3.org/2000/svg">
<path d="M2.125 2.125H31.875V31.875H2.125V2.125Z" fill="#F5DE19"/>
<path d="M22.1098 25.3673C22.3637 25.8818 22.7576 26.3143 23.2463 26.615C23.735 26.9157 24.2986 27.0725 24.8723 27.0673C26.0304 27.0673 26.771 26.4882 26.771 25.686C26.771 24.7297 26.0103 24.3876 24.7353 23.8298L24.0361 23.5302C22.0174 22.6706 20.6786 21.5943 20.6786 19.3184C20.6786 17.2221 22.2724 15.6252 24.7724 15.6252C25.5817 15.5669 26.3903 15.7481 27.0973 16.1462C27.8043 16.5443 28.3785 17.1417 28.7483 17.8639L26.5628 19.2611C26.4203 18.903 26.1724 18.5967 25.8519 18.3826C25.5314 18.1686 25.1535 18.057 24.7682 18.0626C24.6001 18.0457 24.4303 18.0641 24.2696 18.1165C24.109 18.1689 23.9611 18.2542 23.8352 18.367C23.7094 18.4797 23.6084 18.6175 23.5387 18.7714C23.469 18.9253 23.4322 19.0921 23.4305 19.2611C23.4305 20.0994 23.9501 20.4394 25.1496 20.9611L25.8488 21.2607C28.2245 22.2796 29.5675 23.3177 29.5675 25.652C29.5675 28.1691 27.5902 29.5482 24.935 29.5482C23.9006 29.6134 22.8693 29.3783 21.9654 28.871C21.0615 28.3637 20.3235 27.606 19.8403 26.689L22.1098 25.3673ZM12.2339 25.6095C12.6727 26.3883 13.0722 27.0471 14.0327 27.0471C14.9507 27.0471 15.5308 26.6879 15.5308 25.2907V15.7846H18.3263V25.3279C18.3263 28.2222 16.6263 29.5397 14.1517 29.5397C13.277 29.5875 12.4083 29.3695 11.6598 28.9144C10.9113 28.4593 10.318 27.7883 9.95801 26.9897L12.2339 25.6095Z" fill="black"/>
</svg>
