<svg width="24" height="24" viewBox="0 0 24 24" fill="none" xmlns="http://www.w3.org/2000/svg">
<g clip-path="url(#clip0_57847_156)">
<path d="M30.3636 42V8L35 42V8M1 8H5.63636V35.625C5.63636 37.3158 5.39213 38.9373 4.95738 40.1328C4.52264 41.3284 3.933 42 3.31818 42C2.70336 42 2.11372 41.3284 1.67898 40.1328C1.24424 38.9373 1 37.3158 1 35.625V33.5M10.2727 37.75C10.2727 38.8772 10.4356 39.9582 10.7254 40.7552C11.0152 41.5522 11.4083 42 11.8182 42H13.3636C13.7735 42 14.1666 41.5522 14.4564 40.7552C14.7463 39.9582 14.9091 38.8772 14.9091 37.75V29.25C14.9091 28.1228 14.7463 27.0418 14.4564 26.2448C14.1666 25.4478 13.7735 25 13.3636 25H11.8182C11.4083 25 11.0152 24.5522 10.7254 23.7552C10.4356 22.9582 10.2727 21.8772 10.2727 20.75V12.25C10.2727 11.1228 10.4356 10.0418 10.7254 9.2448C11.0152 8.44777 11.4083 8 11.8182 8H13.3636C13.7735 8 14.1666 8.44777 14.4564 9.2448C14.7463 10.0418 14.9091 11.1228 14.9091 12.25M22.6364 8C23.4561 8 24.2423 8.89553 24.822 10.4896C25.4016 12.0837 25.7273 14.2457 25.7273 16.5V33.5C25.7273 35.7543 25.4016 37.9163 24.822 39.5104C24.2423 41.1045 23.4561 42 22.6364 42C21.8166 42 21.0304 41.1045 20.4508 39.5104C19.8711 37.9163 19.5455 35.7543 19.5455 33.5V16.5C19.5455 14.2457 19.8711 12.0837 20.4508 10.4896C21.0304 8.89553 21.8166 8 22.6364 8Z" stroke="black" stroke-width="2" stroke-linecap="round" stroke-linejoin="round"/>
</g>
<defs>
<clipPath id="clip0_57847_156">
<rect width="24" height="24" fill="white"/>
</clipPath>
</defs>
</svg>
