<svg width="34" height="34" viewBox="0 0 34 34" fill="none" xmlns="http://www.w3.org/2000/svg">
<g clip-path="url(#clip0_57847_87)">
<path d="M16.882 0.507889C16.5815 0.523138 16.2871 0.597731 16.0161 0.727295L4.19547 6.37501C3.88956 6.52112 3.62076 6.73371 3.40905 6.99697C3.19733 7.26024 3.04813 7.56742 2.97254 7.89572L0.0567708 20.582C-0.0105467 20.8742 -0.0180801 21.1769 0.0346165 21.4721C0.0873131 21.7673 0.199169 22.049 0.363568 22.3006C0.403459 22.3621 0.446365 22.4217 0.49213 22.4791L8.67338 32.6514C8.88515 32.9147 9.15398 33.1272 9.45992 33.2732C9.76586 33.4193 10.101 33.4951 10.4406 33.4951L23.5609 33.4919C23.9003 33.4921 24.2354 33.4165 24.5413 33.2708C24.8472 33.125 25.1161 32.9128 25.3281 32.6498L33.5064 22.4761C33.7183 22.2128 33.8676 21.9055 33.9432 21.5771C34.0189 21.2486 34.0189 20.9075 33.9433 20.579L31.0225 7.8928C30.947 7.56445 30.7978 7.25721 30.5861 6.9939C30.3744 6.73059 30.1055 6.51796 29.7996 6.37183L17.978 0.727295C17.6369 0.564295 17.2601 0.488852 16.882 0.507889Z" fill="#326CE5"/>
<path d="M16.9936 4.81921V4.82187C16.6026 4.82559 16.286 5.17675 16.286 5.61131C16.286 5.61875 16.2873 5.62512 16.2873 5.63096C16.2868 5.68993 16.2841 5.76112 16.286 5.81265C16.2953 6.06393 16.3497 6.25571 16.3829 6.48601C16.4281 6.8632 16.44 7.16256 16.4424 7.46537L16.452 7.42181C16.4477 7.20958 16.4373 6.99752 16.4206 6.7859C16.4576 7.11209 16.4844 7.41384 16.47 7.6869C16.4661 7.60057 16.4538 7.50707 16.4525 7.42606L16.4429 7.46962C16.4437 7.56179 16.4684 7.67946 16.4613 7.76792C16.4451 7.84495 16.384 7.8994 16.3372 7.96501L16.3306 7.99715C16.3765 7.93685 16.4246 7.87921 16.4528 7.81148C16.4172 7.92384 16.3412 8.02292 16.265 8.10207C16.2862 8.06914 16.3038 8.03248 16.3287 7.99981L16.3356 7.96793C16.2971 8.02185 16.2753 8.08932 16.2334 8.12996L16.2318 8.13156L16.2148 8.42906C15.786 8.46466 15.3603 8.52999 14.9406 8.62456C13.1718 9.0247 11.5627 9.94357 10.3192 11.2635C10.2406 11.2099 10.1067 11.1148 10.0669 11.085L10.0656 11.0837L10.0629 11.0842C9.93593 11.1012 9.81055 11.1392 9.64587 11.0436C9.33057 10.8311 9.04263 10.5371 8.69387 10.183C8.53423 10.0138 8.41841 9.85201 8.22796 9.68865C8.18466 9.6512 8.11905 9.60099 8.07071 9.56301C7.92937 9.44916 7.75531 9.38354 7.57399 9.37575C7.35485 9.36831 7.14368 9.45384 7.00555 9.62729C6.75985 9.93542 6.83874 10.4064 7.18033 10.6792L7.19096 10.6861C7.23718 10.7241 7.29455 10.7727 7.33758 10.8045C7.53999 10.9536 7.7246 11.0301 7.92462 11.148C8.34802 11.4094 8.69758 11.6256 8.97543 11.8862C9.08221 11.9996 9.10133 12.2023 9.11621 12.2912V12.2934L9.34119 12.4937C8.12968 14.3196 7.56815 16.5737 7.89832 18.8702L7.60533 18.9563L7.60427 18.9579C7.52591 19.0591 7.41515 19.2161 7.30279 19.2626C6.93994 19.3768 6.53035 19.4188 6.03576 19.4706C5.80413 19.4899 5.60385 19.4788 5.35682 19.5255C5.30237 19.5362 5.22666 19.5553 5.16743 19.5691L5.16132 19.5707L5.15069 19.5736C4.73101 19.6754 4.46007 20.0616 4.54773 20.4427C4.63458 20.8239 5.04524 21.0553 5.46785 20.9642L5.47821 20.9626H5.47874C5.48405 20.9612 5.48883 20.9586 5.49202 20.9578C5.55046 20.945 5.62377 20.931 5.6753 20.9169C5.91782 20.8518 6.0934 20.7567 6.31094 20.6736C6.77844 20.5057 7.16573 20.3654 7.54265 20.311C7.69724 20.2988 7.86246 20.4072 7.9456 20.4536L7.94773 20.4547L8.25373 20.4024C8.96401 22.6002 10.4494 24.3761 12.33 25.4923L12.2025 25.7983L12.2033 25.8009C12.2495 25.9205 12.3 26.0817 12.2663 26.1972C12.1292 26.5521 11.8944 26.9274 11.6266 27.3463C11.497 27.5397 11.3637 27.6903 11.2468 27.9124C11.2184 27.9658 11.183 28.0471 11.1559 28.1028C10.9727 28.4946 11.1071 28.9467 11.4596 29.1165C11.8142 29.2873 12.2538 29.1069 12.4442 28.7146L12.4461 28.7124V28.7098C12.4726 28.6548 12.5104 28.5828 12.5335 28.5308C12.6339 28.3007 12.6676 28.1039 12.738 27.8824H12.7372C12.9247 27.4114 13.0278 26.9189 13.2841 26.6132C13.3532 26.5309 13.4669 26.4985 13.5859 26.4666L13.5885 26.4655L13.7479 26.1776C15.8463 26.9843 18.1682 26.9902 20.2706 26.1941C20.3163 26.2745 20.3976 26.4238 20.4201 26.4623L20.4212 26.4639L20.4233 26.465C20.545 26.5046 20.6751 26.5242 20.7819 26.6817C20.9737 27.0103 21.1055 27.3997 21.2659 27.8704C21.3363 28.0914 21.3714 28.2888 21.4718 28.5188C21.4949 28.5719 21.5329 28.645 21.5594 28.7005C21.7493 29.0942 22.1903 29.275 22.5457 29.1042C22.8979 28.9342 23.0323 28.4827 22.8493 28.0909C22.8222 28.0351 22.7847 27.9533 22.7568 27.8999C22.6397 27.6778 22.5064 27.5288 22.377 27.3354C22.1087 26.9166 21.8875 26.5691 21.7501 26.214C21.6936 26.032 21.7597 25.9207 21.8048 25.8009L21.8064 25.7972L21.8038 25.7946C21.7944 25.7805 21.7864 25.7655 21.7799 25.7499C21.7686 25.7245 21.758 25.6989 21.748 25.6729C21.7268 25.6171 21.7055 25.5555 21.6885 25.5146C23.643 24.3591 25.0848 22.517 25.7632 20.3894C25.8554 20.4037 26.0102 20.4305 26.0607 20.4406L26.0634 20.4412L26.0657 20.4401C26.1725 20.3697 26.2676 20.2791 26.4575 20.2943C26.8345 20.3487 27.2215 20.4892 27.6895 20.6571C27.9065 20.74 28.0824 20.8369 28.3251 20.9017C28.3767 20.9156 28.45 20.9286 28.5084 20.9413C28.5116 20.9421 28.5161 20.9445 28.5217 20.9458H28.5222L28.5329 20.9469C28.9552 21.0375 29.3661 20.8067 29.453 20.4255C29.5398 20.0443 29.2694 19.6584 28.8495 19.5572C28.7892 19.5433 28.7031 19.5197 28.6436 19.5083C28.3966 19.4615 28.1966 19.4732 27.9644 19.4538C27.4704 19.402 27.0608 19.3601 26.6974 19.2458C26.5521 19.1893 26.4472 19.0142 26.3951 18.9409L26.3935 18.9393L26.1104 18.857C26.2617 17.7569 26.2113 16.6385 25.9616 15.5566C25.7114 14.4638 25.2628 13.4261 24.638 12.4952C24.7118 12.4283 24.8465 12.309 24.8856 12.2732L24.8874 12.2716V12.2689C24.8991 12.1414 24.889 12.0113 25.0189 11.8721C25.2965 11.6118 25.6468 11.3948 26.07 11.1339C26.2703 11.016 26.4562 10.9397 26.6581 10.7905C26.7043 10.7565 26.7665 10.7033 26.8143 10.6648C27.1559 10.3923 27.235 9.92161 26.9891 9.61321C26.7434 9.30509 26.2671 9.27667 25.9258 9.54893C25.8774 9.58745 25.8115 9.63712 25.768 9.67457C25.5775 9.83873 25.4599 10.0002 25.3005 10.1694C24.9517 10.524 24.6635 10.8192 24.3479 11.0317C24.2133 11.1097 24.0138 11.0829 23.9221 11.0773H23.92L23.6533 11.2683C22.1193 9.66182 20.0329 8.63439 17.7857 8.43357C17.7791 8.32968 17.7734 8.22573 17.7687 8.12173V8.1196L17.7671 8.11801C17.6741 8.02956 17.5652 7.95598 17.5376 7.76792V7.76739C17.507 7.38807 17.558 6.97928 17.6173 6.48601C17.6505 6.25571 17.7055 6.06367 17.7145 5.81265C17.7169 5.75528 17.7132 5.67267 17.7132 5.61131C17.7132 5.17435 17.3936 4.81921 16.9992 4.81921H16.9936ZM7.65023 9.39699C7.68777 9.40231 7.72478 9.40992 7.76126 9.41984C7.72484 9.4096 7.68773 9.40196 7.65023 9.39699ZM16.1072 10.32L15.8981 14.0202L15.883 14.0279L15.8825 14.0314C15.8819 14.0446 15.8788 14.0566 15.8772 14.0693C15.8684 14.1489 15.8447 14.2262 15.8073 14.297C15.7976 14.3158 15.7869 14.3341 15.7752 14.352C15.7268 14.4225 15.6644 14.4824 15.5919 14.5278C15.5733 14.5398 15.5528 14.5491 15.5329 14.5592C15.4601 14.5936 15.3814 14.614 15.301 14.6192C15.2891 14.62 15.2776 14.6229 15.2657 14.6229C15.2524 14.6229 15.2407 14.6171 15.2277 14.616C15.1393 14.6076 15.0539 14.58 14.9772 14.5352C14.9653 14.5283 14.9523 14.5244 14.9408 14.5169L14.9392 14.5228L14.9403 14.5169C14.9286 14.5097 14.9132 14.5127 14.9021 14.5044L14.8989 14.5018L14.893 14.5055L11.8593 12.3547C11.884 12.3306 11.9103 12.3085 11.9356 12.2846C12.2034 12.0299 12.4902 11.7959 12.7935 11.5847C12.8565 11.5409 12.9192 11.4965 12.9834 11.4545C13.3062 11.244 13.6451 11.0594 13.9971 10.9026C14.0608 10.8741 14.1264 10.8484 14.191 10.8215C14.5395 10.6777 14.8986 10.5612 15.2652 10.473C15.297 10.4651 15.3284 10.4552 15.3608 10.4481C15.5138 10.4135 15.6694 10.3934 15.8243 10.3687L15.8259 10.362H15.827L15.8254 10.3687C15.9197 10.3538 16.0126 10.3315 16.1072 10.32ZM17.8938 10.3206C17.9461 10.3269 17.9974 10.3386 18.0494 10.3463C18.3324 10.3882 18.6126 10.4464 18.8888 10.5206C18.9983 10.55 19.1067 10.5819 19.2142 10.6162C19.4885 10.7039 19.7575 10.8075 20.0198 10.9265C20.1194 10.9716 20.2178 11.019 20.3152 11.0686C20.5742 11.2009 20.8252 11.3483 21.0669 11.51C21.158 11.5713 21.2478 11.6348 21.3366 11.7005C21.568 11.8712 21.7894 12.0551 21.9996 12.2514C22.0378 12.287 22.0784 12.3197 22.1159 12.3563L19.1021 14.493L19.0915 14.489L19.0888 14.4912C19.0769 14.4997 19.0639 14.5031 19.0516 14.5108C18.9804 14.5559 18.9007 14.5861 18.8174 14.5995C18.7969 14.6027 18.7767 14.6075 18.7563 14.6083C18.6663 14.6119 18.5766 14.5959 18.4933 14.5615C18.469 14.552 18.4455 14.5408 18.4229 14.5278C18.3454 14.485 18.2778 14.4261 18.2248 14.3552C18.2115 14.3368 18.2014 14.3164 18.1902 14.2967C18.1496 14.2239 18.1236 14.1439 18.1137 14.0611C18.1121 14.0465 18.1068 14.0337 18.1058 14.0189V14.0159L18.1028 14.0144L17.8938 10.3206ZM25.2442 13.5676C25.3738 13.8316 25.4904 14.1012 25.594 14.3764C25.4902 14.1014 25.3735 13.8315 25.2442 13.5676ZM10.7474 13.7509L13.5179 16.2286L13.5147 16.2435L13.5174 16.2456C13.767 16.4626 13.8016 16.8379 13.5952 17.0964C13.5877 17.1057 13.5771 17.1115 13.5691 17.1203C13.498 17.1992 13.4078 17.2586 13.3072 17.293C13.2958 17.2969 13.2865 17.3044 13.2751 17.3076L13.2714 17.3081L13.2682 17.3206L9.71758 18.3459C9.71227 18.2968 9.71227 18.2476 9.70776 18.1985C9.68126 17.9032 9.6731 17.6065 9.68332 17.3102C9.68668 17.2075 9.69226 17.105 9.70005 17.0026C9.72236 16.7076 9.7629 16.4142 9.82144 16.1242C9.84287 16.0162 9.86704 15.9086 9.89396 15.8015C9.96434 15.5164 10.0522 15.2359 10.1569 14.9616C10.1941 14.8635 10.2338 14.7663 10.2759 14.6702C10.3931 14.3977 10.527 14.1327 10.677 13.8768C10.7009 13.8353 10.7222 13.7918 10.7474 13.7509ZM23.2323 13.7527C23.2581 13.7947 23.2791 13.8388 23.304 13.881C23.4555 14.1391 23.5912 14.4061 23.7104 14.6805C23.7503 14.7724 23.7896 14.8649 23.8257 14.9584C23.9357 15.2436 24.0279 15.5352 24.102 15.8318C24.1139 15.8782 24.1296 15.9237 24.1402 15.9707C24.3235 16.7681 24.3687 17.5642 24.2938 18.3337L20.7254 17.3057L20.7224 17.2906L20.7187 17.2895C20.7068 17.2863 20.6964 17.2805 20.685 17.2765C20.6079 17.25 20.5367 17.209 20.4751 17.1556C20.4595 17.1422 20.4445 17.128 20.43 17.1131C20.3719 17.0499 20.3275 16.9754 20.2996 16.8943C20.2924 16.8735 20.2879 16.8523 20.2828 16.8308C20.2654 16.753 20.2627 16.6726 20.2749 16.5938C20.2772 16.5808 20.2775 16.5683 20.2802 16.5553C20.2828 16.5434 20.2903 16.533 20.2934 16.5211C20.323 16.4207 20.3777 16.3296 20.4526 16.2565C20.4616 16.2477 20.4669 16.2363 20.4765 16.2281L20.4791 16.2254L20.4775 16.2174L23.2323 13.7527ZM25.6835 14.6306C25.7715 14.887 25.848 15.1472 25.913 15.411C25.8479 15.1477 25.7714 14.8873 25.6835 14.6306ZM16.4334 16.4241H17.5655L18.2694 17.3044L18.017 18.4022L16.9997 18.891L15.9805 18.4001L15.7274 17.3025L16.4334 16.4241ZM20.0796 19.4509C20.1274 19.4482 20.1744 19.453 20.2212 19.4615L20.2249 19.4623L20.231 19.4544L23.9041 20.0754C23.8871 20.1232 23.865 20.1686 23.847 20.2162C23.7424 20.4896 23.6218 20.7567 23.4857 21.016C23.4354 21.1123 23.3829 21.2074 23.3282 21.3012C23.1789 21.5559 23.0145 21.8014 22.836 22.0365C22.7715 22.1215 22.7053 22.2048 22.6373 22.2864C22.4476 22.5137 22.2445 22.7294 22.029 22.9324C21.9518 23.0051 21.8729 23.0759 21.7921 23.1449C21.5691 23.3368 21.335 23.5153 21.0909 23.6794C21.0484 23.7078 21.0085 23.7392 20.9657 23.7668L19.5407 20.3224L19.5446 20.3166L19.5436 20.3137C19.5383 20.3017 19.5367 20.2892 19.5322 20.2773C19.5054 20.2015 19.4933 20.1214 19.4963 20.0411C19.4974 20.0196 19.4979 19.9981 19.5011 19.9768C19.5142 19.8928 19.5444 19.8124 19.5898 19.7404C19.6018 19.7213 19.6158 19.704 19.6296 19.6862C19.6797 19.6242 19.741 19.5721 19.8103 19.5327C19.8217 19.5263 19.8313 19.5181 19.8429 19.5125C19.9197 19.4756 19.9999 19.4546 20.0796 19.4509ZM13.8879 19.4658L13.8914 19.4663C13.8993 19.4663 13.9073 19.4684 13.9158 19.469C14.0333 19.4768 14.1462 19.5178 14.2414 19.5872C14.2597 19.6003 14.277 19.6143 14.2935 19.6291C14.381 19.7079 14.4444 19.8097 14.4765 19.9229C14.4786 19.9309 14.4824 19.9386 14.4845 19.9468C14.5137 20.0741 14.5018 20.2071 14.45 20.3269L14.4486 20.3301L14.4593 20.3434L13.0488 23.7532C13.0076 23.7267 12.9691 23.6969 12.929 23.6696C12.6849 23.5055 12.4507 23.3272 12.2277 23.1354C12.1473 23.066 12.0684 22.9949 11.9911 22.9221C11.7775 22.721 11.5759 22.5074 11.3876 22.2825C11.3185 22.1996 11.2512 22.1154 11.1857 22.0299C11.0107 21.8 10.8493 21.5602 10.7023 21.3116C10.6444 21.2135 10.5888 21.114 10.5357 21.0133C10.4015 20.7595 10.2821 20.4981 10.1782 20.2305C10.1596 20.1824 10.1373 20.1359 10.1197 20.0873L13.7607 19.4695L13.7668 19.4775L13.7705 19.4761C13.8094 19.4691 13.8484 19.4656 13.8879 19.4658ZM16.9771 20.9642C16.9925 20.9636 17.0074 20.9676 17.0228 20.9682C17.0913 20.9709 17.1588 20.9852 17.2226 21.0104C17.2369 21.016 17.2523 21.0184 17.2661 21.0253V21.0258C17.3842 21.0816 17.4813 21.1737 17.5432 21.2888L17.5448 21.2919H17.5588L19.3537 24.536C19.2804 24.5605 19.2057 24.582 19.1316 24.604C19.0439 24.6302 18.9557 24.6547 18.867 24.6776C18.7919 24.6973 18.7172 24.7174 18.6413 24.7347C18.6083 24.7424 18.5749 24.7469 18.5414 24.7538C18.1756 24.8319 17.8044 24.8817 17.4311 24.9029C17.3567 24.9071 17.2828 24.9122 17.2085 24.9143C16.825 24.9247 16.4413 24.9049 16.061 24.855C15.9866 24.8455 15.9122 24.8325 15.8384 24.8205C15.4733 24.7616 15.1132 24.675 14.7613 24.5615C14.7275 24.5506 14.693 24.5424 14.6593 24.531L16.4501 21.2935H16.4528L16.4546 21.2904C16.4615 21.2776 16.4719 21.2678 16.4796 21.2558C16.5221 21.189 16.5767 21.1308 16.6406 21.084C16.6624 21.068 16.6854 21.0535 16.7096 21.0404C16.7799 21.0033 16.8565 20.9797 16.9354 20.9708C16.9498 20.9695 16.9628 20.9647 16.9771 20.9642ZM20.1033 26.2384C19.819 26.3397 19.5306 26.4267 19.2379 26.4995C19.5304 26.4266 19.8192 26.3394 20.1033 26.2384Z" fill="white"/>
</g>
<defs>
<clipPath id="clip0_57847_87">
<rect width="34" height="34" fill="white"/>
</clipPath>
</defs>
</svg>
