<svg width="90" height="19" viewBox="0 0 90 19" fill="none" xmlns="http://www.w3.org/2000/svg">
<path d="M0.744 9.36C0.744 8.32 0.928 7.304 1.296 6.312C1.68 5.304 2.232 4.392 2.952 3.576C3.672 2.744 4.552 2.088 5.592 1.608C6.632 1.112 7.816 0.863999 9.144 0.863999C10.712 0.863999 12.064 1.208 13.2 1.896C14.352 2.584 15.208 3.48 15.768 4.584L13.224 6.336C12.936 5.696 12.56 5.192 12.096 4.824C11.632 4.44 11.136 4.176 10.608 4.032C10.08 3.872 9.56 3.792 9.048 3.792C8.216 3.792 7.488 3.96 6.864 4.296C6.256 4.632 5.744 5.072 5.328 5.616C4.912 6.16 4.6 6.768 4.392 7.44C4.2 8.112 4.104 8.784 4.104 9.456C4.104 10.208 4.224 10.936 4.464 11.64C4.704 12.328 5.04 12.944 5.472 13.488C5.92 14.016 6.448 14.44 7.056 14.76C7.68 15.064 8.36 15.216 9.096 15.216C9.624 15.216 10.16 15.128 10.704 14.952C11.248 14.776 11.752 14.496 12.216 14.112C12.68 13.728 13.04 13.232 13.296 12.624L16.008 14.184C15.672 15.032 15.12 15.752 14.352 16.344C13.6 16.936 12.752 17.384 11.808 17.688C10.864 17.992 9.928 18.144 9 18.144C7.784 18.144 6.672 17.896 5.664 17.4C4.656 16.888 3.784 16.216 3.048 15.384C2.328 14.536 1.76 13.592 1.344 12.552C0.944 11.496 0.744 10.432 0.744 9.36ZM29.6051 18H26.3891V10.944C26.3891 9.968 26.1971 9.24 25.8131 8.76C25.4451 8.28 24.9331 8.04 24.2771 8.04C23.8931 8.04 23.4851 8.152 23.0531 8.376C22.6211 8.6 22.2291 8.912 21.8771 9.312C21.5411 9.696 21.2931 10.144 21.1331 10.656V18H17.9171V0.48H21.1331V7.752C21.5971 6.952 22.2291 6.328 23.0291 5.88C23.8291 5.432 24.7011 5.208 25.6451 5.208C26.4611 5.208 27.1251 5.352 27.6371 5.64C28.1491 5.912 28.5491 6.288 28.8371 6.768C29.1251 7.232 29.3251 7.76 29.4371 8.352C29.5491 8.928 29.6051 9.528 29.6051 10.152V18ZM38.2335 18.24C37.2255 18.24 36.3135 18.072 35.4975 17.736C34.6815 17.384 33.9855 16.912 33.4095 16.32C32.8335 15.712 32.3855 15.024 32.0655 14.256C31.7615 13.472 31.6095 12.648 31.6095 11.784C31.6095 10.584 31.8735 9.488 32.4015 8.496C32.9455 7.504 33.7135 6.712 34.7055 6.12C35.7135 5.512 36.8975 5.208 38.2575 5.208C39.6335 5.208 40.8095 5.512 41.7855 6.12C42.7615 6.712 43.5055 7.504 44.0175 8.496C44.5455 9.472 44.8095 10.528 44.8095 11.664C44.8095 11.856 44.8015 12.056 44.7855 12.264C44.7695 12.456 44.7535 12.616 44.7375 12.744H35.0175C35.0815 13.384 35.2655 13.944 35.5695 14.424C35.8895 14.904 36.2895 15.272 36.7695 15.528C37.2655 15.768 37.7935 15.888 38.3535 15.888C38.9935 15.888 39.5935 15.736 40.1535 15.432C40.7295 15.112 41.1215 14.696 41.3295 14.184L44.0895 14.952C43.7855 15.592 43.3455 16.16 42.7695 16.656C42.2095 17.152 41.5455 17.544 40.7775 17.832C40.0095 18.104 39.1615 18.24 38.2335 18.24ZM34.9455 10.704H41.5215C41.4575 10.064 41.2735 9.512 40.9695 9.048C40.6815 8.568 40.2975 8.2 39.8175 7.944C39.3375 7.672 38.8015 7.536 38.2095 7.536C37.6335 7.536 37.1055 7.672 36.6255 7.944C36.1615 8.2 35.7775 8.568 35.4735 9.048C35.1855 9.512 35.0095 10.064 34.9455 10.704ZM54.2567 8.208C53.2807 8.208 52.4087 8.4 51.6407 8.784C50.8727 9.152 50.3207 9.688 49.9847 10.392V18H46.7687V5.424H49.7207V8.112C50.1687 7.248 50.7367 6.568 51.4247 6.072C52.1127 5.576 52.8407 5.304 53.6087 5.256C53.7847 5.256 53.9207 5.256 54.0167 5.256C54.1127 5.256 54.1927 5.264 54.2567 5.28V8.208ZM71.6499 5.424H74.6979L69.4419 18H66.7539L64.6419 12.6L62.5779 18H59.8659L54.6339 5.424H57.6579L61.4019 14.928L62.8659 10.824L60.6819 5.448H63.3459L64.6419 9.288L65.9619 5.448H68.6259L66.4419 10.824L67.9299 14.928L71.6499 5.424ZM80.2361 0.959999H83.5961L89.8601 18H86.4521L84.8681 13.752H78.9161L77.3561 18H73.9481L80.2361 0.959999ZM84.2681 11.424L81.9161 4.392L79.4681 11.424H84.2681Z" fill="white"/>
</svg>
