<svg width="16" height="16" viewBox="0 0 16 16" fill="none" xmlns="http://www.w3.org/2000/svg">
<g clip-path="url(#clip0_57848_174)">
<path d="M14.1199 0.0883789C13.1309 0.0883789 12.328 0.891379 12.328 1.88038C12.328 2.86938 13.131 3.67225 14.1199 3.67225C15.1087 3.67225 15.9117 2.871 15.9117 1.88038C15.9117 0.891379 15.1087 0.0883789 14.1199 0.0883789ZM8.00036 1.88213C4.62286 1.88213 1.88086 4.624 1.88086 8.0015C1.88086 11.379 4.62273 14.1211 8.00036 14.1211C11.3779 14.1211 14.1199 11.3793 14.1199 8.00163C14.1199 4.62413 11.3779 1.88213 8.00036 1.88213Z" fill="#000080"/>
<path d="M10.5357 3.67407C9.54693 3.67407 8.7438 4.47707 8.7438 5.46595C8.7438 6.45482 9.5468 7.25795 10.5357 7.25795C11.5246 7.25795 12.3277 6.45495 12.3277 5.46595C12.3277 4.47695 11.5246 3.67407 10.5357 3.67407ZM3.84668 7.04507V11.0599H6.3418V10.6086H4.3588V7.04495L3.84668 7.04507ZM11.0447 8.09132C10.6254 8.09132 10.2789 8.2132 10.0862 8.42782C9.9543 8.57657 9.90018 8.74232 9.88843 9.02795H10.3516C10.3904 8.6747 10.6001 8.5157 11.0294 8.5157C11.4419 8.5157 11.6736 8.66957 11.6736 8.94507V9.06682C11.6736 9.25957 11.5586 9.34245 11.1952 9.38632C10.5461 9.4692 10.4463 9.4912 10.2704 9.5622C9.93418 9.69907 9.7633 9.9577 9.7633 10.3329C9.7633 10.8571 10.1268 11.1867 10.7101 11.1867C11.0734 11.1867 11.3659 11.0599 11.6904 10.7623C11.7226 11.0548 11.8663 11.1867 12.1638 11.1867C12.2584 11.1867 12.3294 11.1766 12.4782 11.1377V10.7911C12.4456 10.7995 12.4121 10.8035 12.3784 10.8029C12.2179 10.8029 12.1299 10.7201 12.1299 10.5764V8.87907C12.1299 8.36682 11.7547 8.09132 11.0447 8.09132ZM6.82693 8.17432V10.3988C6.82693 10.8788 7.1853 11.1866 7.74655 11.1866C8.17093 11.1866 8.43968 11.0378 8.71018 10.6574V11.0598H9.12268V8.1742H8.66618V9.81045C8.66618 10.4004 8.3568 10.7859 7.87843 10.7859C7.51505 10.7859 7.28343 10.5644 7.28343 10.2179V8.1742L6.82693 8.17432ZM11.6736 9.63307V10.1504C11.6736 10.3059 11.6279 10.3989 11.4911 10.5257C11.3033 10.6964 11.0786 10.7844 10.8081 10.7844C10.4497 10.7844 10.2401 10.6136 10.2401 10.3212C10.2401 10.0187 10.4446 9.86307 10.9348 9.79207C11.4199 9.72607 11.5198 9.70407 11.6736 9.63307Z" fill="white"/>
<path d="M7.71663 0C7.48386 0.00802303 7.25155 0.026207 7.02037 0.0545L7.04275 0.23675C7.26862 0.20918 7.49559 0.191414 7.723 0.1835L7.71663 0ZM8.41475 0.00575L8.40537 0.18925C8.63259 0.200938 8.85919 0.222625 9.0845 0.25425L9.11 0.07225C8.87937 0.0399765 8.64732 0.0177887 8.41475 0.00575ZM6.33162 0.1695C6.10378 0.217723 5.87818 0.276031 5.6555 0.34425L5.70925 0.519875C5.9268 0.453249 6.14718 0.396235 6.36975 0.349L6.33162 0.1695ZM9.79663 0.199125L9.75537 0.378C9.97715 0.429092 10.1966 0.489774 10.4131 0.559875L10.4696 0.38525C10.2481 0.313443 10.0236 0.251342 9.79663 0.199125ZM4.9975 0.577875C4.78167 0.665376 4.56976 0.76226 4.36237 0.86825L4.44588 1.03175C4.64844 0.928103 4.85548 0.833428 5.06637 0.748L4.9975 0.577875ZM11.124 0.629125L11.0524 0.79825C11.2619 0.887052 11.4675 0.984894 11.6685 1.0915L11.7545 0.92925C11.5488 0.820122 11.3384 0.719901 11.124 0.629125ZM3.755 1.21325C3.55766 1.3369 3.36581 1.46911 3.18 1.6095L3.29075 1.75612C3.47232 1.61899 3.65974 1.48978 3.8525 1.36888L3.755 1.21325ZM2.64175 2.05425C2.46874 2.21017 2.30263 2.37358 2.14387 2.544L2.27825 2.66913C2.43339 2.50272 2.59567 2.34311 2.76463 2.19075L2.64175 2.05425ZM1.6905 3.07488C1.547 3.25829 1.41158 3.44789 1.28463 3.64313L1.4385 3.74312C1.56259 3.55249 1.69488 3.36731 1.835 3.18812L1.6905 3.07488ZM0.92975 4.2445C0.82029 4.4501 0.719861 4.66039 0.62875 4.87475L0.79775 4.9465C0.886666 4.73708 0.984761 4.53167 1.09175 4.33087L0.92975 4.2445ZM15.1326 4.36613L14.9689 4.4495C15.0721 4.65227 15.1665 4.85943 15.2517 5.07037L15.422 5.00163C15.3348 4.78572 15.2383 4.5736 15.1326 4.36613ZM0.384375 5.52875C0.312368 5.75026 0.250223 5.97486 0.198125 6.20188L0.377125 6.24288C0.42807 6.02115 0.488754 5.80177 0.559 5.58537L0.384375 5.52875ZM15.6551 5.65987L15.4796 5.7135C15.5461 5.93114 15.603 6.15155 15.6504 6.37413L15.83 6.33588C15.7816 6.10806 15.7232 5.8826 15.6551 5.65987ZM0.07175 6.8885C0.0396438 7.11914 0.0176228 7.35107 0.00575 7.58362L0.189125 7.593C0.200802 7.36576 0.222322 7.13913 0.253625 6.91375L0.07175 6.8885ZM15.9452 7.0245L15.763 7.04688C15.7906 7.2727 15.8085 7.49963 15.8165 7.727L16 7.72075C15.9919 7.48798 15.9736 7.25568 15.9452 7.0245ZM0.1835 8.27563L0 8.28187C0.00798153 8.51464 0.0261238 8.74694 0.054375 8.97812L0.236625 8.95575C0.209101 8.72992 0.191376 8.50299 0.1835 8.27563ZM15.8108 8.4095C15.799 8.63675 15.7774 8.86338 15.746 9.08875L15.9279 9.11413C15.9601 8.88349 15.9822 8.65156 15.9941 8.419L15.8108 8.4095ZM0.34875 9.62887L0.169125 9.66687C0.217345 9.89477 0.275652 10.1204 0.343875 10.3431L0.5195 10.2894C0.452912 10.0718 0.39594 9.85148 0.34875 9.62887ZM15.6222 9.75963C15.5712 9.98136 15.5105 10.2007 15.4401 10.4171L15.6147 10.4739C15.6868 10.2524 15.7491 10.0279 15.8013 9.80087L15.6222 9.75963ZM0.747625 10.9324L0.577375 11.0013C0.664724 11.2172 0.761611 11.4291 0.86775 11.6365L1.03112 11.5529C0.927563 11.3503 0.832971 11.1433 0.747625 10.9324ZM15.201 11.0561C15.112 11.2656 15.0138 11.471 14.9067 11.6718L15.0688 11.758C15.1783 11.5525 15.2788 11.3423 15.37 11.128L15.201 11.0561ZM1.368 12.1462L1.21238 12.2437C1.33603 12.4411 1.46824 12.6329 1.60863 12.8188L1.75513 12.7081C1.61803 12.5265 1.48886 12.339 1.368 12.1462ZM14.5597 12.2592C14.4356 12.4499 14.3033 12.6351 14.1631 12.8142L14.3076 12.9275C14.4512 12.7441 14.5867 12.5546 14.7137 12.3594L14.5597 12.2592ZM2.18975 13.2343L2.05325 13.3571C2.20913 13.5301 2.3725 13.6962 2.54288 13.855L2.66812 13.7207C2.50171 13.5656 2.34211 13.4033 2.18975 13.2343ZM13.7198 13.333C13.5645 13.4994 13.4022 13.6589 13.2331 13.8112L13.356 13.9478C13.529 13.7919 13.6952 13.6286 13.854 13.4583L13.7198 13.333ZM3.18688 14.164L3.07363 14.3086C3.25704 14.4522 3.44664 14.5876 3.64188 14.7146L3.74187 14.5606C3.55123 14.4365 3.36606 14.3042 3.18688 14.164ZM12.7069 14.2458C12.5253 14.3828 12.3378 14.5119 12.145 14.6327L12.2425 14.7884C12.4398 14.6647 12.6317 14.5325 12.8175 14.3921L12.7069 14.2458ZM4.32963 14.9075L4.24325 15.0695C4.44877 15.179 4.65897 15.2795 4.87325 15.3706L4.94513 15.2016C4.73574 15.1127 4.53038 15.0145 4.32963 14.9075ZM11.5515 14.9695C11.3489 15.0731 11.1419 15.1677 10.931 15.253L10.9999 15.4233C11.2158 15.3359 11.4278 15.2391 11.6351 15.133L11.5515 14.9695ZM5.584 15.4408L5.52738 15.6152C5.74889 15.6873 5.97348 15.7494 6.2005 15.8015L6.24162 15.6228C6.01989 15.5718 5.80039 15.511 5.584 15.4408ZM10.288 15.481C10.0704 15.5475 9.85006 15.6045 9.6275 15.6516L9.6655 15.8313C9.89339 15.783 10.119 15.7247 10.3418 15.6565L10.288 15.481ZM6.91262 15.7463L6.88725 15.9281C7.11789 15.9603 7.34981 15.9823 7.58238 15.9943L7.59175 15.8109C7.36455 15.7992 7.13796 15.7776 6.91262 15.7463ZM8.9545 15.7636C8.72862 15.7911 8.50166 15.8088 8.27425 15.8166L8.2805 16.0001C8.51326 15.9922 8.74557 15.9741 8.97675 15.9459L8.9545 15.7636Z" fill="#808080"/>
</g>
<defs>
<clipPath id="clip0_57848_174">
<rect width="16" height="16" fill="white"/>
</clipPath>
</defs>
</svg>
