<svg width="34" height="34" viewBox="0 0 34 34" fill="none" xmlns="http://www.w3.org/2000/svg">
<g clip-path="url(#clip0_57847_50)">
<path d="M26.0312 0H7.96875C3.56773 0 0 3.56773 0 7.96875V26.0312C0 30.4323 3.56773 34 7.96875 34H26.0312C30.4323 34 34 30.4323 34 26.0312V7.96875C34 3.56773 30.4323 0 26.0312 0Z" fill="#F4F2ED"/>
<path d="M7.08302 3.58589C7.03693 3.6944 6.99337 3.83505 6.95286 4.00452L6.92298 4.13706C6.91324 4.18302 6.90367 4.23074 6.89429 4.28023L6.86706 4.4335L6.84103 4.59686L6.81633 4.77005L6.79322 4.95253L6.77144 5.14431L6.75138 5.34486C6.74811 5.37904 6.74492 5.41357 6.74182 5.44845L6.72416 5.66188L6.70822 5.88341L6.69401 6.11291L6.6875 6.23059L8.10912 6.91856C8.08761 6.08861 8.11444 5.30382 8.18908 4.58278L8.20369 4.45422L8.19373 4.57202L8.18098 4.76673L8.17646 4.85956L8.16849 5.0714L8.1657 5.19066L8.16252 5.45576L8.16291 5.67835L8.16637 5.92166L8.17035 6.09538L8.17965 6.37363L8.18788 6.57099L8.19824 6.77777L8.20422 6.88482C8.46905 6.66887 8.7862 6.38545 9.11598 6.07559L9.33724 5.86562C9.37434 5.83011 9.41144 5.79439 9.44854 5.75844L9.6706 5.54182L9.88974 5.32401L10.1036 5.10805L10.3094 4.89635C10.0821 4.43151 9.83675 4.09018 9.60858 3.84076L9.53327 3.76107C9.48616 3.71283 9.43752 3.66611 9.38745 3.62095L9.31759 3.55999L9.25012 3.50501C9.22881 3.48817 9.20725 3.47165 9.18544 3.45547L9.12368 3.41124L9.06524 3.37193L8.98436 3.32199L8.91264 3.28175L8.83242 3.24191L8.77239 3.21614L8.66269 3.17656L8.58287 3.15093L8.50491 3.12888L8.44554 3.11401L8.38099 3.09953L8.34699 3.09263L8.27607 3.08001L8.20143 3.06938C7.80844 3.02011 7.30069 3.07191 7.08302 3.58589Z" fill="url(#paint0_linear_57847_50)"/>
<path d="M8.48025 11.115C8.41576 10.6504 8.35591 10.1851 8.30069 9.71918C8.25748 9.34494 8.22099 8.96995 8.19125 8.5944L8.16601 8.26223C8.16553 8.25383 8.16531 8.24541 8.16535 8.237C8.13411 7.79771 8.11286 7.35776 8.1016 6.9175L6.6829 6.23352L6.67905 6.32038L6.66948 6.50087C6.65541 6.84087 6.64491 7.20199 6.64186 7.58157C6.63841 8.00949 6.64252 8.45587 6.65023 8.92351C6.66032 9.35355 6.67785 9.80193 6.70109 10.2581C6.71836 10.551 6.73722 10.8461 6.759 11.1451L6.78503 11.4908L8.68292 12.4523L8.61612 12.0044L8.48025 11.115Z" fill="url(#paint1_linear_57847_50)"/>
<path d="M11.2256 22.1371L11.2549 22.2383L11.4435 22.8788C11.4705 22.9698 11.498 23.0612 11.5259 23.1531L11.6158 23.4442L11.6466 23.549C11.6519 23.5661 11.6579 23.5832 11.6645 23.6003L11.9703 24.5802C12.2411 24.5241 12.5711 24.6252 12.9199 24.7773L13.0601 24.8406C12.8034 24.5318 12.4481 24.3252 12.0235 24.2774C13.186 23.502 13.9509 22.5034 13.8435 21.312C13.8322 21.2031 13.8165 21.0947 13.7966 20.9871C13.779 21.4261 13.6037 21.7485 13.0956 22.093L13.0332 22.1344C13.5586 21.2096 13.7032 20.5822 13.641 19.771C13.6244 19.5647 13.5995 19.3592 13.5663 19.1549C13.3983 20.3627 12.7496 21.1443 11.8011 21.6068L11.2256 22.1371Z" fill="url(#paint2_linear_57847_50)"/>
<path d="M10.546 20.7198L10.4253 20.2671L10.1825 19.3509C10.0668 18.9049 9.95448 18.4581 9.84566 18.0104C9.73543 17.5582 9.62905 17.103 9.52266 16.6479C9.415 16.183 9.3126 15.7169 9.21547 15.2498L9.11905 14.7874L8.93417 13.8624C8.90122 13.6957 8.87041 13.5285 8.84173 13.361C8.78861 13.0765 8.73947 12.7891 8.69033 12.5017L8.68023 12.4552L6.79297 11.4918L6.79908 11.5516C6.79979 11.562 6.79996 11.5724 6.79961 11.5827C6.83773 12.0101 6.87478 12.4442 6.92525 12.8804C6.97479 13.3234 7.0311 13.7674 7.09698 14.2163C7.15326 14.5945 7.21277 14.9722 7.27548 15.3494L7.31665 15.5769C7.48184 16.486 7.69437 17.386 7.95335 18.273C8.03144 18.5376 8.11308 18.8012 8.19826 19.0637L8.2713 19.2753L8.42271 19.6959C8.60168 20.1812 8.8004 20.659 9.01838 21.128L10.926 22.0945C10.8242 21.7438 10.7303 21.3873 10.6269 21.0258L10.574 20.8232L10.546 20.7198Z" fill="url(#paint3_linear_57847_50)"/>
<path d="M9.04569 21.1916C9.27545 21.6834 9.52634 22.1598 9.80325 22.6172L9.95665 22.8655C9.77602 22.7927 9.54732 22.7565 9.32526 22.7403L9.21502 22.7338L9.1607 22.7317L9.05485 22.7295L8.9057 22.73L8.77263 22.7338L8.66053 22.7397L8.50381 22.7526L8.50195 22.7528C9.46657 23.0874 10.3125 23.4971 10.8461 24.118C10.634 24.3515 10.237 24.5291 9.73804 24.6736C10.1095 24.7138 10.3925 24.6975 10.5967 24.6641L10.6793 24.649C10.6923 24.6463 10.7049 24.6436 10.717 24.6409L10.7855 24.6239L10.8448 24.6065L10.9166 24.5815L10.9534 24.5664C10.647 24.8219 10.4552 25.2573 10.2959 25.7452L10.2407 25.9195C10.2317 25.9488 10.2228 25.9782 10.214 26.0078C10.6198 25.3444 11.0223 24.9052 11.4144 24.7373C11.8523 26.1891 12.3586 27.7341 12.9143 29.3464L13.1742 30.0952C13.2619 30.3464 13.3507 30.599 13.4406 30.8531C13.5699 30.6864 13.5844 30.5019 13.5302 30.314L13.3525 29.8121L13.1501 29.2254L12.8367 28.2951L12.5796 27.515L12.2956 26.6348L12.0247 25.776L11.7756 24.9713L11.5926 24.3686L11.4436 23.8711C11.4237 23.8058 11.4055 23.7394 11.386 23.672L11.3298 23.4873L11.1688 22.9315L11.0053 22.3596L10.9318 22.0959L10.9288 22.0921L9.02125 21.1256C9.0255 21.1423 9.03041 21.1562 9.03613 21.1701L9.04569 21.1916Z" fill="url(#paint4_linear_57847_50)"/>
<path d="M8.90474 12.493L8.93861 12.6779C8.96305 12.8037 8.98576 12.9308 9.00993 13.0587L9.21632 14.1174L9.29202 14.4861L9.40252 15.0072L9.4595 15.2732C9.51648 15.5369 9.57637 15.8048 9.63946 16.0785L9.76895 16.6337L9.89791 17.1753C9.92005 17.2669 9.94241 17.3589 9.96498 17.4514L10.1035 18.0119L10.242 18.5566C10.3134 18.8371 10.3865 19.1173 10.4612 19.397C10.517 19.6077 10.5746 19.8213 10.634 20.0377L10.8324 20.7601L10.9823 21.2909L11.1371 21.8332L11.2165 22.1078C11.2183 22.1185 11.2201 22.1291 11.2258 22.1369L11.8013 21.6067L11.7873 21.6124L11.7566 21.6275C12.4395 20.9825 13.0249 19.6901 13.1586 18.5255C13.2202 17.9891 13.2144 17.4181 13.1408 16.7952C13.0877 16.3309 12.9931 15.8431 12.8634 15.3151C12.7415 14.8262 12.6002 14.3424 12.4398 13.8647C12.3342 14.08 12.1843 14.2918 12.0005 14.4986L11.9009 14.6078L11.8667 14.6432L11.7943 14.7158C12.2981 13.9327 12.358 13.0919 12.2086 12.2189C12.1169 12.4779 11.9373 12.8616 11.639 13.2062C11.6008 13.2522 11.5559 13.2971 11.5111 13.3421C11.5032 13.3478 11.4967 13.3552 11.4886 13.3629L11.4749 13.3745C11.6421 13.0961 11.7655 12.8317 11.8447 12.5639C11.8568 12.5269 11.8671 12.4892 11.8755 12.4512L11.888 12.3945C11.9082 12.3077 11.9217 12.2199 11.9351 12.1322L11.9543 11.9623C11.9618 11.8624 11.9639 11.7598 11.959 11.6555L11.9459 11.4636C11.9447 11.4493 11.9429 11.4352 11.9406 11.4211L11.9205 11.2984C11.9172 11.2789 11.9136 11.2595 11.9096 11.2402C11.8748 11.0348 11.8328 10.8308 11.7835 10.6285L11.7421 10.4666L11.7047 10.3298L11.656 10.1681L11.5927 9.9786C11.5861 9.95966 11.5794 9.94142 11.5725 9.92388L11.5343 9.82826C11.5221 9.79886 11.5104 9.77203 11.4992 9.74777L11.4678 9.68323C11.4616 9.70908 11.4535 9.73443 11.4436 9.75906L11.4261 9.79771C11.3072 10.0766 11.0308 10.4591 10.7789 10.7281C10.7749 10.731 10.7709 10.7338 10.77 10.7405L10.718 10.7923C10.7092 10.8018 10.7005 10.8116 10.6919 10.8218L10.7017 10.8027L8.88867 12.4629C8.90395 12.4756 8.9058 12.4862 8.90474 12.493Z" fill="url(#paint5_linear_57847_50)"/>
<path d="M8.2041 6.88539C8.21136 7.01785 8.22008 7.1558 8.23027 7.29924L8.25218 7.59342C8.25608 7.64362 8.26019 7.69444 8.26453 7.74588L8.29149 8.06145C8.29619 8.1151 8.30105 8.16942 8.3061 8.22441L8.31035 8.27674C8.31124 8.28506 8.31279 8.29338 8.315 8.3017C8.33032 8.46338 8.34741 8.62993 8.36627 8.80135L8.40651 9.15157C8.42067 9.27075 8.43573 9.39249 8.45166 9.51681L8.5271 10.0864C8.56243 10.345 8.60055 10.6129 8.64331 10.8923L8.67625 11.1042C8.70879 11.3199 8.74491 11.5405 8.78316 11.767L8.9027 12.4656L10.7157 10.8055C11.0938 10.1206 11.1764 9.69451 11.1713 9.16499C11.1691 9.05453 11.1645 8.94414 11.1575 8.83388L11.1499 8.7194C11.1208 8.25549 11.065 7.76315 10.986 7.28795C10.9116 6.82735 10.8205 6.38495 10.7161 6.00617C10.6579 5.78603 10.5885 5.56896 10.5084 5.35579C10.4467 5.20287 10.38 5.05205 10.3082 4.90356L10.1029 5.11328L9.99694 5.22019L9.78019 5.43614L9.55945 5.65263L9.33713 5.86712L9.22609 5.97257L9.00642 6.1787C8.71636 6.44804 8.43958 6.69321 8.20423 6.88526" fill="url(#paint6_linear_57847_50)"/>
<path d="M25.659 3.94134C25.6008 3.96525 25.5376 3.99527 25.4694 4.03139L25.3636 4.08983C25.2906 4.13171 25.2131 4.1793 25.1309 4.2326L25.0045 4.3168L24.8717 4.40924L24.7326 4.50978L24.5876 4.61842C24.5629 4.63701 24.538 4.65605 24.5129 4.67553L24.3594 4.79586L24.2004 4.92362L24.0361 5.05909L23.8671 5.2016L23.6932 5.35141L23.5148 5.50813L23.3321 5.67189L23.2393 5.75636L23.837 7.43976C24.4837 6.74966 25.1333 6.13541 25.7707 5.61186L25.9949 5.42991L26.0111 5.41755L25.8569 5.54306L25.7057 5.67375L25.5417 5.8221L25.3862 5.9678L25.2555 6.09357L25.1617 6.18548L24.9585 6.38921L24.7924 6.56001L24.5529 6.81235L24.4255 6.94928L24.2931 7.09378L24.0853 7.32461L23.9404 7.48797C24.0891 7.50218 24.2521 7.5144 24.4257 7.52476L24.6934 7.5391L24.9743 7.55066L25.2656 7.55969L25.5641 7.5662L25.8675 7.57018C25.9182 7.57071 25.969 7.57111 26.02 7.57137L26.325 7.57177C26.3758 7.57177 26.4264 7.5716 26.477 7.57124L26.7774 7.56832C26.8271 7.5677 26.8764 7.56695 26.9255 7.56606L27.2151 7.55995C27.453 6.851 27.5075 6.28097 27.489 5.8553L27.4826 5.74746L27.4733 5.64639L27.4677 5.59818L27.455 5.50694L27.4405 5.4222L27.4327 5.38236L27.4163 5.30772L27.3993 5.23972L27.3819 5.17836L27.3648 5.12391L27.3328 5.03492L27.3069 4.97316L27.2451 4.84593L27.2092 4.77793L27.179 4.72454L27.1441 4.66584L27.1045 4.60302L27.0603 4.53687L27.0114 4.46874C26.7386 4.10138 26.2728 3.68794 25.659 3.94134Z" fill="url(#paint7_linear_57847_50)"/>
<path d="M20.803 11.1142C21.1202 10.6888 21.4417 10.2666 21.7673 9.84766C22.0946 9.42948 22.431 9.01859 22.7765 8.61529C22.7966 8.59072 22.8168 8.56615 22.8362 8.54676C23.16 8.16838 23.4924 7.79743 23.8331 7.43419L23.2345 5.7561L23.1624 5.82304L23.0113 5.96077C22.7129 6.23849 22.4193 6.52125 22.1305 6.80891C21.9554 6.98361 21.7816 7.15963 21.6092 7.33697L21.2524 7.70619C21.1923 7.76879 21.1318 7.83196 21.0709 7.89571C20.726 8.26265 20.3862 8.63429 20.0515 9.01054C19.8304 9.26233 19.611 9.51565 19.3935 9.77049L19.1396 10.0695L19.9036 12.3516L20.2056 11.9377L20.803 11.1142Z" fill="url(#paint8_linear_57847_50)"/>
<path d="M14.2546 22.168L14.1411 22.3777L13.8408 22.9383C13.7903 23.0331 13.7398 23.1285 13.6891 23.2245L13.5303 23.5304C13.4999 23.5867 13.4704 23.6376 13.4454 23.6947L13.2783 24.0172L12.9131 24.7264C13.2106 24.9191 13.409 25.3348 13.5834 25.802C13.6222 25.3495 13.5003 24.9009 13.1965 24.525C14.7483 24.8245 16.1576 24.6282 17.0175 23.5838C17.095 23.4872 17.1686 23.3875 17.2381 23.285C16.874 23.6255 16.4755 23.7454 15.7893 23.6173L15.7117 23.6021C16.8696 23.275 17.4845 22.8849 18.079 22.1825C18.2294 22.0032 18.3727 21.8179 18.5083 21.6271C17.4134 22.4659 16.2703 22.5797 15.1392 22.1984L14.2546 22.168Z" fill="url(#paint9_linear_57847_50)"/>
<path d="M14.7738 20.5919L15.0959 20.0261L15.6284 19.0956C15.8873 18.6477 16.1516 18.2006 16.4223 17.7489C16.693 17.2972 16.9688 16.8463 17.2448 16.3953C17.5275 15.9356 17.8154 15.479 18.1084 15.0257C18.3951 14.5764 18.6927 14.1286 18.9841 13.6855C19.0901 13.5251 19.1981 13.3661 19.3082 13.2085C19.4931 12.9363 19.68 12.6656 19.8691 12.3963L19.8977 12.3509L19.1439 10.0758L19.1013 10.1289C19.0938 10.1379 19.0857 10.1464 19.0771 10.1543C18.7682 10.5287 18.4531 10.9076 18.1473 11.2989C17.8326 11.6975 17.5248 12.1015 17.224 12.5107C16.9688 12.8598 16.7166 13.2112 16.4675 13.5647L16.3199 13.7805C16.0168 14.2274 15.7317 14.6659 15.4767 15.0868C15.2026 15.5365 14.9405 15.9933 14.6904 16.4568C14.543 16.7319 14.3992 17.009 14.2592 17.2879C14.1487 17.5146 14.0427 17.7476 13.9375 17.9751C13.6961 18.508 13.4765 19.0505 13.2793 19.6013L14.0471 21.8949L14.1965 21.6227L14.502 21.0749C14.5532 20.9829 14.6044 20.8902 14.6554 20.7971L14.7738 20.5919Z" fill="url(#paint10_linear_57847_50)"/>
<path d="M13.2524 19.6743C13.0468 20.2529 12.8701 20.8358 12.7295 21.4239L12.6558 21.7457C12.5868 21.5863 12.4756 21.4216 12.3504 21.2662L12.2737 21.1742C12.2608 21.1591 12.2478 21.1441 12.2346 21.1293L12.1554 21.0419L12.0761 20.9585L11.9981 20.8799L11.8866 20.7723L11.7853 20.679L11.6742 20.5816L11.5743 20.4994C12.085 21.535 12.4404 22.5368 12.3765 23.4605C12.0205 23.4801 11.5597 23.3077 11.0432 23.0276C11.2656 23.3002 11.4698 23.4927 11.6419 23.6275L11.7191 23.6858L11.7559 23.712L11.8258 23.759L11.8903 23.7989L11.9491 23.8326L12.0021 23.8603L12.0489 23.8826L12.0893 23.8999C12.0954 23.9025 12.1013 23.9048 12.1069 23.9069C11.674 23.8705 11.1942 24.0528 10.6987 24.3038L10.533 24.3898L10.3664 24.4797C11.2201 24.2682 11.8931 24.2344 12.3421 24.4108C12.1174 24.8364 11.8955 25.2635 11.6763 25.6919L11.3405 26.3533C10.8181 27.3908 10.3068 28.4338 9.80648 29.4821L9.46116 30.2081C9.3451 30.4532 9.22947 30.6985 9.11426 30.944C9.35066 30.9124 9.50884 30.7755 9.6147 30.5812L10.0058 29.7519L10.3657 29.0063L10.8257 28.0699L11.2321 27.2559L11.6345 26.4605L12.017 25.7145L12.5476 24.6942L12.9244 23.9801L13.0539 23.7367L13.1656 23.5305L13.2672 23.3373L13.4219 23.0515L13.7393 22.4686L13.902 22.1715L14.0521 21.9009L14.0529 21.8955L13.2852 19.6018C13.2753 19.6188 13.2682 19.6337 13.2619 19.6495L13.2524 19.6743Z" fill="url(#paint11_linear_57847_50)"/>
<path d="M20.0497 12.5611L19.9301 12.7368C19.8498 12.8575 19.767 12.9779 19.685 13.1L19.291 13.694L19.0099 14.1163L18.9386 14.2256C18.8304 14.3916 18.723 14.5581 18.6162 14.725L18.2874 15.2399C18.0636 15.5927 17.8427 15.9473 17.6248 16.3037L17.4556 16.5811C17.1771 17.0375 16.9019 17.496 16.6299 17.9563L16.3085 18.5048C16.1431 18.7874 15.9793 19.071 15.8172 19.3555C15.718 19.5287 15.6195 19.7023 15.5217 19.8763L15.0331 20.7478L14.8834 21.0193L14.5794 21.5725C14.4763 21.7607 14.3736 21.9492 14.2715 22.1379C14.2641 22.1469 14.2588 22.1574 14.2559 22.1687L15.1404 22.1992C15.125 22.1913 15.1088 22.1889 15.0879 22.1804C16.1502 22.2037 17.6482 21.6285 18.6812 20.7972C19.1569 20.4142 19.6061 19.95 20.0416 19.39C20.3676 18.9741 20.6792 18.5063 20.9941 17.9782C21.2845 17.4878 21.5552 16.986 21.8057 16.474C21.5497 16.5634 21.2604 16.6148 20.9483 16.6352L20.7813 16.6439C20.7443 16.6459 20.7075 16.6453 20.6691 16.6455L20.6099 16.6464C21.6374 16.4162 22.3537 15.787 22.9271 14.9655C22.6476 15.1011 22.198 15.2671 21.6842 15.3077C21.6169 15.3144 21.545 15.3148 21.4732 15.3154C21.4624 15.3138 21.4512 15.3146 21.4386 15.3144L21.4183 15.3128C21.7741 15.2215 22.0836 15.1068 22.3599 14.9541C22.3992 14.9339 22.4374 14.9118 22.4744 14.8878L22.5295 14.852C22.6148 14.7982 22.6953 14.7383 22.7759 14.6783L22.9263 14.5567C23.0437 14.4549 23.1524 14.3434 23.2513 14.2235L23.3158 14.1487C23.3261 14.1363 23.3359 14.1235 23.3451 14.1102L23.4266 13.9955C23.4396 13.977 23.4521 13.9585 23.464 13.9399C23.6016 13.7434 23.7321 13.5419 23.8553 13.336L23.9008 13.2586C23.9599 13.1569 24.012 13.0651 24.058 12.978L24.1116 12.8755L24.193 12.7105C24.209 12.6782 24.2242 12.6455 24.2386 12.6125L24.2624 12.5571L24.3027 12.457C24.3147 12.426 24.325 12.3976 24.3337 12.372L24.3455 12.3356C24.3199 12.3513 24.2932 12.3653 24.2657 12.3774L24.2208 12.3947C23.9035 12.5248 23.377 12.6132 22.9607 12.6294C22.9552 12.6286 22.9498 12.6278 22.9435 12.6323L22.8605 12.6328C22.8458 12.6332 22.831 12.6342 22.8162 12.6357L22.8393 12.628L20.0607 12.524C20.063 12.5465 20.0559 12.5564 20.0497 12.5611Z" fill="url(#paint12_linear_57847_50)"/>
<path d="M23.9406 7.48792C23.8413 7.60036 23.7387 7.71839 23.6328 7.84199L23.4167 8.09633L23.1922 8.36461L22.9207 8.69252C22.9149 8.70019 22.9094 8.70817 22.9045 8.71643C22.7433 8.91416 22.5841 9.11347 22.4269 9.31435L22.1772 9.63602C22.1349 9.69092 22.0922 9.74661 22.0493 9.8031L21.6906 10.2774L21.456 10.5916C21.3341 10.7561 21.213 10.9212 21.0929 11.087L20.9689 11.2593C20.8418 11.4342 20.7162 11.6102 20.592 11.7872L20.3344 12.1551L20.0693 12.5353L22.8479 12.6393C23.6964 12.3883 24.1015 12.111 24.518 11.6807C24.6041 11.5901 24.6881 11.4975 24.77 11.4031L24.8548 11.3049C25.2113 10.8946 25.5468 10.4665 25.8602 10.0224C26.1662 9.59246 26.4445 9.16401 26.6615 8.7762C26.8031 8.52638 26.9198 8.29502 27.0109 8.08756C27.0828 7.91544 27.149 7.74096 27.2092 7.56442L26.921 7.56946L26.6246 7.57265L26.3228 7.57371L26.0185 7.57252C25.9676 7.57216 25.9169 7.57172 25.8663 7.57119L25.5635 7.56681L25.2652 7.56003C25.2161 7.5587 25.1673 7.55724 25.1187 7.55565L24.8325 7.54529C24.7857 7.54334 24.7394 7.54126 24.6936 7.53905L24.4259 7.5247C24.2639 7.51529 24.1021 7.50303 23.9406 7.48792Z" fill="url(#paint13_linear_57847_50)"/>
</g>
<defs>
<linearGradient id="paint0_linear_57847_50" x1="7.4367" y1="5.51048" x2="12.0445" y2="4.00784" gradientUnits="userSpaceOnUse">
<stop stop-color="#F69923"/>
<stop offset="0.312" stop-color="#F79A23"/>
<stop offset="0.838" stop-color="#E97826"/>
</linearGradient>
<linearGradient id="paint1_linear_57847_50" x1="7.0727" y1="30.7961" x2="12.7264" y2="8.35002" gradientUnits="userSpaceOnUse">
<stop offset="0.323" stop-color="#9E2064"/>
<stop offset="0.63" stop-color="#C92037"/>
<stop offset="0.751" stop-color="#CD2335"/>
<stop offset="1" stop-color="#E97826"/>
</linearGradient>
<linearGradient id="paint2_linear_57847_50" x1="12.1431" y1="30.0892" x2="15.8572" y2="12.0006" gradientUnits="userSpaceOnUse">
<stop stop-color="#282662"/>
<stop offset="0.095" stop-color="#662E8D"/>
<stop offset="0.788" stop-color="#9F2064"/>
<stop offset="0.949" stop-color="#CD2032"/>
</linearGradient>
<linearGradient id="paint3_linear_57847_50" x1="8.0426" y1="29.5691" x2="16.2633" y2="9.57906" gradientUnits="userSpaceOnUse">
<stop offset="0.323" stop-color="#9E2064"/>
<stop offset="0.63" stop-color="#C92037"/>
<stop offset="0.751" stop-color="#CD2335"/>
<stop offset="1" stop-color="#E97826"/>
</linearGradient>
<linearGradient id="paint4_linear_57847_50" x1="10.0966" y1="28.6455" x2="16.7163" y2="20.3979" gradientUnits="userSpaceOnUse">
<stop stop-color="#282662"/>
<stop offset="0.095" stop-color="#662E8D"/>
<stop offset="0.788" stop-color="#9F2064"/>
<stop offset="0.949" stop-color="#CD2032"/>
</linearGradient>
<linearGradient id="paint5_linear_57847_50" x1="10.6066" y1="33.0562" x2="16.6506" y2="4.44603" gradientUnits="userSpaceOnUse">
<stop offset="0.323" stop-color="#9E2064"/>
<stop offset="0.63" stop-color="#C92037"/>
<stop offset="0.751" stop-color="#CD2335"/>
<stop offset="1" stop-color="#E97826"/>
</linearGradient>
<linearGradient id="paint6_linear_57847_50" x1="8.86591" y1="40.1282" x2="14.5539" y2="7.01781" gradientUnits="userSpaceOnUse">
<stop offset="0.323" stop-color="#9E2064"/>
<stop offset="0.63" stop-color="#C92037"/>
<stop offset="0.751" stop-color="#CD2335"/>
<stop offset="1" stop-color="#E97826"/>
</linearGradient>
<linearGradient id="paint7_linear_57847_50" x1="23.9467" y1="6.09994" x2="29.9273" y2="4.5058" gradientUnits="userSpaceOnUse">
<stop stop-color="#F69923"/>
<stop offset="0.312" stop-color="#F79A23"/>
<stop offset="0.838" stop-color="#E97826"/>
</linearGradient>
<linearGradient id="paint8_linear_57847_50" x1="15.1304" y1="31.8059" x2="27.2991" y2="9.51124" gradientUnits="userSpaceOnUse">
<stop offset="0.323" stop-color="#9E2064"/>
<stop offset="0.63" stop-color="#C92037"/>
<stop offset="0.751" stop-color="#CD2335"/>
<stop offset="1" stop-color="#E97826"/>
</linearGradient>
<linearGradient id="paint9_linear_57847_50" x1="11.7593" y1="27.0224" x2="17.2545" y2="17.7932" gradientUnits="userSpaceOnUse">
<stop stop-color="#282662"/>
<stop offset="0.095" stop-color="#662E8D"/>
<stop offset="0.788" stop-color="#9F2064"/>
<stop offset="0.949" stop-color="#CD2032"/>
</linearGradient>
<linearGradient id="paint10_linear_57847_50" x1="13.8894" y1="30.227" x2="26.2296" y2="9.33817" gradientUnits="userSpaceOnUse">
<stop offset="0.323" stop-color="#9E2064"/>
<stop offset="0.63" stop-color="#C92037"/>
<stop offset="0.751" stop-color="#CD2335"/>
<stop offset="1" stop-color="#E97826"/>
</linearGradient>
<linearGradient id="paint11_linear_57847_50" x1="10.9437" y1="28.3698" x2="17.7124" y2="18.2997" gradientUnits="userSpaceOnUse">
<stop stop-color="#282662"/>
<stop offset="0.095" stop-color="#662E8D"/>
<stop offset="0.788" stop-color="#9F2064"/>
<stop offset="0.949" stop-color="#CD2032"/>
</linearGradient>
<linearGradient id="paint12_linear_57847_50" x1="10.7503" y1="30.2461" x2="24.9761" y2="7.45139" gradientUnits="userSpaceOnUse">
<stop offset="0.323" stop-color="#9E2064"/>
<stop offset="0.63" stop-color="#C92037"/>
<stop offset="0.751" stop-color="#CD2335"/>
<stop offset="1" stop-color="#E97826"/>
</linearGradient>
<linearGradient id="paint13_linear_57847_50" x1="10.7972" y1="21.2137" x2="19.9078" y2="6.19857" gradientUnits="userSpaceOnUse">
<stop offset="0.323" stop-color="#9E2064"/>
<stop offset="0.63" stop-color="#C92037"/>
<stop offset="0.751" stop-color="#CD2335"/>
<stop offset="1" stop-color="#E97826"/>
</linearGradient>
<clipPath id="clip0_57847_50">
<rect width="34" height="34" fill="white"/>
</clipPath>
</defs>
</svg>
