<svg width="40" height="42" viewBox="0 0 40 42" fill="none" xmlns="http://www.w3.org/2000/svg">
<g filter="url(#filter0_d_57847_130)">
<path fill-rule="evenodd" clip-rule="evenodd" d="M26.1777 26.5994C26.2226 26.5131 26.2657 26.4368 26.3023 26.3579C26.3254 26.3075 26.361 26.2974 26.4112 26.2987C26.7122 26.3072 27.0131 26.3165 27.3143 26.3194C27.5701 26.3221 27.8265 26.3173 28.0825 26.3144C28.371 26.3109 28.6595 26.2958 28.9477 26.304C29.3315 26.3152 29.7055 26.3903 30.0527 26.5611C30.4673 26.7654 30.781 27.0764 30.9948 27.4863C31.1293 27.7462 31.2133 28.0292 31.2421 28.3204C31.2878 28.7475 31.2578 29.1648 31.1223 29.5733C30.9545 30.0796 30.6357 30.4671 30.1929 30.7575C29.8521 30.9809 29.4784 31.1129 29.0778 31.1883C28.6539 31.2683 28.2286 31.2425 27.8034 31.2438C27.3369 31.2457 26.8707 31.2356 26.4043 31.2303C26.3228 31.2295 26.3111 31.2141 26.3326 31.1363L26.3525 31.0645C26.3979 30.9216 26.4224 30.9153 26.5674 30.8913C26.6703 30.8754 26.7686 30.838 26.8561 30.7816C26.905 30.7492 26.9252 30.6648 26.9443 30.5997C26.9608 30.5428 26.9616 30.4804 26.9621 30.4204C26.9688 29.5106 26.9757 28.6011 26.9794 27.6919C26.9804 27.4619 26.9747 27.232 26.9621 27.0023C26.9531 26.8416 26.8673 26.7317 26.676 26.6937C26.5273 26.6642 26.3775 26.6413 26.2279 26.6151L26.1777 26.5994ZM30.4479 28.8022C30.4277 28.6211 30.4179 28.4383 30.3855 28.2598C30.3079 27.8313 30.1204 27.4581 29.791 27.1657C29.2585 26.6931 28.6172 26.6204 27.9452 26.6767C27.7922 26.6894 27.7593 26.7418 27.7569 26.899C27.7532 27.1221 27.7494 27.3453 27.7492 27.5684C27.7481 28.276 27.7481 28.9836 27.7492 29.6913C27.7492 29.8928 27.7519 30.0939 27.7574 30.2948C27.7638 30.5004 27.8384 30.6743 28.0398 30.754C28.3572 30.8797 28.6911 30.8945 29.0242 30.8433C29.5562 30.7617 29.9284 30.4517 30.178 29.9872C30.3757 29.6185 30.4315 29.2161 30.4479 28.8022ZM31.7412 31.2117C31.7349 31.1015 31.78 31.0103 31.8358 30.9267C31.851 30.9041 31.903 30.9052 31.9389 30.898L32.2433 30.8377C32.3509 30.8149 32.4074 30.7426 32.4226 30.6371C32.4327 30.5676 32.4422 30.4972 32.443 30.4268C32.4502 29.8698 32.4555 29.3128 32.4587 28.7557C32.4614 28.1979 32.4592 27.6401 32.4592 27.0823L32.4568 26.9758C32.446 26.7965 32.3594 26.7035 32.1814 26.6772L31.7954 26.6185C31.7479 26.6121 31.7306 26.5893 31.7479 26.5471C31.7776 26.4751 31.8061 26.4004 31.848 26.3356C31.8637 26.3117 31.9166 26.3024 31.9522 26.3032C32.1365 26.3059 32.3208 26.3197 32.5052 26.3194L34.1098 26.3099C34.419 26.3096 34.7176 26.3635 34.9949 26.5115C35.3001 26.674 35.4709 26.9256 35.5198 27.2682C35.5708 27.6281 35.4616 27.9315 35.1986 28.1724C35.0905 28.2718 34.9505 28.3366 34.8252 28.4173L34.7843 28.4428C34.9006 28.4856 35.0114 28.5225 35.1192 28.5666C35.4348 28.696 35.6858 28.8981 35.8186 29.2208C35.9235 29.4756 35.9235 29.7412 35.8614 30.0052C35.7647 30.4185 35.4924 30.6935 35.1383 30.9014C34.806 31.0967 34.4464 31.2104 34.0633 31.2295C33.7101 31.2473 33.3552 31.2406 33.0011 31.2446L32.796 31.2457C32.4548 31.2379 32.1135 31.2294 31.7723 31.2202L31.7412 31.2117ZM33.212 29.5943H33.2155C33.2155 29.7691 33.2131 29.9439 33.2163 30.1186C33.2184 30.2318 33.2144 30.3481 33.2388 30.4571C33.2755 30.6199 33.3499 30.7668 33.5326 30.8135C33.777 30.8775 34.0321 30.8887 34.2812 30.8465C34.5938 30.792 34.8432 30.6353 34.98 30.3375C35.0815 30.1163 35.0966 29.8817 35.0618 29.6421C35.0156 29.3266 34.848 29.0976 34.5694 28.9475C34.3866 28.849 34.1916 28.7887 33.9839 28.7807C33.7512 28.7719 33.5183 28.7714 33.2856 28.7642C33.2202 28.7624 33.2112 28.7956 33.2115 28.8492C33.2128 29.0973 33.212 29.3457 33.212 29.5943ZM33.7074 28.4056C33.8346 28.3993 33.9786 28.3974 34.1218 28.3831C34.3959 28.3557 34.589 28.2178 34.6897 27.9557C34.741 27.8226 34.7388 27.6855 34.7402 27.5471C34.7441 27.1867 34.5338 26.8913 34.1914 26.7691C33.9271 26.6748 33.6545 26.6732 33.3804 26.6807C33.2694 26.6836 33.2197 26.7322 33.2181 26.844L33.2017 28.302C33.2009 28.3599 33.2258 28.3849 33.2821 28.3868L33.7074 28.4056Z" fill="#94795D"/>
<path fill-rule="evenodd" clip-rule="evenodd" d="M5.80009 30.9315L5.7807 31.1822C5.60008 31.1822 5.43353 31.1809 5.26698 31.1828C4.95328 31.186 4.63958 31.191 4.32561 31.1955L4.29533 31.1974C4.25044 31.1921 4.16889 31.1921 4.16676 31.1788C4.15348 31.1041 4.15773 31.0258 4.16119 30.9485C4.16145 30.9397 4.192 30.9286 4.20979 30.9243L4.4539 30.8699C4.60611 30.8303 4.65976 30.7647 4.66694 30.6074C4.67517 30.4303 4.6834 30.2528 4.6842 30.0756C4.68659 29.6395 4.68394 29.2039 4.68579 28.7677C4.68606 28.6657 4.65073 28.5897 4.55564 28.5483C4.44264 28.4982 4.32885 28.4498 4.21431 28.4033C4.16012 28.3815 4.08973 28.3695 4.09611 28.2968C4.10248 28.2226 4.17075 28.2033 4.23503 28.1886C4.50119 28.1278 4.76761 28.0686 5.03297 28.0038C5.1185 27.9828 5.20031 27.9475 5.30258 27.9119C5.30789 27.9671 5.31772 28.0197 5.31665 28.0723L5.30098 28.3223C5.30072 28.3504 5.31533 28.3881 5.33631 28.4038C5.34906 28.4136 5.39183 28.3958 5.41308 28.3794C5.63992 28.2067 5.88004 28.0577 6.1539 27.9708C6.57811 27.8362 6.94228 27.961 7.19728 28.3268C7.28706 28.4556 7.28733 28.4556 7.4119 28.3656C7.62573 28.2102 7.84939 28.0731 8.09961 27.9828C8.64892 27.7844 9.17672 28.0362 9.3677 28.5895C9.4373 28.7903 9.46386 28.9977 9.46333 29.2097L9.45828 30.617C9.45801 30.7331 9.49653 30.7992 9.60703 30.8353C9.73108 30.876 9.85964 30.9039 9.99936 30.9405L9.96695 31.1825C9.80811 31.1825 9.66201 31.1814 9.51592 31.1828C9.15892 31.186 8.80192 31.1878 8.44519 31.1961C8.38303 31.1976 8.36683 31.1822 8.36364 31.1241C8.35328 30.9379 8.35169 30.9381 8.527 30.8962L8.58597 30.881C8.75729 30.8343 8.8144 30.7817 8.81573 30.608C8.81972 30.1091 8.83008 29.6089 8.80484 29.1112C8.77854 28.5948 8.36869 28.3199 7.86825 28.4521C7.70674 28.4964 7.55463 28.5697 7.41934 28.6684C7.37286 28.7016 7.36409 28.7398 7.36781 28.798C7.38215 29.0179 7.39039 29.238 7.39251 29.4583C7.3957 29.8438 7.39092 30.2292 7.39251 30.6149C7.39304 30.7711 7.44644 30.8308 7.60076 30.8669L7.83 30.9198L7.8725 30.9294C7.87569 31.0027 7.87861 31.076 7.87515 31.1493C7.87303 31.1953 7.83744 31.1992 7.79759 31.1984C7.57473 31.1929 7.35161 31.1854 7.12875 31.186C6.85754 31.1865 6.58661 31.1942 6.31567 31.199H6.25192C6.25192 31.1211 6.2482 31.0468 6.25458 30.9727C6.2559 30.9549 6.28725 30.9299 6.30876 30.9243L6.57598 30.8677C6.6894 30.8398 6.74359 30.7817 6.74997 30.6664C6.78025 30.1325 6.80203 29.5983 6.75183 29.0647C6.73957 28.9593 6.71032 28.8566 6.66523 28.7605C6.52844 28.4583 6.22058 28.3321 5.86544 28.4229C5.69676 28.466 5.54456 28.5433 5.40059 28.6407C5.36929 28.6602 5.34357 28.6874 5.32597 28.7198C5.30837 28.7521 5.29948 28.7885 5.30019 28.8253C5.30054 29.358 5.30169 29.8905 5.30364 30.4228L5.30656 30.6281C5.30975 30.7713 5.37058 30.8468 5.51269 30.8776C5.60406 30.8983 5.6965 30.9124 5.80009 30.9315Z" fill="#50382B"/>
<path fill-rule="evenodd" clip-rule="evenodd" d="M21.8596 27.9663C21.9007 28.1666 21.8999 28.3467 21.7528 28.4832C21.6067 28.6189 21.4218 28.5733 21.2415 28.543C21.2582 28.6381 21.2768 28.7188 21.2858 28.8006C21.3514 29.4086 21.0898 29.8599 20.5259 30.1179C20.3128 30.2151 20.0868 30.2512 19.856 30.2698C19.7412 30.2788 19.6408 30.3665 19.6299 30.4608C19.6188 30.5564 19.6788 30.6547 19.7988 30.6834C19.9404 30.7171 20.0881 30.7267 20.2334 30.7434C20.5453 30.779 20.8606 30.7952 21.1687 30.851C21.6346 30.9349 21.8946 31.3416 21.8126 31.8096C21.7395 32.2261 21.4983 32.5292 21.162 32.7616C20.5955 33.1542 19.9739 33.269 19.312 33.0687C18.9334 32.9539 18.6665 32.705 18.5743 32.3024C18.5281 32.1008 18.5772 31.9183 18.7289 31.7815C18.9093 31.6194 19.1056 31.4749 19.2944 31.3219L19.3555 31.2606L19.2854 31.2114C19.0928 31.1201 18.9388 30.995 18.879 30.7777C18.8585 30.7041 18.8798 30.6558 18.9422 30.618C19.0485 30.5541 19.1541 30.489 19.2591 30.4228C19.3085 30.392 19.3574 30.3601 19.4033 30.3245C19.466 30.2767 19.4604 30.2411 19.3855 30.2135C19.2113 30.1492 19.0564 30.056 18.9364 29.9125C18.7358 29.6732 18.679 29.3882 18.6954 29.0872C18.7212 28.6171 18.9765 28.3074 19.3914 28.1081C19.8846 27.8715 20.3795 27.8566 20.8823 28.0723C21.0683 28.152 21.2643 28.169 21.4638 28.1552C21.6128 28.1445 21.743 28.0882 21.8596 27.9663ZM20.0419 31.3347C19.6716 31.3315 19.5555 31.3772 19.3383 31.5985C19.0949 31.8465 19.0963 32.1905 19.3391 32.4397C19.5234 32.6285 19.7534 32.717 20.0092 32.7436C20.3081 32.7744 20.6024 32.7619 20.8738 32.6123C21.1634 32.4522 21.3073 32.1547 21.2423 31.855C21.1883 31.6078 21.0061 31.4946 20.7843 31.4295C20.532 31.3557 20.2711 31.3416 20.0419 31.3347ZM19.3146 28.9685C19.3282 29.0713 19.3337 29.1754 19.3566 29.2761C19.4158 29.5369 19.5292 29.7662 19.7888 29.8823C20.0934 30.019 20.4826 29.9603 20.6159 29.5327C20.7071 29.2481 20.6965 28.9407 20.5859 28.663C20.5392 28.536 20.4549 28.4263 20.3442 28.3485C20.0796 28.1639 19.6023 28.1395 19.4078 28.5475C19.3446 28.68 19.3199 28.8211 19.3146 28.9685Z" fill="#4F382B"/>
<path fill-rule="evenodd" clip-rule="evenodd" d="M15.5772 27.9007C15.5871 27.9461 15.6067 27.9976 15.6072 28.0494C15.608 28.148 15.5974 28.2465 15.5918 28.3451V28.4306L15.6752 28.3669C15.9037 28.1788 16.1491 28.0186 16.4349 27.9323C16.9508 27.7769 17.4661 28.0593 17.6342 28.5847C17.698 28.7844 17.7232 28.9898 17.7256 29.1985C17.7309 29.6623 17.7341 30.1261 17.7389 30.5899C17.7405 30.7564 17.7596 30.7862 17.9171 30.8343C18.0067 30.861 18.0982 30.8813 18.1907 30.8951C18.2414 30.903 18.2632 30.923 18.2606 30.9726L18.2611 31.0183C18.2592 31.2104 18.246 31.2191 18.0598 31.2186C17.614 31.2178 17.1686 31.2205 16.7229 31.2242C16.5901 31.2253 16.5898 31.2292 16.5765 31.098L16.5738 31.0226C16.5821 30.9094 16.5847 30.9105 16.696 30.894C16.7709 30.8829 16.8453 30.8656 16.9184 30.8465C16.9935 30.8271 17.0297 30.7716 17.0398 30.6972C17.0448 30.6595 17.0514 30.6218 17.0512 30.584C17.0448 30.0772 17.053 29.5699 17.0254 29.0639C17.0031 28.6545 16.6907 28.4107 16.2798 28.4386C16.0817 28.4523 15.8913 28.5207 15.7297 28.6359C15.62 28.7127 15.5979 28.8235 15.5985 28.9427C15.601 29.4166 15.6048 29.8906 15.6102 30.3646C15.6112 30.4685 15.6141 30.5723 15.624 30.6754C15.6343 30.788 15.6739 30.8335 15.7844 30.8579C15.8901 30.8813 15.998 30.8948 16.1109 30.9137L16.1204 31.0008C16.1241 31.204 16.1029 31.2191 15.9055 31.2183C15.4447 31.2165 14.9838 31.2194 14.5232 31.2245C14.4507 31.2255 14.4199 31.2027 14.4218 31.132L14.4207 31.1017C14.4087 30.9187 14.4141 30.9118 14.5872 30.8821L14.6691 30.8656C14.8566 30.8234 14.9047 30.7734 14.9073 30.583C14.9161 29.9797 14.9193 29.3768 14.9254 28.7735C14.9262 28.6869 14.8935 28.6197 14.8128 28.5839C14.6994 28.5342 14.5855 28.4861 14.4709 28.4394C14.4077 28.4133 14.3354 28.3969 14.333 28.3095C14.3314 28.2479 14.3973 28.1934 14.4874 28.1751C14.6683 28.1384 14.8507 28.1079 15.0295 28.063C15.2075 28.0186 15.3823 27.9591 15.5772 27.9007Z" fill="#4F372B"/>
<path fill-rule="evenodd" clip-rule="evenodd" d="M25.5424 29.4765C25.5339 30.0399 25.3876 30.4954 24.9891 30.8373C24.4844 31.271 23.6971 31.4184 23.0535 31.0941C22.7789 30.9557 22.577 30.7435 22.4455 30.468C22.2439 30.0444 22.1934 29.5989 22.2986 29.1426C22.4027 28.6913 22.6761 28.3643 23.0851 28.1526C23.5059 27.935 23.9489 27.85 24.4162 27.9643C25.0072 28.1085 25.4319 28.5903 25.5164 29.2039C25.5315 29.3115 25.5374 29.4204 25.5424 29.4765ZM24.8579 29.7817L24.8351 29.779C24.8351 29.7259 24.838 29.6728 24.8345 29.6196C24.8151 29.2887 24.7408 28.9734 24.549 28.6963C24.367 28.4339 24.1192 28.279 23.7967 28.2564C23.4357 28.2309 23.1324 28.4328 23.0259 28.8015C22.866 29.3551 22.9202 29.8946 23.2012 30.4016C23.3237 30.6226 23.5051 30.7857 23.7481 30.8715C24.2244 31.0391 24.6467 30.8221 24.7708 30.3344C24.8165 30.1543 24.8297 29.966 24.8579 29.7817Z" fill="#4F382B"/>
<path fill-rule="evenodd" clip-rule="evenodd" d="M13.8422 29.52C13.8324 29.9243 13.7371 30.298 13.4874 30.6229C13.2199 30.9709 12.8523 31.1568 12.4342 31.2352C11.9398 31.3276 11.4755 31.2437 11.0784 30.9119C10.8898 30.7541 10.761 30.552 10.676 30.3219C10.5365 29.9447 10.5017 29.5583 10.5875 29.1643C10.6792 28.7428 10.9172 28.4206 11.2861 28.2044C11.7127 27.955 12.1731 27.8437 12.6647 27.9557C13.2969 28.1002 13.6619 28.5122 13.7968 29.1359C13.8239 29.2618 13.8276 29.392 13.8422 29.52ZM13.15 29.7867L13.1317 29.784V29.7081C13.1213 29.3373 13.0488 28.984 12.8276 28.6759C12.6637 28.4472 12.4443 28.3037 12.163 28.2636C11.7045 28.1983 11.4049 28.4703 11.3055 28.8397C11.1759 29.3224 11.2165 29.7992 11.4171 30.2569C11.5422 30.5421 11.7398 30.7645 12.0434 30.8723C12.5168 31.0405 12.9455 30.8179 13.0653 30.332C13.1094 30.1543 13.1227 29.9689 13.15 29.7867Z" fill="#4F372B"/>
<path fill-rule="evenodd" clip-rule="evenodd" d="M24.8778 8.91016C25.2037 9.85233 25.438 10.8142 25.5153 11.8108C25.6109 13.0475 25.5674 14.2758 25.3065 15.4921L25.273 15.5893C25.1912 15.5896 25.1078 15.5792 25.0279 15.5917C24.3524 15.6979 23.6777 15.8079 23.0027 15.9173C22.3049 16.0305 21.6066 16.1391 20.9101 16.2597C20.6634 16.3022 20.3579 16.2515 20.2583 16.5926L20.2105 16.6088L20.2442 14.5693L20.21 9.64833L20.5351 9.59255C21.0666 9.50569 21.5981 9.41723 22.1304 9.3325C22.7653 9.23183 23.4006 9.13355 24.036 9.03527C24.3165 8.99223 24.5973 8.95213 24.8778 8.91016Z" fill="#439934"/>
<path fill-rule="evenodd" clip-rule="evenodd" d="M19.5389 22.5544C19.1959 22.2596 18.8411 21.9778 18.5125 21.6675C16.7439 19.9994 15.4501 18.0356 14.8129 15.6681C14.6373 15.0168 14.5204 14.3546 14.4827 13.6815C14.4561 13.2103 14.4181 12.7351 14.4516 12.2663C14.5401 11.0197 14.7204 9.78506 15.0859 8.58416L15.1061 8.55627C15.1417 8.60356 15.1927 8.64552 15.2108 8.69891C15.5676 9.74973 15.9221 10.8015 16.2743 11.8543C17.3817 15.1616 18.4878 18.4697 19.597 21.7764C19.6188 21.841 19.6749 21.8938 19.7152 21.952L19.5389 22.5544Z" fill="#45A538"/>
<path fill-rule="evenodd" clip-rule="evenodd" d="M24.8772 8.91017C24.5964 8.95187 24.3156 8.99225 24.0354 9.03528C23.4 9.13356 22.7646 9.23184 22.1298 9.33251C21.5977 9.41698 21.0662 9.50543 20.5345 9.59256L20.2093 9.64834L20.2067 9.43637C20.1958 9.26212 20.1777 9.08787 20.1753 8.91362L20.1389 5.57897C20.1304 4.88329 20.1177 4.18762 20.1036 3.49222C20.0965 3.05999 20.084 2.62788 20.0662 2.19597C20.0555 1.96408 20.0181 1.73325 20.0032 1.50136C19.9944 1.36801 20.0061 1.23361 20.009 1.09973C20.1748 1.42087 20.3371 1.7444 20.5074 2.06315C20.7764 2.56704 21.2054 2.93839 21.5919 3.34347C23.1182 4.94545 24.2017 6.80695 24.8772 8.91017Z" fill="#46A037"/>
<path fill-rule="evenodd" clip-rule="evenodd" d="M20.2105 16.6087L20.2584 16.5925C20.358 16.2514 20.6634 16.3022 20.9102 16.2597C21.6067 16.1391 22.305 16.0304 23.0028 15.9173C23.6778 15.8081 24.3524 15.6981 25.0279 15.5916C25.1079 15.5791 25.1913 15.5895 25.2731 15.5892C25.1469 16.0397 25.0476 16.5001 24.8874 16.9381C24.7055 17.4348 24.4855 17.9198 24.252 18.3953C23.9023 19.1043 23.4695 19.7693 22.963 20.3763C22.5735 20.8444 22.1395 21.2776 21.7047 21.705C21.464 21.9411 21.1809 22.1337 20.9168 22.3462L20.8483 22.2994L20.6021 22.0891L20.3473 21.5302C20.1734 20.8785 20.0784 20.2082 20.0645 19.5338L20.0692 19.4201L20.104 18.9276C20.1155 18.7595 20.1309 18.5916 20.138 18.4235C20.1635 17.8189 20.1864 17.2138 20.2105 16.6087Z" fill="#409433"/>
<path fill-rule="evenodd" clip-rule="evenodd" d="M20.2104 16.6087C20.1865 17.2138 20.1637 17.8192 20.1379 18.4242C20.1307 18.5927 20.1156 18.7605 20.1039 18.9284L19.9488 18.9871C19.604 17.9722 19.259 16.9678 18.9216 15.9611C18.3635 14.2954 17.8124 12.6272 17.2551 10.961C16.8051 9.61622 16.3519 8.27251 15.8956 6.92986C15.8741 6.86717 15.813 6.81777 15.7705 6.76225L16.7639 4.93555C16.7982 4.99478 16.8431 5.0503 16.8646 5.11405C17.3241 6.47405 17.7829 7.83431 18.2376 9.19591C18.8294 10.9676 19.4173 12.7401 20.0086 14.5121C20.0322 14.5828 20.071 14.6481 20.1082 14.7275L20.2442 14.5692L20.2104 16.6087Z" fill="#4FAA41"/>
<path fill-rule="evenodd" clip-rule="evenodd" d="M15.7705 6.76233C15.8133 6.81784 15.8744 6.86725 15.8956 6.92994C16.352 8.27257 16.8051 9.61628 17.2551 10.9611C17.8124 12.6273 18.3635 14.2955 18.9216 15.9612C19.259 16.9679 19.604 17.972 19.9488 18.9872L20.1039 18.9285L20.0691 19.421L20.0375 19.5344C19.9836 20.0733 19.9382 20.6133 19.8723 21.1512C19.8394 21.4208 19.769 21.6854 19.7156 21.9521C19.6755 21.8939 19.6191 21.8411 19.5974 21.7765C18.4879 18.4698 17.3821 15.1617 16.2747 11.8544C15.9223 10.8018 15.5678 9.75005 15.2111 8.699C15.193 8.64561 15.142 8.60364 15.1064 8.55636L15.7705 6.76233Z" fill="#4AA73C"/>
<path fill-rule="evenodd" clip-rule="evenodd" d="M20.2439 14.5692L20.1079 14.7275C20.0707 14.6481 20.0319 14.5828 20.0083 14.5121C19.417 12.7401 18.8292 10.9676 18.2374 9.19588C17.7821 7.83446 17.3244 6.47384 16.8643 5.11402C16.8428 5.05027 16.7979 4.99475 16.7637 4.93552L17.9922 3.31946C18.031 3.37099 18.0862 3.41694 18.1061 3.47511C18.447 4.47386 18.7854 5.47341 19.1214 6.47375C19.4353 7.40822 19.7445 8.34375 20.0622 9.27663C20.0835 9.33905 20.1576 9.38315 20.207 9.43627L20.2096 9.64824L20.2439 14.5692Z" fill="#57AE47"/>
<path fill-rule="evenodd" clip-rule="evenodd" d="M20.207 9.43635C20.1573 9.38349 20.0835 9.3394 20.0622 9.27671C19.7448 8.34383 19.4353 7.4083 19.1214 6.47383C18.7853 5.47348 18.4469 4.47393 18.1061 3.47519C18.0862 3.41702 18.031 3.37107 17.9922 3.31954C18.3917 2.92827 18.7787 2.52293 19.1944 2.14973C19.5639 1.81823 19.8609 1.46282 19.8747 0.938741L19.9039 0.834351L20.0091 1.09944C20.0064 1.23332 19.9945 1.36773 20.0032 1.50107C20.0184 1.73296 20.0558 1.96379 20.0662 2.19568C20.0856 2.62732 20.0949 3.05976 20.1036 3.49193C20.1177 4.18733 20.1305 4.88301 20.139 5.57868L20.1754 8.91333C20.178 9.08785 20.1963 9.2621 20.207 9.43635Z" fill="#60B24F"/>
<path fill-rule="evenodd" clip-rule="evenodd" d="M19.7157 21.9518C19.7691 21.6851 19.8395 21.4206 19.8724 21.151C19.9383 20.6133 19.9837 20.0731 20.0376 19.5341L20.0512 19.532L20.0645 19.5344C20.0785 20.2088 20.1734 20.8791 20.3474 21.5308C20.3115 21.5781 20.2613 21.6198 20.2422 21.6729C20.0948 22.0889 19.9556 22.5083 19.8073 22.924C19.7872 22.9809 19.7303 23.0252 19.6907 23.0749L19.5391 22.5543L19.7157 21.9518Z" fill="#A9AA88"/>
<path fill-rule="evenodd" clip-rule="evenodd" d="M19.6904 23.0751C19.73 23.0251 19.7869 22.9811 19.807 22.9242C19.9553 22.5085 20.0944 22.0891 20.2419 21.6731C20.2607 21.62 20.3112 21.5783 20.3471 21.531L20.6018 22.0899C20.5516 22.1611 20.482 22.2256 20.4541 22.305L19.9664 23.7373C19.9462 23.7949 19.878 23.8353 19.8317 23.8839L19.6904 23.0751Z" fill="#B6B598"/>
<path fill-rule="evenodd" clip-rule="evenodd" d="M19.832 23.8836C19.878 23.835 19.9465 23.7946 19.9667 23.737L20.4544 22.3048C20.482 22.2253 20.5519 22.1608 20.6021 22.0896L20.8486 22.2997C20.7296 22.4174 20.6634 22.5534 20.7033 22.7252L20.6284 22.9704C20.5944 23.0124 20.545 23.049 20.5282 23.0971C20.358 23.5848 20.1957 24.0751 20.0241 24.5626C20.0023 24.6242 19.942 24.6728 19.8998 24.7275L19.832 23.8836Z" fill="#C2C1A7"/>
<path fill-rule="evenodd" clip-rule="evenodd" d="M19.8997 24.7273C19.9422 24.6726 20.0025 24.624 20.024 24.5624C20.1956 24.075 20.3582 23.5846 20.5282 23.0969C20.5449 23.0488 20.5943 23.0124 20.6283 22.9702L20.525 24.0954C20.4974 24.1273 20.4575 24.1552 20.4442 24.1921L20.1005 25.177C20.0763 25.2442 20.0301 25.3043 19.994 25.3672C19.9619 25.3252 19.9045 25.2846 19.9018 25.241C19.8917 25.0705 19.8989 24.8987 19.8997 24.7273Z" fill="#CECDB7"/>
<path fill-rule="evenodd" clip-rule="evenodd" d="M19.9941 25.3674C20.0303 25.3044 20.0765 25.2444 20.1007 25.1772L20.4444 24.1923C20.4577 24.1551 20.4978 24.1275 20.5251 24.0956L20.5278 24.834L20.2805 25.4681L19.9941 25.3674Z" fill="#DBDAC7"/>
<path fill-rule="evenodd" clip-rule="evenodd" d="M20.2803 25.4682L20.5276 24.8341L20.5786 25.5842L20.2803 25.4682Z" fill="#EBE9DC"/>
<path fill-rule="evenodd" clip-rule="evenodd" d="M20.7029 22.7253C20.6633 22.5537 20.7292 22.4177 20.8482 22.2998L20.9167 22.3466L20.7029 22.7253Z" fill="#CECDB7"/>
<path fill-rule="evenodd" clip-rule="evenodd" d="M20.0639 19.5346L20.0507 19.5322L20.0371 19.5343L20.0687 19.4209L20.0639 19.5346Z" fill="#4FAA41"/>
</g>
<defs>
<filter id="filter0_d_57847_130" x="-1" y="0" width="42" height="42" filterUnits="userSpaceOnUse" color-interpolation-filters="sRGB">
<feFlood flood-opacity="0" result="BackgroundImageFix"/>
<feColorMatrix in="SourceAlpha" type="matrix" values="0 0 0 0 0 0 0 0 0 0 0 0 0 0 0 0 0 0 127 0" result="hardAlpha"/>
<feOffset dy="4"/>
<feGaussianBlur stdDeviation="2"/>
<feComposite in2="hardAlpha" operator="out"/>
<feColorMatrix type="matrix" values="0 0 0 0 0 0 0 0 0 0 0 0 0 0 0 0 0 0 0.25 0"/>
<feBlend mode="normal" in2="BackgroundImageFix" result="effect1_dropShadow_57847_130"/>
<feBlend mode="normal" in="SourceGraphic" in2="effect1_dropShadow_57847_130" result="shape"/>
</filter>
</defs>
</svg>
