<svg width="40" height="34" viewBox="0 0 40 34" fill="none" xmlns="http://www.w3.org/2000/svg">
<g clip-path="url(#clip0_57847_120)">
<path d="M38.0135 26.1094C35.9021 27.2099 24.9647 31.7071 22.6361 32.921C20.3076 34.135 19.014 34.1234 17.1745 33.244C15.3351 32.3646 3.69565 27.6631 1.59893 26.6608C0.551109 26.1601 0 25.7373 0 25.3379V21.3389C0 21.3389 15.1532 18.0401 17.5995 17.1625C20.0456 16.2848 20.8944 16.2531 22.9761 17.0157C25.0582 17.7785 37.5062 20.0243 39.5636 20.7779L39.5627 24.7204C39.563 25.1157 39.0883 25.5493 38.0135 26.1094Z" fill="#912626"/>
<path d="M38.0127 22.1339C35.9015 23.234 24.9643 27.7313 22.6358 28.9451C20.3074 30.1593 19.0138 30.1474 17.1744 29.2681C15.3349 28.3893 3.69592 23.687 1.59936 22.6854C-0.497207 21.6831 -0.541098 20.9934 1.51837 20.187C3.57785 19.3802 15.153 14.8389 17.5996 13.9613C20.0457 13.0839 20.8944 13.0519 22.9761 13.8148C25.058 14.5773 35.9299 18.9047 37.9871 19.6581C40.045 20.4125 40.124 21.0336 38.0127 22.1339Z" fill="#C6302B"/>
<path d="M38.0135 19.6387C35.9021 20.7394 24.9647 25.2364 22.6361 26.4508C20.3076 27.6644 19.014 27.6527 17.1745 26.7733C15.3349 25.8944 3.69565 21.1924 1.59893 20.1902C0.551109 19.6894 0 19.2672 0 18.8677V14.8682C0 14.8682 15.1532 11.5696 17.5995 10.692C20.0456 9.81429 20.8944 9.78245 22.9761 10.5451C25.0583 11.3078 37.5063 13.5532 39.5636 14.3069L39.5627 18.2498C39.563 18.645 39.0883 19.0787 38.0135 19.6387Z" fill="#912626"/>
<path d="M38.0127 15.6633C35.9015 16.7636 24.9643 21.2606 22.6358 22.4749C20.3074 23.6887 19.0138 23.6768 17.1744 22.7974C15.3349 21.9187 3.69592 17.2165 1.59936 16.2147C-0.497207 15.2128 -0.541098 14.5229 1.51837 13.7162C3.57785 12.9099 15.1531 8.36827 17.5996 7.49076C20.0457 6.61325 20.8944 6.58142 22.9761 7.3441C25.058 8.10663 35.9299 12.4337 37.9871 13.1875C40.045 13.9416 40.124 14.5629 38.0127 15.6633Z" fill="#C6302B"/>
<path d="M38.0135 12.9282C35.9021 14.0286 24.9647 18.5259 22.6361 19.7403C20.3076 20.9541 19.014 20.9422 17.1745 20.0628C15.3349 19.1839 3.69565 14.4817 1.59893 13.4799C0.551109 12.9788 0 12.5564 0 12.1573V8.15771C0 8.15771 15.1532 4.85925 17.5995 3.98174C20.0456 3.10392 20.8944 3.07239 22.9761 3.83492C25.0583 4.5976 37.5063 6.84299 39.5636 7.59671L39.5627 11.5395C39.563 11.9343 39.0883 12.368 38.0135 12.9282Z" fill="#912626"/>
<path d="M38.0125 8.95277C35.9013 10.0531 24.9641 14.5504 22.6356 15.7642C20.3072 16.978 19.0137 16.9661 17.1743 16.0872C15.3349 15.2078 3.69573 10.506 1.59932 9.50404C-0.49709 8.50212 -0.541135 7.81223 1.51818 7.00565C3.57766 6.19923 15.153 1.65822 17.5994 0.780407C20.0456 -0.097257 20.8942 -0.128784 22.9759 0.633898C25.0576 1.39658 35.9297 5.7237 37.9869 6.47742C40.0448 7.23098 40.1238 7.85241 38.0125 8.95277Z" fill="#C6302B"/>
<path d="M24.6163 5.06244L21.2148 5.41558L20.4533 7.24787L19.2235 5.20323L15.2957 4.85025L18.2265 3.79332L17.3471 2.1709L20.0911 3.24406L22.6779 2.39715L21.9787 4.07474L24.6163 5.06244ZM20.2503 13.9516L13.902 11.3186L22.9986 9.92228L20.2503 13.9516ZM11.4489 6.0809C14.1341 6.0809 16.3109 6.92472 16.3109 7.96543C16.3109 9.00644 14.1341 9.85011 11.4489 9.85011C8.76369 9.85011 6.58691 9.00629 6.58691 7.96543C6.58691 6.92472 8.76369 6.0809 11.4489 6.0809Z" fill="white"/>
<path d="M28.6367 5.56335L34.0205 7.69083L28.6414 9.81629L28.6367 5.56335Z" fill="#621B1C"/>
<path d="M22.6807 7.9194L28.6368 5.56335L28.6415 9.81629L28.0575 10.0447L22.6807 7.9194Z" fill="#9A2928"/>
</g>
<defs>
<clipPath id="clip0_57847_120">
<rect width="39.5636" height="34" fill="white"/>
</clipPath>
</defs>
</svg>
