<svg width="34" height="34" viewBox="0 0 34 34" fill="none" xmlns="http://www.w3.org/2000/svg">
<g opacity="0.12">
<path d="M27.2002 22.1C24.9902 22.1 23.1202 23.46 22.4402 25.5H15.3002C15.3002 24.31 14.9602 23.29 14.4502 22.44L26.5202 10.03C27.0302 10.03 27.5402 10.2 28.0502 10.2C30.4302 10.2 32.3002 8.32995 32.3002 5.94995C32.3002 3.56995 30.4302 1.69995 28.0502 1.69995C25.6702 1.69995 23.8002 3.56995 23.8002 5.94995C23.8002 6.45995 23.9702 7.13995 24.1402 7.64995L12.2402 19.89C11.2202 19.04 9.8602 18.7 8.5002 18.7V11.56C10.5402 10.88 11.9002 9.00995 11.9002 6.79995C11.9002 3.90995 9.6902 1.69995 6.8002 1.69995C3.9102 1.69995 1.7002 3.90995 1.7002 6.79995C1.7002 9.00995 3.0602 10.88 5.1002 11.56V19.55C3.0602 20.74 1.7002 22.95 1.7002 25.33C1.7002 29.07 4.7602 32.13 8.5002 32.13C11.0502 32.13 13.2602 30.77 14.2802 28.73H22.2702C22.9502 30.6 24.8202 32.13 27.0302 32.13C29.7502 32.13 32.1302 29.92 32.1302 27.03C32.3002 24.31 29.9202 22.1 27.2002 22.1Z" fill="black"/>
</g>
</svg>
